<?xml version="1.0" encoding="utf-8"?>
<!-- Generator: Adobe Illustrator 16.0.0, SVG Export Plug-In . SVG Version: 6.00 Build 0)  -->
<!DOCTYPE svg PUBLIC "-//W3C//DTD SVG 1.1//EN" "http://www.w3.org/Graphics/SVG/1.1/DTD/svg11.dtd">
<svg version="1.1" id="Layer_1" xmlns="http://www.w3.org/2000/svg" xmlns:xlink="http://www.w3.org/1999/xlink" x="0px" y="0px"
	 width="28.3px" height="28.3px" viewBox="0 0 28.3 28.3" style="enable-background:new 0 0 28.3 28.3;" xml:space="preserve">
<style type="text/css">
<![CDATA[
	.st0{fill:#808284;}
]]>
</style>
<g>
	<path class="st0" d="M0.8,4.2c1.4-0.2,3.4-0.4,6-0.4c2.9,0,5,0.6,6.3,1.6c1.3,1,2.1,2.5,2.1,4.3c0,1.9-0.6,3.4-1.9,4.5
		c-1.6,1.4-4,2.1-6.8,2.1c-0.7,0-1.4,0-1.9-0.1v7.4H0.8V4.2z M4.7,13.4c0.5,0.1,1.1,0.1,1.9,0.1c2.9,0,4.7-1.3,4.7-3.6
		c0-2.2-1.7-3.4-4.4-3.4c-1.1,0-1.9,0.1-2.3,0.2V13.4z"/>
</g>
<g>
	<path class="st0" d="M17.6,20.4c0.9,0.5,2.6,1,4,1c1.7,0,2.5-0.6,2.5-1.6c0-1-0.6-1.5-2.6-2.1c-3-1-4.3-2.5-4.3-4.1
		c0-2.5,2.3-4.5,5.9-4.5c1.7,0,3.2,0.4,4.1,0.8l-0.8,2.5c-0.7-0.4-1.9-0.8-3.3-0.8c-1.4,0-2.2,0.6-2.2,1.5c0,0.9,0.7,1.3,2.7,2
		c2.8,0.9,4.1,2.2,4.1,4.3c0,2.6-2.2,4.4-6.3,4.4c-1.9,0-3.6-0.4-4.7-1L17.6,20.4z"/>
</g>
</svg>
