<?xml version="1.0" encoding="utf-8"?>
<!-- Generator: Adobe Illustrator 16.0.0, SVG Export Plug-In . SVG Version: 6.00 Build 0)  -->
<!DOCTYPE svg PUBLIC "-//W3C//DTD SVG 1.1//EN" "http://www.w3.org/Graphics/SVG/1.1/DTD/svg11.dtd">
<svg version="1.1" id="Layer_1" xmlns="http://www.w3.org/2000/svg" xmlns:xlink="http://www.w3.org/1999/xlink" x="0px" y="0px"
	 width="28.3px" height="28.3px" viewBox="0 0 28.3 28.3" enable-background="new 0 0 28.3 28.3" xml:space="preserve">
<g enable-background="new    ">
	<path fill="#808284" d="M6.899,18.93l-1.851,5.578H0.997L7.888,4.824h5.009l6.988,19.685h-4.212l-1.946-5.578H6.899z
		 M13.057,16.214l-1.691-4.849c-0.415-1.197-0.766-2.541-1.085-3.68h-0.063c-0.319,1.139-0.638,2.512-1.021,3.68l-1.659,4.849
		H13.057z"/>
	<path fill="#808284" d="M26.749,6.313c0,1.081-0.862,1.927-2.233,1.927c-1.309,0-2.17-0.847-2.17-1.927
		c0-1.11,0.894-1.957,2.201-1.957C25.886,4.356,26.716,5.204,26.749,6.313z M22.569,24.508V10.285h3.956v14.223H22.569z"/>
</g>
</svg>
