<?xml version="1.0" encoding="utf-8"?>
<!-- Generator: Adobe Illustrator 16.0.0, SVG Export Plug-In . SVG Version: 6.00 Build 0)  -->
<!DOCTYPE svg PUBLIC "-//W3C//DTD SVG 1.1//EN" "http://www.w3.org/Graphics/SVG/1.1/DTD/svg11.dtd">
<svg version="1.1" id="Layer_1" xmlns="http://www.w3.org/2000/svg" xmlns:xlink="http://www.w3.org/1999/xlink" x="0px" y="0px"
	 width="25.875px" height="28.3px" viewBox="1.275 0 25.875 28.3" enable-background="new 1.275 0 25.875 28.3"
	 xml:space="preserve">
<g>
	<g>
		<path fill="#808284" d="M6.4,4.8v19.7H2.5V4.8H6.4z"/>
	</g>
	<g>
		<path fill="#808284" d="M10.5,8.3C12,8.1,13.8,8,15.8,8c3.3,0,5.699,0.6,7.3,1.9c1.7,1.3,2.8,3.2,2.8,6c0,2.9-1.1,5.1-2.8,6.5
			C21.3,23.9,18.5,24.6,15,24.6C13.1,24.6,11.7,24.5,10.6,24.4V8.3H10.5z M13.8,22.201c0.5,0.1,1.1,0.1,1.8,0.1
			c4.3,0,6.8-2.1,6.8-6.301c0-3.6-2.3-5.7-6.4-5.7c-1,0-1.799,0.1-2.2,0.2V22.201z"/>
	</g>
</g>
</svg>
