<?xml version="1.0" encoding="utf-8"?>
<!-- Generator: Adobe Illustrator 16.0.0, SVG Export Plug-In . SVG Version: 6.00 Build 0)  -->
<!DOCTYPE svg PUBLIC "-//W3C//DTD SVG 1.1//EN" "http://www.w3.org/Graphics/SVG/1.1/DTD/svg11.dtd">
<svg version="1.1" id="Layer_1" xmlns="http://www.w3.org/2000/svg" xmlns:xlink="http://www.w3.org/1999/xlink" x="0px" y="0px"
	 width="23.417px" height="28.3px" viewBox="2.483 0 23.417 28.3" enable-background="new 2.483 0 23.417 28.3"
	 xml:space="preserve">
<path fill="#808284" d="M9.6,19.651l0.1,2.601l2.2-1.5c0,0,0,0-0.1-0.101C11.2,20.25,10.5,19.85,9.6,19.651 M9.3,11.95l0.3,7
	c1.1,0.2,2,0.6,2.7,1.301c0.1,0.1,0.1,0.1,0.199,0.199l6.901-4.699c-0.201-0.301-0.4-0.5-0.602-0.701
	c-0.398-0.299-0.799-0.5-1.199-0.6c-0.5,0-0.9-0.1-1.4,0c-0.5,0-0.898,0.101-1.398,0.101h-0.3l-0.1-0.301c0,0-1.1-2.199-2.2-3.5
	C11.6,10.15,10,11.35,9.3,11.95z M14.1,24.75c-6,0-10.8-4.699-10.8-10.601c0-5.8,4.8-10.5,10.8-10.6L10,10.45
	c0.801-0.5,1.7-0.8,2.5-0.5l3.5-6.2c0.301,0.101,0.699,0.101,1,0.2l-3.799,6.6c0.8,1,1.6,2.5,1.9,3.1c0.399,0,0.801-0.1,1.2-0.1
	c0.199,0,0.398,0,0.601,0l4.3-7.4c0.301,0.2,0.5,0.5,0.801,0.7l-3.9,6.8c0.5,0.1,1,0.3,1.4,0.7c0.199,0.2,0.399,0.301,0.5,0.5
	l3.6-5.9c0.9,1.5,1.4,3.3,1.4,5.101C24.901,19.951,20,24.75,14.1,24.75z"/>
</svg>
