<?xml version="1.0" encoding="utf-8"?>
<!-- Generator: Adobe Illustrator 16.0.0, SVG Export Plug-In . SVG Version: 6.00 Build 0)  -->
<!DOCTYPE svg PUBLIC "-//W3C//DTD SVG 1.1//EN" "http://www.w3.org/Graphics/SVG/1.1/DTD/svg11.dtd">
<svg version="1.1" id="Layer_1" xmlns="http://www.w3.org/2000/svg" xmlns:xlink="http://www.w3.org/1999/xlink" x="0px" y="0px"
	 width="20.75px" height="28.3px" viewBox="3.775 0 20.75 28.3" enable-background="new 3.775 0 20.75 28.3" xml:space="preserve">
<polygon fill="#808184" points="7.7,5.1 8.8,5.1 8.8,6.2 10,6.2 10,2.9 8.8,2.9 8.8,4 7.7,4 7.7,2.9 6.6,2.9 6.6,6.2 7.7,6.2 "/>
<polygon fill="#808184" points="11.6,6.2 12.8,6.2 12.8,4 13.9,4 13.9,2.9 10.6,2.9 10.6,4 11.6,4 "/>
<polygon fill="#808184" points="15.6,4.6 16.4,5.7 16.4,5.7 17.201,4.6 17.201,6.2 18.4,6.2 18.4,2.9 17.201,2.9 16.4,4.1 15.6,2.9 
	14.4,2.9 14.4,6.2 15.6,6.2 "/>
<polygon fill="#808184" points="21.9,5.1 20.201,5.1 20.201,2.9 19,2.9 19,6.2 21.9,6.2 "/>
<path fill="#808184" d="M4.8,7.6l1.7,17.601l7.7,2l7.7-2L23.6,7.6H4.8z M19.9,13.4h-5.7h-3.3l0.2,2.2h3.1h5.5L19.1,22.201L14.3,23.4
	l0,0l-4.8-1.199l-0.3-3.5h2.4l0.2,1.799l2.6,0.601l0,0L17,20.5l0.301-2.799h-2.9H9l-0.6-6.5h5.9h5.901L19.9,13.4z"/>
</svg>
