<?xml version="1.0" encoding="utf-8"?>
<!-- Generator: Adobe Illustrator 16.0.0, SVG Export Plug-In . SVG Version: 6.00 Build 0)  -->
<!DOCTYPE svg PUBLIC "-//W3C//DTD SVG 1.1//EN" "http://www.w3.org/Graphics/SVG/1.1/DTD/svg11.dtd">
<svg version="1.1" id="Layer_1" xmlns="http://www.w3.org/2000/svg" xmlns:xlink="http://www.w3.org/1999/xlink" x="0px" y="0px"
	 width="35.584px" height="28.3px" viewBox="0 0 35.584 28.3" enable-background="new 0 0 35.584 28.3" xml:space="preserve">
<g>
	<path fill="#808184" d="M17.793,22.017c9,0,16.199-3.4,16.199-7.5c0-4.201-7.3-7.502-16.199-7.502c-8.9,0-16.2,3.301-16.2,7.502
		C1.593,18.617,8.893,22.017,17.793,22.017z"/>
	<path fill="#FFFFFF" d="M6.717,18.517h1.9l0.5-2.201h1.7c0.7,0,1.3-0.101,1.8-0.198c0.5-0.1,0.9-0.4,1.3-0.701
		c0.3-0.299,0.6-0.601,0.8-0.897c0.2-0.301,0.3-0.701,0.4-1.102c0.2-1,0-1.699-0.5-2.299c-0.5-0.5-1.3-0.802-2.5-0.802h-3.7
		L6.717,18.517z"/>
	<path fill="#FFFFFF" d="M16.663,8.216h1.9l-0.5,2.199h1.7c1.101,0,1.8,0.201,2.199,0.5c0.399,0.301,0.5,0.899,0.399,1.701
		l-0.801,3.8h-2l0.801-3.603c0.101-0.398,0.101-0.699-0.101-0.8c-0.2-0.101-0.5-0.2-1-0.2h-1.5l-1,4.701h-1.9L16.663,8.216z"/>
	<path fill="#FFFFFF" d="M21.816,18.517h1.899l0.5-2.201h1.699c0.698,0,1.301-0.101,1.801-0.198c0.5-0.1,0.897-0.4,1.3-0.701
		c0.301-0.299,0.601-0.601,0.801-0.897c0.199-0.301,0.3-0.701,0.399-1.102c0.199-1,0.101-1.699-0.5-2.299
		c-0.5-0.5-1.301-0.802-2.5-0.802h-3.7L21.816,18.517z"/>
	<path fill="#808184" d="M26.518,11.716c0.7,0,1.2,0.1,1.5,0.4c0.2,0.198,0.301,0.698,0.2,1.299
		c-0.102,0.602-0.399,1.102-0.801,1.301c-0.399,0.301-1,0.399-1.699,0.399h-1.2l0.7-3.399H26.518z"/>
	<path fill="#808184" d="M11.417,11.716c0.7,0,1.2,0.1,1.5,0.4c0.2,0.198,0.3,0.698,0.2,1.299c-0.1,0.602-0.4,1.102-0.8,1.301
		c-0.4,0.301-1,0.399-1.7,0.399h-1.3l0.7-3.399H11.417z"/>
</g>
</svg>
