<?xml version="1.0" encoding="utf-8"?>
<!-- Generator: Adobe Illustrator 16.0.0, SVG Export Plug-In . SVG Version: 6.00 Build 0)  -->
<!DOCTYPE svg PUBLIC "-//W3C//DTD SVG 1.1//EN" "http://www.w3.org/Graphics/SVG/1.1/DTD/svg11.dtd">
<svg version="1.1" id="Layer_1" xmlns="http://www.w3.org/2000/svg" xmlns:xlink="http://www.w3.org/1999/xlink" x="0px" y="0px"
	 width="23px" height="28.3px" viewBox="2.65 0 23 28.3" enable-background="new 2.65 0 23 28.3" xml:space="preserve">
<path fill="#808184" d="M4.8,13.8c0,3.6,2.1,6.8,5.2,8.3l-4.4-12C5.1,11.2,4.8,12.5,4.8,13.8 M20.201,13.3c0-1.1-0.4-1.9-0.801-2.5
	c-0.5-0.8-0.9-1.4-0.9-2.2C18.5,7.8,19.1,7,20,7H20.1c-1.601-1.5-3.8-2.4-6.2-2.4c-3.2,0-6,1.6-7.7,4.1c0.2,0,0.4,0,0.6,0
	c1,0,2.4-0.1,2.4-0.1c0.5,0,0.6,0.7,0.1,0.8c0,0-0.5,0.1-1,0.1l3.3,9.9l2-6l-1.4-3.9c-0.5,0-1-0.1-1-0.1c-0.5,0-0.4-0.8,0.1-0.8
	c0,0,1.5,0.1,2.4,0.1c1,0,2.4-0.1,2.4-0.1c0.5,0,0.601,0.7,0.101,0.8c0,0-0.5,0.1-1.101,0.1l3.3,9.9l0.9-3.1
	C19.9,15.1,20.201,14.1,20.201,13.3z M14.1,14.6l-2.8,8C12.1,22.8,13,23,13.9,23C15,23,16,22.8,17,22.5c0,0,0-0.1-0.1-0.1L14.1,14.6
	z M22,9.4C22,9.7,22.1,10,22.1,10.3c0,0.9-0.2,2-0.7,3.3l-2.8,8.101c2.7-1.601,4.601-4.5,4.601-7.901C23.1,12.2,22.701,10.7,22,9.4z
	 M3.3,13.8c0,5.901,4.8,10.7,10.7,10.7s10.701-4.799,10.701-10.7C24.701,7.9,19.9,3.1,14,3.1S3.3,7.9,3.3,13.8z M3.7,13.8
	C3.7,8.2,8.3,3.6,14,3.6c5.6,0,10.201,4.6,10.201,10.2C24.201,19.4,19.6,24,14,24C8.3,24,3.7,19.4,3.7,13.8z"/>
</svg>
