<?xml version="1.0" encoding="utf-8"?>
<!-- Generator: Adobe Illustrator 16.0.0, SVG Export Plug-In . SVG Version: 6.00 Build 0)  -->
<!DOCTYPE svg PUBLIC "-//W3C//DTD SVG 1.1//EN" "http://www.w3.org/Graphics/SVG/1.1/DTD/svg11.dtd">
<svg version="1.1" id="Layer_1" xmlns="http://www.w3.org/2000/svg" xmlns:xlink="http://www.w3.org/1999/xlink" x="0px" y="0px"
	 width="81.684px" height="26.5px" viewBox="0 0 81.684 26.5" enable-background="new 0 0 81.684 26.5" xml:space="preserve">
<path fill="#808184" d="M77.4,6.947h3.399c0,0-6.199,7.7-6.799,8.4c-0.201,0.2-0.4,0.4-0.5,0.7c-0.301,0.7-0.701,2.2-0.701,2.2h-3.1
	c0,0,0.5-1.601,0.5-2.4c0-0.7-0.4-1.5-0.699-2.2c-0.201-0.699-0.5-2.2-0.5-2.2H72.2l0.4,1.6L77.4,6.947z"/>
<path fill="#808184" d="M71.1,8.547c0.6,0.3,1,2.2,1,2.2s-3.2,0-5,0c-0.4,0-1.5,0-1.5,0l-1.9,7.399h-2.8c0,0,1.8-8,2.2-9.5
	c0.1-0.5,0.9-0.4,2.3-0.4c0.7,0,1.601,0,2.101,0C68.799,8.347,70.4,8.247,71.1,8.547"/>
<path fill="#808184" d="M60.2,14.247c0,0-3.6-0.101-5.6,0c-0.6,0-1.301-0.101-1.5,0.2c-0.301,0.399,0.1,0.899,0.4,1.199
	c0.299,0.301,1,0.301,1.199,0.301c1.6,0.199,4.9,0,4.9,0l-0.6,2.3c0,0-4.701,0.2-7.101-0.3c-0.5-0.101-0.899-0.301-1.2-0.601
	c-0.1-0.1-0.199-0.2-0.199-0.3c-0.101-0.1-0.201-0.3-0.301-0.5c-0.5-1.3,0.1-3.8,0.7-5.2c0.8-1.9,2.2-2.8,4.5-3.2
	c0.7-0.1,1.399-0.1,2.2,0C61.4,8.647,60.9,11.547,60.2,14.247 M57.9,12.147c0,0,0.101-0.5-0.3-1c-0.301-0.5-0.6-0.6-1.5-0.6
	c-2.5-0.1-2.4,1.6-2.4,1.6H57.9z"/>
<path fill="#808184" d="M47.6,8.347h2.8c0,0-1.5,6.601-2.3,9.9c-1.2,0-2.2,0-3.2,0c-2.2,0-4.2,0.2-5-1.2c-0.8-1.4,0-3.7,0.3-5.3
	c0.3-1.1,0.8-3.4,0.8-3.4h2.799c0,0-0.799,3.5-1.099,5.3c-0.1,0.601-0.4,1.2-0.1,1.7c0.2,0.4,0.6,0.5,1.6,0.5c0.301,0,1.4,0,1.4,0
	L47.6,8.347z"/>
<path fill="#808184" d="M38.5,9.447c0.3,2.1-0.9,4.4-1.7,6.4c0.8,0.101,1.6,0,1.6,0c0.1,0.101-0.6,2.4-0.8,2.4c-0.7,0-2.9,0-3.8,0
	c-3,0-5.9,0.2-7.3-1.2c-0.6-0.6-1-1.5-1.1-2.2c-0.1-1,0.1-2.3,0.4-3.3c0.3-0.9,0.6-1.8,1.1-2.6c1.3-2,3.5-3.5,7.2-3.2
	c0.7,0.1,1.8,0.4,2.4,0.7c0,0,0.2,0.1,0.2,0.2C37.5,7.147,38.3,8.347,38.5,9.447 M34.7,13.146c0.3-0.899,0.7-1.899,0.7-2.8
	c-0.1-0.9-0.9-1.7-1.5-1.9c-1.6-0.5-3.1,0.2-3.7,0.8c-0.8,0.8-1,1.7-1.3,2.9c-0.2,0.9-0.4,1.9,0,2.6c0.7,1.3,2.7,1,4.9,1
	C34.1,14.947,34.4,14.047,34.7,13.146z"/>
<path fill="#808184" d="M25.1,8.347c-0.2,0.8-0.4,1.6-0.6,2.4c-1,0-2,0-3.1,0c0.2-0.8,0.4-1.7,0.7-2.4
	C23.1,8.347,24,8.347,25.1,8.347"/>
<path fill="#808184" d="M21.4,11.447c1,0,2,0,2.9,0c-0.4,1.9-1.1,5.1-1.7,7.3c-0.4,1.399-0.6,2.399-1.6,3.1
	c-0.1,0.101-0.1,0-0.2,0.101c-0.2,0.199-1,0.399-1.5,0.399c-0.8,0.101-1.7,0-2.6,0c0.2-0.8,0.5-1.8,0.8-2.6c2.3,0.3,2.4-1.8,2.8-3.7
	C20.5,14.947,21.2,11.847,21.4,11.447"/>
<path fill="#808184" d="M14.5,16.547l-0.1,0.2c-1.1,1.899-3,3.1-5.7,3.1c-1.3,0-2.5-0.3-3.3-0.6c-1.7-0.7-3.1-2-3.9-3.4
	c-0.5-0.899-0.8-1.899-0.8-2.899c0-1.3,0.5-2.7,1.8-3.9c0,0-0.3,0.4-0.2,0.4l-0.1,0.2c-1.7,4.8,3.5,9,8.5,8.5
	C12,18.047,13.6,17.447,14.5,16.547"/>
<path fill="#808184" d="M14.7,10.547c-0.2,0.4-1.3,1.2-1.8,1.3c-2,0.4-3.3-0.5-3.9-1.5c-0.1-0.1-0.3-0.5-0.3-0.6
	c-0.3-0.8-0.1-2,0.6-2.6c-0.2,0.6-0.3,1.3-0.1,1.7c0.1,0.3,0.3,0.8,0.5,1.1c0.4,0.5,0.7,0.7,1.2,1c0.2,0.1,0.5,0.2,0.6,0.3
	C12,11.247,13,11.547,14.7,10.547"/>
<path fill="#808184" d="M11.5,14.547c1.3,0,2.6-0.5,3.4-1.3c-0.7,1.6-2.7,2.6-5.3,2.3c-2.2-0.3-4.4-2.3-4.6-4.4
	c-0.2-1.5,0.4-2.4,1.4-3.5c-0.3,0.6-0.4,1-0.5,1.3C5.4,12.147,8.6,14.547,11.5,14.547"/>
</svg>
