<?xml version="1.0" encoding="utf-8"?>
<!-- Generator: Adobe Illustrator 16.0.0, SVG Export Plug-In . SVG Version: 6.00 Build 0)  -->
<!DOCTYPE svg PUBLIC "-//W3C//DTD SVG 1.1//EN" "http://www.w3.org/Graphics/SVG/1.1/DTD/svg11.dtd">
<svg version="1.1" id="Layer_1" xmlns="http://www.w3.org/2000/svg" xmlns:xlink="http://www.w3.org/1999/xlink" x="0px" y="0px"
	 width="47.6px" height="30.8px" viewBox="0 0 47.6 30.8" enable-background="new 0 0 47.6 30.8" xml:space="preserve">
<path fill="#808184" d="M19.7,19.851c-0.7,3.5-1.601,6-2.8,7.6C16,28.652,15,29.251,14,29.251c-0.3,0-0.6-0.1-1.1-0.2v-0.8
	c0.199,0,0.399,0,0.699,0c0.5,0,0.9-0.1,1.2-0.4c0.4-0.3,0.5-0.6,0.5-1c0-0.3-0.1-0.8-0.399-1.6l-1.9-5.4h1.7l1.399,4
	c0.301,0.9,0.4,1.5,0.4,1.9c0.7-1.801,1.2-3.7,1.5-5.9H19.7z M42.5,26.851h-4.9v-9.4H39.2v8.201h3.2v1.199H42.5z M36.401,27.051
	l-1.9-0.899c0.2-0.101,0.3-0.301,0.5-0.4c0.8-0.9,1.2-2.1,1.2-3.801c0-3.1-1.3-4.699-4-4.699c-1.3,0-2.3,0.4-3.101,1.199
	c-0.8,0.9-1.199,2.101-1.199,3.801c0,1.699,0.399,2.9,1.1,3.6c0.6,0.7,1.6,1,2.9,1c0.5,0,0.899-0.1,1.3-0.199l2.5,1.299
	L36.401,27.051z M30.2,24.951c-0.4-0.6-0.601-1.6-0.601-2.899c0-2.399,0.801-3.5,2.4-3.5c0.8,0,1.4,0.3,1.8,0.8
	c0.4,0.6,0.601,1.6,0.601,2.9c0,2.4-0.801,3.6-2.4,3.6C31.2,25.751,30.6,25.451,30.2,24.951z M27.2,24.152c0,0.799-0.3,1.399-1,2
	c-0.601,0.5-1.5,0.799-2.601,0.799c-1,0-2-0.299-2.899-0.899l0.399-0.8c0.801,0.4,1.5,0.6,2.2,0.6c0.601,0,1.101-0.1,1.4-0.4
	c0.399-0.299,0.6-0.6,0.6-1c0-0.6-0.399-1-1.2-1.399c-0.699-0.399-2.199-1.101-2.199-1.101c-0.801-0.5-1.2-1.1-1.2-2
	c0-0.799,0.3-1.399,0.899-1.799c0.601-0.5,1.301-0.701,2.301-0.701s1.8,0.201,2.6,0.701l-0.4,0.799c-0.699-0.299-1.3-0.399-2-0.399
	c-0.5,0-0.899,0.101-1.199,0.3c-0.301,0.2-0.5,0.5-0.5,0.9c0,0.6,0.399,1,1.199,1.4c0.7,0.399,2.2,1.1,2.2,1.1
	C26.8,22.751,27.2,23.251,27.2,24.152z M44.6,14.251c-1,0-1.8,0.1-2.399,0.3c-0.2,0.1-0.5,0.1-0.5,0.3c0.1,0.1,0.1,0.2,0.2,0.4
	c0.199,0.2,0.399,0.5,0.6,0.7c0.3,0.201,0.5,0.4,0.8,0.5c0.5,0.301,1,0.4,1.5,0.701c0.3,0.199,0.5,0.399,0.8,0.5
	c0.101,0.1,0.2,0.199,0.4,0.299l0,0c-0.1-0.1-0.1-0.299-0.2-0.399c-0.1-0.101-0.3-0.2-0.399-0.3c-0.4-0.4-0.801-0.801-1.301-1.1
	c-0.399-0.201-1.3-0.601-1.399-1l0,0c0.3,0,0.6-0.1,0.899-0.2c0.4-0.1,0.801-0.1,1.2-0.2c0.2,0,0.4-0.1,0.601-0.2v-0.1
	c-0.2-0.2-0.4-0.5-0.601-0.7c-0.6-0.5-1.3-1-2-1.4c-0.399-0.2-0.899-0.4-1.3-0.6c-0.1-0.1-0.4-0.1-0.5-0.2c-0.2-0.2-0.3-0.6-0.5-0.9
	c-0.4-0.6-0.7-1.3-1-2c-0.2-0.4-0.4-0.9-0.6-1.3c-1.301-1.9-2.7-3.1-4.801-4.2c-0.5-0.2-1-0.3-1.6-0.5c-0.3,0-0.6,0-0.9,0
	c-0.199-0.1-0.399-0.3-0.6-0.4c-0.7-0.4-2.5-1.3-3-0.1c-0.3,0.7,0.5,1.5,0.8,1.8c0.2,0.3,0.5,0.6,0.601,0.9
	c0.1,0.2,0.1,0.4,0.199,0.6c0.101,0.5,0.301,1.1,0.5,1.5c0.101,0.2,0.301,0.5,0.5,0.7c0.101,0.1,0.301,0.2,0.301,0.4
	c-0.2,0.3-0.2,0.6-0.301,0.9c-0.399,1.3-0.3,2.9,0.4,3.8c0.2,0.3,0.7,0.9,1.3,0.7c0.601-0.2,0.4-0.8,0.601-1.4c0-0.1,0-0.2,0.1-0.3
	l0,0c0.2,0.3,0.3,0.6,0.5,0.9c0.4,0.6,1.1,1.1,1.6,1.5c0.301,0.2,0.5,0.6,0.9,0.7l0,0l0,0c-0.1-0.1-0.2-0.1-0.3-0.2
	c-0.2-0.2-0.5-0.5-0.601-0.7c-0.5-0.6-1-1.3-1.399-2.1c-0.2-0.4-0.4-0.7-0.5-1.1c-0.101-0.1-0.101-0.3-0.2-0.4
	c-0.2,0.2-0.5,0.5-0.6,0.8c-0.2,0.5-0.301,1.1-0.301,1.7c-0.1,0,0,0-0.1,0c-0.4-0.1-0.5-0.5-0.7-0.8c-0.399-0.8-0.399-2.1-0.1-3
	c0.1-0.2,0.5-1,0.3-1.2c-0.1-0.2-0.3-0.3-0.5-0.5c-0.2-0.2-0.3-0.5-0.4-0.7c-0.3-0.6-0.399-1.3-0.8-2c-0.1-0.3-0.399-0.6-0.6-0.9
	c-0.2-0.3-0.5-0.5-0.7-0.9c-0.1-0.1-0.1-0.3,0-0.5c0-0.1,0.1-0.1,0.2-0.1c0.2-0.1,0.6,0,0.8,0.1c0.5,0.2,0.8,0.3,1.2,0.6
	c0.2,0.1,0.399,0.3,0.6,0.4h0.3c0.4,0.1,0.801,0,1.2,0.1c0.7,0.2,1.3,0.5,1.8,0.8c1.601,0.9,3,2.3,3.9,3.9c0.2,0.3,0.2,0.5,0.3,0.8
	c0.3,0.6,0.601,1.1,0.8,1.7c0.301,0.5,0.5,1.1,0.9,1.5c0.2,0.2,0.9,0.4,1.3,0.5c0.2,0.1,0.601,0.2,0.9,0.3
	c0.399,0.2,0.8,0.5,1.2,0.8C43.901,13.751,44.5,14.051,44.6,14.251z M31.901,4.451c-0.2,0-0.4,0-0.5,0.1l0,0l0,0
	c0.1,0.1,0.3,0.2,0.399,0.4c0.101,0.2,0.2,0.4,0.3,0.5l0,0c0.2-0.1,0.301-0.3,0.301-0.6c-0.101-0.1-0.101-0.2-0.101-0.2
	C32.2,4.551,32,4.551,31.901,4.451z M45.8,26.851h0.3v-1.199H45.7l-0.3,0.799L45.1,25.652H44.7v1.199h0.2v-0.9l0,0l0.399,0.9h0.2
	l0.4-0.9v0.9H45.8z M43.7,26.851H44v-1h0.4v-0.199h-1v0.199h0.3V26.851z M12.2,26.851h-1.7c-0.1-2.699-0.2-5.1-0.5-7.5l0,0l-2.6,7.5
	H6.1l-2.6-7.5l0,0c-0.2,2.2-0.3,4.7-0.4,7.5H1.5c0.1-3.3,0.4-6.5,0.8-9.4h2.101l2.5,6.9l0,0l2.5-6.9h2
	C11.901,20.851,12.1,23.951,12.2,26.851z"/>
</svg>
