<?xml version="1.0" encoding="utf-8"?>
<!-- Generator: Adobe Illustrator 16.0.0, SVG Export Plug-In . SVG Version: 6.00 Build 0)  -->
<!DOCTYPE svg PUBLIC "-//W3C//DTD SVG 1.1//EN" "http://www.w3.org/Graphics/SVG/1.1/DTD/svg11.dtd">
<svg version="1.1" id="Layer_1" xmlns="http://www.w3.org/2000/svg" xmlns:xlink="http://www.w3.org/1999/xlink" x="0px" y="0px"
	 width="96.1px" height="30.8px" viewBox="0 0 96.1 30.8" style="enable-background:new 0 0 96.1 30.8;" xml:space="preserve">
<style type="text/css">
<![CDATA[
	.st0{fill-rule:evenodd;clip-rule:evenodd;fill:#808184;}
]]>
</style>
<path class="st0" d="M21.867,21.866c0.38,0.946,0.714,1.775,1.101,2.735c-0.286-0.142-0.461-0.22-0.629-0.313
	c-1.296-0.719-2.583-1.455-3.892-2.15c-0.299-0.16-0.667-0.26-1.005-0.261c-3.38-0.02-6.76-0.004-10.14-0.021
	c-0.5-0.003-1.021-0.058-1.493-0.211c-1.017-0.331-1.698-1.318-1.702-2.42c-0.013-3.023-0.014-6.048,0.001-9.071
	c0.008-1.452,1.09-2.526,2.612-2.647c0.112-0.009,0.225-0.008,0.338-0.008c7.662,0,15.324,0,22.986-0.001
	c0.752,0,1.455,0.158,2.041,0.661c0.67,0.576,0.949,1.326,0.948,2.197c-0.002,2.798,0,5.597,0,8.395c0,2.055-1.059,3.11-3.129,3.114
	c-2.442,0.006-4.883,0.002-7.325,0.002C22.374,21.866,22.17,21.866,21.867,21.866z M14.114,15.575
	c-0.029,0.006-0.058,0.012-0.086,0.019c-0.187-0.619-0.393-1.233-0.555-1.858c-0.174-0.67-0.253-1.369-0.48-2.018
	c-0.114-0.328-0.412-0.692-0.719-0.827c-0.42-0.185-0.777,0.143-1.026,0.501c-0.117,0.168-0.212,0.354-0.308,0.536
	c-0.677,1.297-1.351,2.595-2.029,3.892c-0.089,0.172-0.194,0.336-0.292,0.504c-0.048-0.007-0.097-0.014-0.144-0.021
	c-0.359-2.002-0.718-4.005-1.08-6.007C7.26,9.555,6.865,9.254,6.198,9.372c-0.603,0.108-0.93,0.566-0.804,1.254
	c0.405,2.21,0.81,4.421,1.276,6.619c0.186,0.874,0.485,1.732,0.816,2.566c0.264,0.663,0.76,0.732,1.29,0.252
	c0.207-0.188,0.399-0.406,0.541-0.645c0.382-0.644,0.745-1.301,1.094-1.963c0.416-0.792,0.809-1.594,1.261-2.489
	c0.091,0.281,0.143,0.451,0.202,0.618c0.554,1.585,1.222,3.109,2.409,4.343c0.331,0.343,0.73,0.578,1.209,0.377
	c0.46-0.193,0.53-0.637,0.547-1.087c0.039-1.05,0.021-2.105,0.139-3.146c0.218-1.917,0.463-3.836,1.283-5.62
	c0.304-0.661,0.146-1.209-0.406-1.489c-0.572-0.289-1.189-0.087-1.464,0.601c-0.366,0.919-0.689,1.863-0.92,2.824
	C14.419,13.435,14.294,14.511,14.114,15.575z M20.933,10.36c-0.854-0.04-1.629,0.353-2.216,1.069
	c-1.292,1.579-1.742,3.385-1.266,5.377c0.301,1.258,1.018,2.167,2.37,2.415c1.435,0.265,2.481-0.337,3.246-1.509
	c0.921-1.412,1.251-2.958,0.98-4.622C23.778,11.434,22.599,10.377,20.933,10.36z M28.371,10.36
	c-0.855-0.038-1.628,0.356-2.216,1.071c-1.282,1.561-1.729,3.355-1.278,5.326c0.291,1.275,1.007,2.215,2.389,2.466
	c1.436,0.262,2.48-0.34,3.245-1.514c0.92-1.412,1.25-2.958,0.977-4.621C31.215,11.43,30.037,10.376,28.371,10.36z M32.698,13.511
	c0.041-0.003,0.082-0.006,0.123-0.009c0-1.088,0.043-2.179-0.021-3.263c-0.027-0.465-0.2-0.964-0.443-1.365
	c-0.577-0.953-1.529-1.177-2.581-1.176C22.303,7.705,14.83,7.701,7.358,7.703c-0.244,0-0.49,0-0.731,0.032
	c-1.24,0.16-2.221,1.087-2.292,2.275c-0.063,1.056-0.013,2.118-0.013,3.177c0.126-0.898,0.122-1.797,0.127-2.696
	c0.005-0.707,0.262-1.294,0.749-1.824c0.673-0.73,1.535-0.816,2.425-0.817c6.91-0.007,13.819-0.004,20.729-0.004
	c0.469,0,0.939-0.013,1.408,0.006c1.949,0.078,2.921,1.079,2.936,3.016C32.703,11.749,32.698,12.629,32.698,13.511z"/>
<path class="st0" d="M49.138,10.54c0.985,0,1.885,0,2.853,0c0.297,1.398,0.593,2.798,0.922,4.346
	c0.317-1.391,0.62-2.629,0.872-3.878c0.082-0.405,0.248-0.505,0.635-0.49c0.785,0.031,1.571,0.009,2.393,0.009
	c0.374,2.75,0.741,5.455,1.114,8.193c-0.758,0-1.465,0-2.231,0c-0.186-1.754-0.37-3.501-0.555-5.25
	c-0.034-0.006-0.068-0.013-0.102-0.02c-0.426,1.748-0.853,3.494-1.277,5.236c-0.076,0.022-0.129,0.051-0.182,0.054
	c-1.36,0.058-1.36,0.058-1.699-1.272c-0.341-1.342-0.683-2.683-1.127-4.028c-0.181,1.748-0.36,3.496-0.543,5.273
	c-0.714,0-1.399,0-2.135,0C48.429,15.987,48.781,13.282,49.138,10.54z"/>
<path class="st0" d="M66.847,10.545c0.372,2.735,0.739,5.427,1.111,8.163c-0.754,0-1.474,0-2.234,0
	c-0.184-1.752-0.367-3.498-0.552-5.245c-0.034-0.004-0.068-0.009-0.103-0.014c-0.423,1.739-0.847,3.479-1.288,5.295
	c-0.434,0-0.881,0.032-1.318-0.019c-0.125-0.015-0.284-0.251-0.326-0.412c-0.385-1.449-0.745-2.904-1.113-4.358
	c-0.045-0.177-0.092-0.353-0.238-0.525c-0.181,1.758-0.362,3.515-0.544,5.286c-0.729,0-1.417,0-2.135,0
	c0.357-2.742,0.711-5.452,1.064-8.172c0.974,0,1.89,0,2.854,0c0.299,1.407,0.595,2.808,0.921,4.35
	c0.35-1.549,0.664-2.946,0.979-4.349C64.911,10.545,65.847,10.545,66.847,10.545z"/>
<path class="st0" d="M44.282,18.86c-1.9-0.001-3.124-0.913-3.453-2.781c-0.167-0.94-0.19-1.955-0.03-2.894
	c0.326-1.902,1.621-2.8,3.691-2.771c1.725,0.025,3.009,1.085,3.283,2.874c0.133,0.875,0.134,1.805-0.002,2.679
	C47.477,17.861,46.2,18.86,44.282,18.86z M45.536,14.632c-0.065-0.451-0.089-0.943-0.216-1.406c-0.144-0.52-0.488-0.89-1.086-0.89
	c-0.581,0-0.966,0.363-1.013,0.871c-0.085,0.938-0.102,1.894-0.021,2.831c0.053,0.617,0.496,0.898,1.041,0.894
	c0.528-0.004,0.966-0.318,1.097-0.873C45.443,15.607,45.469,15.136,45.536,14.632z"/>
<path class="st0" d="M73.708,10.471c1.322,0.06,2.608,0.016,3.86,0.201c1.588,0.235,2.499,1.589,2.014,2.9
	c-0.207,0.558-0.696,1.011-1.136,1.62c0.485,1.026,1.059,2.24,1.681,3.553c-0.784,0-1.484,0.021-2.183-0.018
	c-0.136-0.008-0.303-0.236-0.382-0.398c-0.52-1.056-1.018-2.123-1.624-3.174c0,1.174,0,2.348,0,3.557c-0.774,0-1.479,0-2.23,0
	C73.708,16.012,73.708,13.304,73.708,10.471z M75.943,12.129c0,0.625,0,1.229,0,1.829c0.881,0.073,1.418-0.235,1.442-0.804
	C77.413,12.482,76.981,12.156,75.943,12.129z"/>
<path class="st0" d="M68.617,18.715c0-2.729,0-5.423,0-8.152c1.495,0,2.965,0,4.471,0c0,0.574,0,1.128,0,1.74
	c-0.733,0-1.457,0-2.218,0c0,0.513,0,0.97,0,1.479c0.646,0,1.274,0,1.939,0c0,0.605,0,1.161,0,1.788c-0.623,0-1.266,0-1.94,0
	c0,0.475,0,0.88,0,1.349c0.733,0,1.475,0,2.256,0c0,0.629,0,1.197,0,1.797C71.634,18.715,70.158,18.715,68.617,18.715z"/>
<path class="st0" d="M88.221,15.565c0,0.498,0,0.902,0,1.37c0.759,0,1.499,0,2.271,0c0,0.616,0,1.17,0,1.768
	c-1.489,0-2.979,0-4.505,0c0-2.705,0-5.413,0-8.148c1.487,0,2.943,0,4.447,0c0,0.574,0,1.139,0,1.764c-0.737,0-1.46,0-2.212,0
	c0,0.501,0,0.944,0,1.459c0.643,0,1.286,0,1.955,0c0,0.626,0,1.181,0,1.788C89.544,15.565,88.915,15.565,88.221,15.565z"/>
<path class="st0" d="M40.147,10.561c0,0.667,0,1.299,0,1.975c-1.104-0.335-2.143-0.367-2.809,0.726
	c-0.561,0.92-0.561,1.924,0.04,2.818c0.672,0.998,1.68,0.991,2.795,0.641c0,0.597,0.02,1.151-0.015,1.703
	c-0.008,0.12-0.197,0.301-0.328,0.328c-2.948,0.607-5.608-1.34-5.238-4.671C34.892,11.379,37.253,9.911,40.147,10.561z"/>
<path class="st0" d="M85.351,10.563c0,0.667,0,1.3,0,1.972c-1.106-0.336-2.144-0.366-2.811,0.729
	c-0.561,0.921-0.557,1.924,0.044,2.818c0.674,0.999,1.684,0.984,2.794,0.641c0,0.595,0.019,1.15-0.017,1.703
	c-0.008,0.119-0.196,0.293-0.331,0.327c-2.959,0.763-5.671-1.663-5.246-4.678C80.166,11.374,82.476,9.898,85.351,10.563z"/>
<path class="st0" d="M22.129,14.139c-0.097,1.168-0.294,2.075-1.051,2.748c-0.65,0.577-1.188,0.447-1.534-0.352
	c-0.512-1.18-0.141-2.929,0.806-3.798c0.558-0.513,1.144-0.428,1.445,0.26C21.979,13.417,22.056,13.882,22.129,14.139z"/>
<path class="st0" d="M26.69,15.324c0.057-0.958,0.387-1.781,0.999-2.48c0.588-0.674,1.255-0.551,1.616,0.269
	c0.511,1.164,0.15,2.944-0.759,3.752c-0.677,0.601-1.238,0.486-1.562-0.354C26.839,16.133,26.785,15.721,26.69,15.324z"/>
</svg>
