<?xml version="1.0" encoding="utf-8"?>
<!-- Generator: Adobe Illustrator 16.0.0, SVG Export Plug-In . SVG Version: 6.00 Build 0)  -->
<!DOCTYPE svg PUBLIC "-//W3C//DTD SVG 1.1//EN" "http://www.w3.org/Graphics/SVG/1.1/DTD/svg11.dtd">
<svg version="1.1" id="Layer_1" xmlns="http://www.w3.org/2000/svg" xmlns:xlink="http://www.w3.org/1999/xlink" x="0px" y="0px"
	 width="94.4px" height="34.5px" viewBox="0 0 94.4 34.5" style="enable-background:new 0 0 94.4 34.5;" xml:space="preserve">
<style type="text/css">
<![CDATA[
	.st0{fill-rule:evenodd;clip-rule:evenodd;fill:#808284;}
]]>
</style>
<path class="st0" d="M4.3,14.6h6.4c0.9,0,1.7,0.8,1.7,1.7v11.1c0,0.9-0.8,1.7-1.7,1.7H4.3c-0.9,0-1.7-0.8-1.7-1.7V16.3
	C2.6,15.3,3.4,14.6,4.3,14.6 M10.1,30.4h1.6c0.3,0,0.6,0.3,0.6,0.6s-0.3,0.6-0.6,0.6h-1.6c-0.3,0-0.6-0.3-0.6-0.6l0,0
	C9.5,30.7,9.7,30.4,10.1,30.4z M6.8,30.4h1.6C8.7,30.4,9,30.7,9,31s-0.3,0.6-0.6,0.6H6.8c-0.3,0-0.6-0.3-0.6-0.6l0,0
	C6.2,30.7,6.4,30.4,6.8,30.4z M3.5,30.4h1.6c0.3,0,0.6,0.3,0.6,0.6s-0.3,0.6-0.6,0.6H3.5c-0.3,0-0.6-0.3-0.6-0.6l0,0
	C2.9,30.7,3.1,30.4,3.5,30.4z M3.3,13.4h8.5c1.1,0,2,0.9,2,1.9v16.1c0,1.1-0.9,1.9-2,1.9H3.3c-1.1,0-2-0.9-2-1.9V15.3
	C1.4,14.2,2.2,13.4,3.3,13.4z"/>
<path class="st0" d="M81.4,9.2V3.3c0-0.8-0.7-1.5-1.6-1.5H39.7c-0.9,0-1.6,0.7-1.6,1.5v8h2V4.6c0-0.6,0.5-1,1.1-1h37.1
	c0.6,0,1.1,0.5,1.1,1v4.6H81.4z M50.8,33.3h17.8c0.3,0,0.5-0.2,0.5-0.5c0-0.3-0.2-0.5-0.5-0.5h-3.3l-0.9-5h10.2v-2.1H42.9v2.1H55
	l-0.9,5h-3.3c-0.3,0-0.5,0.2-0.5,0.5C50.3,33.1,50.5,33.3,50.8,33.3z"/>
<path class="st0" d="M77.2,9.2l12.3,0c1.5,0,2.2,1,2.2,2.1v14.6c0,1.2-0.6,2.1-2.2,2.1l-12.3,0c-1.5,0-2.2-1-2.2-2.1V11.3
	C74.9,10.2,75.6,9.2,77.2,9.2 M87.4,29.6H90c0.5,0,1,0.3,1,0.8c0,0.4-0.4,0.8-1,0.8h-2.6c-0.5,0-1-0.3-1-0.8S86.9,29.6,87.4,29.6z
	 M82,29.6h2.6c0.5,0,1,0.3,1,0.8c0,0.4-0.4,0.8-1,0.8H82c-0.5,0-1-0.3-1-0.8S81.5,29.6,82,29.6z M76.6,29.6h2.6c0.5,0,1,0.3,1,0.8
	c0,0.4-0.4,0.8-1,0.8h-2.6c-0.5,0-1-0.3-1-0.8S76.1,29.6,76.6,29.6z M76.4,7.8h13.9c2.4,0,3.2,1.1,3.2,2.5v20.6
	c0,1.4-1.4,2.5-3.2,2.5H76.4c-1.8,0-3.2-1.1-3.2-2.5V10.3C73.2,8.9,74.1,7.8,76.4,7.8z"/>
<path class="st0" d="M22.6,30.9h10.8c0.4,0,0.6,0.3,0.6,0.6c0,0.3-0.3,0.6-0.6,0.6H22.6c-0.4,0-0.6-0.3-0.6-0.6
	C22,31.2,22.2,30.9,22.6,30.9 M42.7,30.9h2.4c0.4,0,0.7,0.3,0.7,0.6c0,0.3-0.3,0.6-0.7,0.6h-2.4c-0.4,0-0.6-0.3-0.6-0.6
	C42.1,31.2,42.4,30.9,42.7,30.9z M12.3,9.5h29.5c1.2,0,2.2,0.9,2.2,2v18.4h4.2v1.5c0,1.1-1,2-2.2,2H11.2c1.1,0,2-0.9,2-1.9v-1.9
	l29.2,0V12.3c0-0.4-0.2-1-0.9-1h-28c-1,0-1.5,0.3-1.5,1v1.2c-0.2-0.1-0.4,0.2-0.6,0.2l-1.1-0.1v-2.1C10.1,10.4,11.1,9.5,12.3,9.5z"
	/>
</svg>
