<?xml version="1.0" encoding="utf-8"?>
<!-- Generator: Adobe Illustrator 16.0.0, SVG Export Plug-In . SVG Version: 6.00 Build 0)  -->
<!DOCTYPE svg PUBLIC "-//W3C//DTD SVG 1.1//EN" "http://www.w3.org/Graphics/SVG/1.1/DTD/svg11.dtd">
<svg version="1.1" id="Layer_1" xmlns="http://www.w3.org/2000/svg" xmlns:xlink="http://www.w3.org/1999/xlink" x="0px" y="0px"
	 width="70px" height="70px" viewBox="0 0 70 70" enable-background="new 0 0 70 70" xml:space="preserve">
<g>
	<path fill="#58585B" d="M31.542,21.801c-0.06,0.408-0.108,0.792-0.396,1.139c-0.264,0.3-0.755,0.612-1.163,0.72
		c-0.432,0.096-0.959,0.132-1.379,0c-0.384-0.132-0.839-0.468-1.08-0.792c-0.204-0.276-0.456-0.852-0.384-1.2
		c0.06-0.324,0.24-0.288,0.54-0.324c0.216-0.012,0.456-0.024,0.647,0.084c-0.024,0.708,0.563,1.439,1.379,1.151
		c0.863-0.324,0.827-1.259,0.456-1.919c-0.408-0.708-0.996-1.271-1.619-1.823c-0.468-0.408-0.983-0.768-1.259-1.343
		c-0.3-0.672-0.348-1.739,0.048-2.399c0.444-0.708,1.271-1.127,2.147-1.055c0.288,0.036,0.576,0.108,0.815,0.228
		c0.216,0.132,0.576,0.408,0.684,0.648c0.108,0.264,0.576,1.055,0.372,1.271c-0.156,0.156-0.936,0.3-1.127,0.12
		c-0.096-0.084-0.072-0.36-0.132-0.48c-0.084-0.167-0.18-0.335-0.324-0.443c-0.18-0.144-0.492-0.264-0.719-0.264
		c-0.24,0.012-0.456,0.156-0.6,0.324c-0.288,0.348-0.456,0.828-0.36,1.271c0.072,0.372,0.372,0.636,0.635,0.912
		c0.54,0.563,1.235,1.055,1.787,1.619c0.456,0.444,0.899,1.02,1.032,1.631C31.613,21.189,31.602,21.489,31.542,21.801z"/>
	<path fill="#58585B" d="M34.027,23.6c-0.3,0-0.624,0.168-0.912,0.06c-0.216-0.084-0.156-0.324-0.18-0.504l-0.06-0.779
		c-0.06-0.984-0.036-1.979-0.048-2.962c0-0.72-0.012-1.439-0.024-2.147V16.08c0-0.288-0.012-0.563-0.024-0.852
		c-0.012-0.252-0.12-0.54-0.048-0.803c0.276-0.12,0.732-0.072,1.02,0c0.144,0.372,0.156,1.559,0.156,2.314
		c0,0.6,0.024,1.211,0.036,1.811c0.024,0.72,0.036,1.427,0.072,2.135c0.024,0.42,0.024,0.828,0.012,1.248
		C34.015,22.485,34.075,23.048,34.027,23.6z"/>
	<path fill="#58585B" d="M35.312,14.042c0.54-0.012,1.092,0,1.631,0c0.479,0.012,0.981-0.06,1.451,0.06
		c0.061,0.252,0.084,0.6,0.061,0.888c-0.301,0.132-0.756,0.096-1.176,0.12c-0.107,0.695,0.035,1.403-0.036,2.099
		s-0.022,1.391-0.06,2.087c-0.037,0.696-0.014,1.391-0.024,2.087c-0.013,0.755-0.013,1.523,0.036,2.279
		c-0.288,0.024-0.685,0.072-0.973,0.036c-0.061-0.611,0-1.235,0-1.847c-0.013-0.732-0.022-1.439,0.049-2.159
		c0.071-0.744,0.049-1.5,0.022-2.243c-0.022-0.408-0.048-0.815-0.084-1.211c-0.022-0.384,0.022-0.768-0.012-1.151
		c-0.253-0.036-0.601,0.012-0.852-0.024c-0.036-0.18-0.072-0.359-0.096-0.54c-0.012-0.168,0.024-0.336,0.024-0.503
		c0.012,0,0.024-0.012,0.024,0C35.312,14.018,35.312,14.042,35.312,14.042z"/>
	<path fill="#58585B" d="M42.93,22.772c0.229,0.108,0.12,0.731,0,0.899c-0.552-0.06-1.127-0.012-1.68,0
		c-0.299,0.012-1.175,0.132-1.367-0.168c-0.084-0.396-0.07-0.815-0.096-1.211c-0.012-0.36-0.048-0.72-0.035-1.08
		c0.012-0.432,0.012-0.852,0.012-1.283c0.012-1.02,0.012-2.027-0.022-3.046c-0.024-0.744-0.071-1.487-0.062-2.231
		c0.012-0.479,0.443-0.384,0.803-0.396c0.842-0.012,1.656-0.06,2.496,0c0.084,0.252,0.071,0.552,0.098,0.839
		c-0.387,0.12-0.77,0.06-1.164,0.06c-0.385,0.012-0.758,0.06-1.141,0.06c-0.07,0.348-0.022,0.731-0.013,1.067
		c0.013,0.492,0.024,0.971,0.048,1.451c0,0.156,0.012,0.3,0.012,0.456c-0.012,0.168-0.144,0.54,0.037,0.648
		c0.155,0.072,0.385-0.024,0.553,0c0.275,0.024,0.553,0.048,0.814,0.084c0.023,0.275,0,0.503-0.072,0.768
		c-0.118,0.036-0.238-0.024-0.348,0c-0.217,0.036-0.443,0.036-0.66,0.048c-0.072,0-0.371-0.024-0.396,0.06s-0.013,0.167-0.013,0.251
		c0.013,0.264,0.168,2.615,0.217,2.627C41.586,22.856,42.27,22.736,42.93,22.772z"/>
	<path fill="#58585B" d="M25.662,33.035c0.012,0.768,0,1.547-0.012,2.314c-0.024,0.6,0.12,1.619-0.372,2.075
		c-0.264,0.24-0.552,0.516-0.899,0.6c-0.384,0.098-0.804,0.121-1.188,0.024c-0.144-0.024-0.348-0.071-0.468-0.181
		c-0.132-0.107-0.276-0.145-0.408-0.252c-0.264-0.203-0.384-0.527-0.516-0.827c-0.264-0.647-0.3-1.295-0.348-1.979
		c-0.036-0.42-0.048-0.852-0.06-1.26c-0.012-0.372-0.036-0.744-0.024-1.104c0.024-0.803-0.084-1.643,0.228-2.411
		c0.168-0.396,0.432-0.743,0.756-1.019c0.372-0.324,0.899-0.432,1.391-0.444c0.492-0.012,0.912,0.252,1.235,0.6
		c0.144,0.168,0.324,0.288,0.42,0.492c0.12,0.252,0.168,0.54,0.24,0.815C25.746,31.32,25.649,32.184,25.662,33.035z M23.155,36.813
		c0.275,0.239,1.103,0.336,1.271-0.084c0.108-0.274,0.108-0.636,0.144-0.912c0.036-0.201,0.072-0.405,0.072-0.609
		c0-0.18,0.048-0.336,0.072-0.516c0.096-0.756,0.048-1.511,0.012-2.267c-0.024-0.695,0.132-1.463-0.168-2.123
		c-0.108-0.264-0.372-0.432-0.635-0.492c-0.384-0.084-0.66,0.048-0.948,0.276c-0.108,0.324-0.252,0.636-0.3,0.983
		c-0.072,0.408-0.072,0.815-0.096,1.235c-0.072,0.828-0.012,1.631,0.024,2.459C22.627,35.397,22.627,36.346,23.155,36.813z"/>
	<path fill="#58585B" d="M29.143,33.263c0.18,0,0.276,0.012,0.276,0.228c-0.012,0.24,0.048,0.54-0.072,0.78
		c-0.444,0.084-0.899,0.036-1.379,0.036c-0.036,1.056,0.084,2.519-0.072,3.707c-0.216,0.119-0.636,0.096-0.936,0.084
		c-0.108-0.301-0.036-0.66-0.036-0.982c-0.012-0.266,0-0.528-0.012-0.805c0-0.168-0.012-0.336-0.012-0.517
		c0.012-0.804,0.024-1.607,0.024-2.411l0.048-2.938c0-0.372,0.012-0.732,0.024-1.104c0-0.168-0.06-0.636,0.036-0.768
		c0.036-0.036,0.072-0.06,0.12-0.084l1.847-0.048c0.288,0,0.587-0.012,0.875,0c0.167,0.012,0.3-0.012,0.335,0.167
		c0.048,0.24,0.12,0.648-0.012,0.876c-0.048,0.072-0.456,0.024-0.528,0.024c-0.324,0-0.647,0-0.971-0.012
		c-0.18,0-0.42-0.036-0.6,0.012c-0.072,1.103-0.084,2.626-0.084,3.814C28.387,33.347,28.771,33.263,29.143,33.263z"/>
	<path fill="#58585B" d="M35.707,37.761c-0.012-0.012-0.023-0.012-0.048-0.012c-0.013-0.013,0.012-0.156,0.012-0.168
		c0-0.168-0.012-0.324-0.012-0.492c0.024-0.348,0.036-0.685,0.036-1.03c0.035-0.73,0.06-1.462,0.084-2.196
		c0.072-1.535,0.022-3.082-0.024-4.605c-0.324-0.012-0.671,0.024-0.971,0.036c-0.012-0.156,0.024-0.312,0.024-0.468
		c0-0.108-0.096-0.336,0.036-0.372c0.251-0.072,0.6-0.012,0.875-0.012c0.816,0,1.631,0,2.447-0.024
		c0.061,0.24,0.107,0.492,0.107,0.792c-0.146,0.12-0.396,0.084-0.576,0.084c-0.275-0.012-0.551,0-0.826,0
		c-0.145,0.288-0.084,0.671-0.072,0.983c0.012,0.384-0.012,0.768-0.012,1.151c-0.014,0.792-0.061,1.571-0.072,2.351
		c0,0.719-0.012,1.427,0,2.147c0.012,0.372,0.035,0.743,0.035,1.115c0,0.18-0.012,0.348,0,0.527
		c0.014,0.132,0.096,0.336,0.014,0.443h0.012c0.035-0.023-0.061,0.061-0.07,0.07c-0.072,0.049-0.252,0.014-0.336,0.014h-0.336
		c-0.108,0.012-0.204-0.035-0.313-0.035C35.707,38.036,35.611,37.749,35.707,37.761z"/>
	<path fill="#58585B" d="M42.75,30.888c0.035-0.384,0.048-0.768,0.072-1.151c0.012-0.18-0.072-0.852,0.144-0.875
		c0.407-0.048,0.888,0.072,0.876,0.552c0,0.276-0.013,0.564-0.023,0.852c-0.061,1.655-0.155,3.322-0.239,4.989
		c-0.05,0.925-0.062,1.847-0.12,2.771c-0.266,0.05-0.563,0.108-0.839,0.072c-0.204-0.539-0.12-1.199-0.108-1.764
		c0.014-0.646,0.024-1.295,0.051-1.931c-0.648,0.012-1.311-0.12-1.943-0.048l-0.072,2.135c-0.012,0.216-0.012,0.443-0.036,0.672
		c-0.012,0.132-0.024,0.804-0.167,0.863c-0.181,0.022-0.852,0.106-0.863-0.012c0.182-1.346,0.047-2.701,0.107-4.042
		c0.023-0.731,0.084-1.439,0.072-2.171c0-0.684,0.035-1.355,0.035-2.027c0-0.264-0.133-0.852,0.189-0.923
		c0.168-0.036,0.35-0.036,0.528-0.036c0.18,0.012,0.274,0.012,0.3,0.228c0.021,0.288-0.012,0.587-0.021,0.875l-0.024,1.151
		c-0.013,0.779-0.024,1.547,0,2.314c0.624,0.024,1.235,0.072,1.931,0.048C42.618,32.591,42.666,31.728,42.75,30.888z"/>
	<path fill="#58585B" d="M48.114,29.377c-0.612,0.012-1.247-0.096-1.847,0c-0.072,0.264-0.024,0.54-0.015,0.816
		c0.022,0.324,0.015,0.66,0.015,0.983c-0.015,0.624-0.037,1.247,0.033,1.871c0.443-0.024,0.854-0.168,1.346-0.132
		c0.131,0.144,0.168,0.996-0.049,1.056c-0.434,0.132-0.898,0.036-1.318,0.168c-0.063,0.947-0.049,1.907-0.012,2.65
		c0.357,0.12,0.852,0.072,1.232,0.084c0.204,0.012,0.814-0.096,0.876,0.168c0.062,0.216,0.036,0.479-0.013,0.684
		c-0.086,0.324-0.371,0.324-0.672,0.35c-0.443,0.048-0.889,0.012-1.344,0c-0.359,0-0.814,0.107-1.164-0.061
		c-0.189-0.373-0.06-0.898-0.06-1.32c0-0.37,0.013-0.742,0.013-1.113c0-1.02,0.012-2.051,0.012-3.083
		c0.014-0.84,0.014-1.691,0-2.531c-0.012-0.324-0.07-0.636-0.084-0.959c-0.012-0.24,0.014-0.528,0.287-0.612
		c0.324-0.108,0.744-0.048,1.08-0.06c0.719-0.036,1.438-0.108,2.146,0.024c0.132,0.192,0,0.647-0.072,0.875
		C48.449,29.413,48.27,29.377,48.114,29.377z"/>
	<path fill="#58585B" d="M28.781,52.448c-0.108-0.181-1.032-5.289-1.091-5.313c-0.12,0.145-0.3,1.439-0.384,1.799
		c-0.144,0.696-0.6,3.145-0.6,3.274c-0.012,0.132-0.084,0.19-0.228,0.228c-0.108,0.037-0.564,0.037-0.672,0
		c-0.216-0.084-1.223-4.09-1.403-4.929c-0.156-0.78-0.731-4.317-0.731-4.401c0.036-0.084,1.188,0,1.391,0.023
		c0.048,0.324,0.012,0.827,0.06,1.283c0.072,0.576,1.007,5.134,0.972,5.072c0.24-0.229,0.647-3.479,0.755-3.98
		c0.048-0.24,0.132-1.104,0.264-1.247c0.156-0.155,0.779-0.071,0.923,0.071c0.288,0.288,0.887,4.869,1.163,5.313
		c0.12-0.096,0.972-6.813,1.068-6.871c0.251,0.047,0.768-0.107,1.283,0.084c-0.024,0.013-1.631,9.379-1.679,9.449
		C29.741,52.544,28.997,52.544,28.781,52.448z"/>
	<path fill="#58585B" d="M35.814,43.775c-0.612,0.014-1.25-0.096-1.849,0c-0.072,0.265-0.024,0.541-0.012,0.814
		c0.024,0.324,0.012,0.66,0.012,0.983c-0.012,0.624-0.036,1.247,0.036,1.87c0.443-0.022,0.852-0.168,1.343-0.133
		c0.132,0.146,0.167,0.996-0.048,1.058c-0.432,0.132-0.899,0.034-1.319,0.168c-0.06,0.946-0.048,1.905-0.012,2.649
		c0.36,0.119,0.852,0.071,1.235,0.084c0.204,0.013,0.814-0.097,0.875,0.168c0.063,0.215,0.035,0.479-0.014,0.685
		c-0.084,0.323-0.371,0.323-0.67,0.349c-0.444,0.049-0.888,0.012-1.343,0c-0.36,0-0.815,0.107-1.164-0.061
		c-0.192-0.372-0.06-0.899-0.06-1.319c0-0.37,0.012-0.743,0.012-1.114c0-1.021,0.012-2.052,0.012-3.082
		c0.012-0.84,0.012-1.69,0-2.53c-0.012-0.324-0.072-0.636-0.084-0.96c-0.012-0.239,0.012-0.527,0.288-0.611
		c0.324-0.107,0.744-0.048,1.08-0.061c0.72-0.035,1.439-0.107,2.146,0.022c0.133,0.192,0,0.647-0.071,0.876
		C36.15,43.813,35.971,43.775,35.814,43.775z"/>
	<path fill="#58585B" d="M38.443,47.627c0.06,0,1.043,0.035,1.486,0.048c0.035,0.071,0.229,0.72,0.035,0.839
		c-0.527,0.098-0.994,0.014-1.486,0.049c-0.014,0.996,0,1.99,0.061,2.842c0.408,0.182,0.971,0.072,1.391,0.05
		c0.205-0.013,0.408-0.022,0.6,0c0.219,0.013,0.135,0.19,0.121,0.358c0,0.133,0.035,0.47-0.035,0.576
		c-0.071,0.096-0.371,0.084-0.491,0.096c-0.526,0.035-1.058,0.035-1.583,0.014c-0.266-0.014-0.563-0.014-0.805-0.146
		c-0.301-0.153-0.145-0.768-0.119-1.043c0.07-0.888,0.061-1.763,0-2.648c-0.061-0.912-0.035-1.835-0.014-2.747
		c0.014-0.791-0.061-1.619,0.014-2.397c0.049-0.553,0.96-0.265,1.308-0.265c0.386,0,0.779-0.036,1.163-0.062
		c0.168-0.013,0.35-0.022,0.525-0.022c0.063,0.106,0.109,0.062,0.099,0.204c-0.013,0.084-0.013,0.18-0.013,0.264
		c0.013,0.301-0.049,0.422-0.359,0.434l-0.636,0.022c-0.251,0-0.517,0.013-0.769,0.013c-0.121,0-0.313-0.023-0.42,0.022
		C38.551,45.229,38.432,46.523,38.443,47.627z"/>
	<path fill="#58585B" d="M43.268,46.141c0.071-0.121,1.979-2.556,2.051-2.832c0.023-0.084,0.119-0.189,0.168-0.264
		c0.072-0.096,0.266,0.036,0.322,0.072c0.183,0.084,0.612,0.084,0.492,0.372c-0.119,0.274-2.123,2.926-2.207,3.069
		c-0.06,0.106,0,0.202,0.049,0.313c0.098,0.252,2.269,5.121,2.158,5.443c-0.156,0.146-0.384,0.098-0.563,0.062
		c-0.217-0.048-0.54,0.036-0.624-0.216c-0.169-0.492-1.548-3.982-1.716-4.546c-0.131,0.108-0.229,0.252-0.323,0.396
		c-0.119,0.191-0.071,0.359-0.084,0.575c-0.023,0.442,0,0.876,0,1.319c0,0.84-0.013,1.679-0.071,2.519
		c-0.229,0.024-0.456,0.024-0.684,0.06c-0.072,0-0.133,0.015-0.192,0.024c-0.035-0.036-0.06-0.071-0.096-0.096
		c0-0.146-0.013-0.276-0.013-0.408c-0.013-0.526,0.061-1.03,0.084-1.56c0.022-0.491,0.145-6.896,0.19-7.243
		c0.013-0.097,0.022-0.229,0.133-0.252c0.181-0.036,0.396-0.024,0.563,0.036c0.168,0.154,0.154,0.42,0.154,0.623
		c-0.012,0.274-0.084,2.184-0.035,2.843C43.146,46.393,43.195,46.247,43.268,46.141z"/>
</g>
<path fill="#58585B" d="M34.819,65.018c-16.458,0-29.849-13.39-29.849-29.849S18.36,5.32,34.819,5.32
	c16.458,0,29.849,13.39,29.849,29.849S51.277,65.018,34.819,65.018z M34.819,6.07C18.774,6.07,5.72,19.124,5.72,35.169
	s13.054,29.099,29.099,29.099c16.045,0,29.099-13.054,29.099-29.099S50.864,6.07,34.819,6.07z"/>
<path fill="#58585B" d="M9.134,31.714l0.245,0.147c0.472,0.283,0.609,0.887,0.25,1.304L6.19,37.15
	c-0.36,0.418-0.698,0.646-1.168,0.359L4.88,37.426l-0.002-0.001c-0.131-0.075-0.258-0.19-0.375-0.327l-3.306-3.921
	c-0.352-0.416-0.291-1.101,0.102-1.486l0.204-0.2c0.392-0.386,1.011-0.369,1.325,0.083l2.538,3.653l2.305-3.242
	C7.985,31.541,8.663,31.43,9.134,31.714"/>
<path fill="#58585B" d="M60.912,32.951l-0.252,0.136c-0.484,0.261-0.651,0.856-0.313,1.29l3.244,4.146
	c0.34,0.434,0.666,0.678,1.15,0.416l0.146-0.08h0.002c0.135-0.069,0.268-0.178,0.391-0.312l3.49-3.758
	c0.369-0.399,0.342-1.085-0.033-1.489l-0.192-0.21c-0.373-0.404-0.991-0.418-1.327,0.019l-2.709,3.531l-2.148-3.351
	C62.066,32.834,61.396,32.69,60.912,32.951"/>
<path fill="#58585B" d="M9.114,38.465l0.274,0.079c0.529,0.151,0.818,0.699,0.579,1.194l-2.291,4.74
	c-0.239,0.494-0.507,0.804-1.036,0.648l-0.158-0.046H6.48c-0.146-0.04-0.298-0.116-0.447-0.222l-4.208-2.93
	c-0.447-0.311-0.565-0.988-0.286-1.461l0.145-0.246c0.279-0.476,0.881-0.619,1.301-0.265l3.397,2.872l1.388-3.729
	C7.959,38.596,8.585,38.313,9.114,38.465"/>
<path fill="#58585B" d="M60.609,39.695l-0.277,0.063c-0.536,0.127-0.852,0.66-0.637,1.166l2.063,4.847
	c0.217,0.506,0.469,0.826,1.003,0.699l0.16-0.039l0.002-0.002c0.149-0.031,0.306-0.103,0.458-0.197l4.346-2.727
	c0.461-0.29,0.609-0.959,0.354-1.445l-0.133-0.254c-0.256-0.486-0.85-0.658-1.286-0.324l-3.531,2.707l-1.208-3.791
	C61.757,39.882,61.146,39.568,60.609,39.695"/>
<path fill="#58585B" d="M10.841,44.99l0.286,0.006c0.55,0.01,0.971,0.462,0.869,1.003l-0.986,5.173
	c-0.103,0.54-0.282,0.906-0.832,0.896l-0.165-0.004H10.01c-0.151,0-0.318-0.035-0.489-0.099l-4.823-1.739
	c-0.512-0.186-0.801-0.809-0.654-1.338l0.076-0.275c0.147-0.529,0.691-0.824,1.188-0.59l4.025,1.895l0.375-3.959
	C9.76,45.416,10.291,44.98,10.841,44.99"/>
<path fill="#58585B" d="M58.572,46.132l-0.284-0.009c-0.552-0.018-0.993,0.416-0.916,0.961l0.737,5.213
	c0.076,0.545,0.238,0.92,0.789,0.936l0.164,0.004h0.002c0.15,0.009,0.318-0.021,0.494-0.071l4.898-1.508
	c0.521-0.16,0.839-0.771,0.718-1.308l-0.063-0.276c-0.12-0.537-0.648-0.858-1.157-0.647l-4.108,1.701l-0.188-3.975
	C59.633,46.607,59.123,46.146,58.572,46.132"/>
<path fill="#58585B" d="M14.198,50.846l0.277-0.068c0.534-0.131,1.058,0.197,1.098,0.746l0.387,5.25
	c0.04,0.551-0.038,0.949-0.572,1.08l-0.16,0.041h-0.002c-0.146,0.039-0.316,0.049-0.497,0.032L9.62,57.494
	c-0.543-0.046-0.983-0.573-0.979-1.123l0.002-0.285c0.005-0.552,0.454-0.977,0.995-0.879l4.378,0.789l-0.662-3.922
	C13.264,51.536,13.664,50.979,14.198,50.846"/>
<path fill="#58585B" d="M54.939,51.82l-0.273-0.082c-0.527-0.158-1.066,0.146-1.133,0.691l-0.637,5.227
	c-0.066,0.546-0.008,0.949,0.52,1.104l0.158,0.048l0.002,0.002c0.145,0.045,0.314,0.063,0.496,0.057l5.123-0.188
	c0.544-0.021,1.01-0.525,1.031-1.074l0.012-0.287c0.021-0.549-0.406-0.995-0.952-0.924l-4.411,0.578l0.85-3.888
	C55.84,52.555,55.467,51.979,54.939,51.82"/>
<path fill="#58585B" d="M18.957,55.635l0.25-0.139c0.482-0.268,1.073-0.084,1.254,0.436l1.732,4.973
	c0.181,0.52,0.209,0.928-0.272,1.191l-0.145,0.078l-0.002,0.001c-0.132,0.076-0.293,0.13-0.473,0.161l-5.047,0.904
	c-0.535,0.096-1.097-0.299-1.235-0.832l-0.071-0.275c-0.138-0.533,0.185-1.063,0.733-1.105l4.433-0.37l-1.655-3.617
	C18.233,56.543,18.475,55.9,18.957,55.635"/>
<path fill="#58585B" d="M49.958,56.375l-0.242-0.15c-0.469-0.289-1.067-0.135-1.274,0.375l-1.967,4.885
	c-0.205,0.511-0.254,0.914,0.215,1.203l0.143,0.086l0.002,0.002c0.128,0.082,0.286,0.144,0.464,0.184l4.998,1.146
	c0.53,0.121,1.108-0.246,1.272-0.771l0.084-0.271c0.164-0.524-0.133-1.066-0.68-1.142l-4.41-0.582l1.826-3.534
	C50.639,57.316,50.426,56.664,49.958,56.375"/>
<path fill="#58585B" d="M24.792,59.027l0.206-0.199c0.396-0.383,1.014-0.357,1.324,0.096l2.96,4.354
	c0.31,0.457,0.442,0.844,0.045,1.225l-0.119,0.114l-0.002,0.001c-0.107,0.105-0.25,0.199-0.415,0.275l-4.641,2.183
	c-0.493,0.229-1.138-0.007-1.409-0.484L22.6,66.342c-0.271-0.479-0.095-1.072,0.422-1.259l4.186-1.506l-2.535-3.065
	C24.328,60.092,24.396,59.408,24.792,59.027"/>
<path fill="#58585B" d="M43.967,59.484l-0.195-0.207c-0.377-0.4-0.996-0.407-1.326,0.031l-3.166,4.209
	c-0.329,0.438-0.479,0.816-0.104,1.217l0.113,0.121l0.002,0.002c0.104,0.11,0.24,0.211,0.4,0.297l4.531,2.397
	c0.479,0.255,1.137,0.052,1.43-0.415l0.152-0.242c0.295-0.465,0.146-1.064-0.361-1.275l-4.108-1.704l2.679-2.94
	C44.38,60.57,44.346,59.886,43.967,59.484"/>
<path fill="#58585B" d="M31.463,9.521l-0.079,0.274c-0.152,0.529-0.699,0.818-1.194,0.579l-4.741-2.291
	c-0.495-0.239-0.803-0.507-0.649-1.035l0.046-0.159l0.001-0.002c0.039-0.146,0.116-0.299,0.22-0.447l2.929-4.209
	c0.311-0.446,0.988-0.564,1.462-0.285l0.247,0.145c0.474,0.279,0.618,0.881,0.263,1.302l-2.872,3.396l3.728,1.388
	C31.333,8.365,31.616,8.991,31.463,9.521"/>
<path fill="#58585B" d="M39.669,9.717l0.065,0.277c0.127,0.536,0.658,0.851,1.164,0.636l4.846-2.063
	c0.506-0.215,0.826-0.468,0.697-1.003l-0.037-0.16V7.401c-0.032-0.148-0.104-0.304-0.198-0.457L43.48,2.601
	C43.189,2.14,42.52,1.99,42.034,2.247L41.781,2.38c-0.487,0.256-0.66,0.85-0.325,1.287l2.706,3.53l-3.789,1.208
	C39.854,8.569,39.542,9.181,39.669,9.717"/>
<path fill="#58585B" d="M24.938,11.248l-0.005,0.285c-0.01,0.55-0.463,0.972-1.004,0.868l-5.172-0.985
	c-0.54-0.104-0.907-0.282-0.896-0.832l0.004-0.165v-0.003c0-0.151,0.035-0.318,0.097-0.489l1.741-4.822
	c0.185-0.513,0.807-0.802,1.338-0.655l0.275,0.076c0.53,0.147,0.825,0.691,0.591,1.188l-1.895,4.025l3.959,0.375
	C24.513,10.166,24.948,10.697,24.938,11.248"/>
<path fill="#58585B" d="M46.104,11.754l-0.01,0.285c-0.016,0.55,0.417,0.992,0.963,0.915l5.213-0.737
	c0.545-0.077,0.92-0.238,0.936-0.789l0.005-0.164v-0.003c0.007-0.151-0.021-0.319-0.073-0.493l-1.508-4.9
	c-0.161-0.521-0.77-0.839-1.306-0.718l-0.278,0.063c-0.537,0.121-0.855,0.65-0.646,1.158l1.701,4.11l-3.975,0.187
	C46.581,10.693,46.12,11.203,46.104,11.754"/>
<path fill="#58585B" d="M19.082,14.604l0.069,0.277c0.132,0.534-0.196,1.058-0.745,1.099l-5.251,0.387
	c-0.548,0.04-0.949-0.038-1.081-0.572l-0.039-0.16l-0.001-0.002c-0.039-0.146-0.048-0.317-0.033-0.498l0.433-5.109
	c0.046-0.542,0.573-0.982,1.124-0.978l0.285,0.002c0.55,0.005,0.976,0.453,0.878,0.995l-0.789,4.378l3.923-0.662
	C18.392,13.671,18.949,14.071,19.082,14.604"/>
<path fill="#58585B" d="M51.793,15.387l-0.082,0.273c-0.158,0.527,0.146,1.066,0.691,1.133l5.227,0.637
	c0.546,0.067,0.95,0.008,1.105-0.52l0.049-0.158V16.75c0.047-0.145,0.063-0.314,0.057-0.495l-0.188-5.124
	c-0.021-0.544-0.524-1.01-1.075-1.031l-0.285-0.012c-0.55-0.021-0.996,0.407-0.925,0.952l0.578,4.411l-3.885-0.849
	C52.527,14.486,51.951,14.859,51.793,15.387"/>
<path fill="#58585B" d="M14.294,19.363l0.138,0.25c0.267,0.481,0.084,1.073-0.436,1.254L9.025,22.6
	c-0.52,0.181-0.927,0.21-1.192-0.272l-0.08-0.145V22.18c-0.076-0.131-0.129-0.293-0.161-0.472L6.688,16.66
	c-0.096-0.535,0.299-1.097,0.832-1.235l0.276-0.071c0.533-0.138,1.06,0.186,1.106,0.734l0.371,4.433l3.617-1.655
	C13.385,18.64,14.028,18.882,14.294,19.363"/>
<path fill="#58585B" d="M56.348,20.368L56.2,20.611c-0.29,0.469-0.138,1.067,0.374,1.273l4.884,1.968
	c0.511,0.206,0.915,0.254,1.203-0.215l0.087-0.142l0.001-0.001c0.082-0.128,0.144-0.287,0.185-0.464l1.145-4.999
	c0.121-0.53-0.245-1.11-0.771-1.273l-0.271-0.085c-0.525-0.163-1.068,0.135-1.142,0.68l-0.582,4.41l-3.533-1.825
	C57.29,19.688,56.637,19.9,56.348,20.368"/>
<path fill="#58585B" d="M10.901,25.199l0.198,0.205c0.382,0.396,0.359,1.015-0.096,1.324l-4.354,2.96
	c-0.455,0.31-0.841,0.442-1.222,0.045l-0.114-0.119l-0.001-0.002c-0.107-0.107-0.201-0.25-0.277-0.414l-2.18-4.641
	c-0.231-0.493,0.004-1.139,0.483-1.409l0.249-0.141c0.479-0.271,1.072-0.096,1.258,0.423l1.505,4.186l3.066-2.534
	C9.836,24.734,10.52,24.803,10.901,25.199"/>
<path fill="#58585B" d="M59.458,26.359l-0.208,0.195c-0.4,0.379-0.407,0.997,0.032,1.327l4.208,3.165
	c0.439,0.33,0.818,0.481,1.219,0.104l0.12-0.113l0.001-0.002c0.111-0.102,0.212-0.24,0.297-0.4l2.398-4.531
	c0.254-0.481,0.051-1.137-0.416-1.432l-0.24-0.151c-0.467-0.295-1.066-0.146-1.277,0.361l-1.703,4.109l-2.94-2.678
	C60.544,25.946,59.857,25.981,59.458,26.359"/>
<path fill="#58585B" d="M30.498,67.846l0.124,0.256c0.24,0.496,0.827,0.689,1.275,0.369l4.287-3.059
	c0.446-0.319,0.705-0.637,0.465-1.13l-0.071-0.148v-0.002c-0.063-0.139-0.166-0.274-0.293-0.403l-3.598-3.652
	c-0.382-0.389-1.069-0.391-1.49-0.034l-0.218,0.185c-0.421,0.355-0.461,0.974-0.04,1.326l3.405,2.863l-3.439,1.997
	C30.431,66.686,30.258,67.35,30.498,67.846"/>
<path fill="#58585B" d="M33.375,9.511l0.139,0.249c0.268,0.481,0.865,0.64,1.294,0.295l4.104-3.299
	c0.43-0.345,0.669-0.675,0.4-1.155l-0.08-0.145L39.23,5.454c-0.071-0.134-0.183-0.265-0.315-0.386l-3.801-3.441
	c-0.403-0.365-1.089-0.328-1.489,0.051l-0.207,0.196c-0.399,0.379-0.404,0.998,0.037,1.327l3.563,2.663l-3.318,2.191
	C33.242,8.355,33.107,9.029,33.375,9.511"/>
</svg>
