<?xml version="1.0" encoding="utf-8"?>
<!-- Generator: Adobe Illustrator 16.0.0, SVG Export Plug-In . SVG Version: 6.00 Build 0)  -->
<!DOCTYPE svg PUBLIC "-//W3C//DTD SVG 1.1//EN" "http://www.w3.org/Graphics/SVG/1.1/DTD/svg11.dtd">
<svg version="1.1" id="Layer_1" xmlns="http://www.w3.org/2000/svg" xmlns:xlink="http://www.w3.org/1999/xlink" x="0px" y="0px"
	 width="92.25px" height="68px" viewBox="0 0 92.25 68" enable-background="new 0 0 92.25 68" xml:space="preserve">
<g>
	<g>
		<path fill="#58585B" d="M28.765,39.063c0,0.125,0,0.25,0,0.377c-0.104,0.004-0.221,0.041-0.312,0.008
			c-0.21-0.079-0.401-0.217-0.615-0.282c-0.413-0.129-0.584,0.043-0.459,0.453c0.188,0.618,0.284,1.25,0.257,1.899
			c-0.068,1.664-0.988,2.832-2.595,3.279c-0.257,0.072-0.517,0.137-0.776,0.201c-0.063,0-0.125,0-0.187,0
			c-0.163-0.178-0.083-0.307,0.075-0.434c0.353-0.285,0.57-0.658,0.691-1.09c0.268-0.964,0.119-1.884-0.349-2.742
			c-0.292-0.539-0.664-1.031-0.979-1.558c-0.246-0.407-0.519-0.813-0.682-1.254c-0.32-0.866,0.014-1.694,0.803-2.172
			c0.078-0.047,0.152-0.095,0.256-0.162c-0.494-0.549-0.972-1.082-1.467-1.631c-1.433,1.187-3.039,2.006-4.845,2.614
			c0.364,0.19,0.642,0.328,0.909,0.481c1.259,0.726,1.761,1.941,1.449,3.419c-0.443,2.12-2.75,4.366-5.986,3.983
			c-1.378-0.164-2.672-0.604-3.917-1.19c-1.016-0.478-2.007-1.005-3.013-1.503c-0.592-0.293-1.211-0.45-1.884-0.481
			c-0.853-0.037-1.651-0.313-2.354-0.814c-0.542-0.389-0.924-0.895-1.089-1.549c-0.035-0.143-0.074-0.279-0.111-0.416
			c0-0.168,0-0.334,0-0.5c0.027-0.102,0.058-0.199,0.081-0.299c0.167-0.734,0.555-1.297,1.264-1.598
			c0.592-0.25,1.262-0.121,1.676,0.307c0.227,0.23,0.226,0.314-0.045,0.506c-0.663,0.469-0.93,1.127-0.92,1.912
			c0.011,1,0.993,1.746,1.964,1.51c0.683-0.168,1.086-0.633,1.303-1.27c0.313-0.91,0.404-1.861,0.448-2.82
			c0.048-1.049,0.067-2.103,0.194-3.142c0.157-1.272,0.677-2.391,1.811-3.102c1.432-0.898,2.98-0.979,4.563-0.503
			c2.65,0.798,3.977,3.28,2.829,5.831c-0.02,0.043-0.022,0.096-0.045,0.205c1.942-0.305,3.592-1.136,5.136-2.326
			c-0.197-0.22-0.377-0.392-0.521-0.59c-0.37-0.501-0.752-0.995-1.077-1.524c-0.351-0.572-0.466-1.215-0.401-1.89
			c0.074-0.779,0.586-1.417,1.34-1.63c1.201-0.342,2.365,0.365,2.748,1.669c0.027,0.095,0.061,0.187,0.09,0.279
			c0.113-0.111,0.164-0.221,0.184-0.337c0.133-0.8,0.134-1.6-0.121-2.377c-0.346-1.055-0.979-1.86-2.102-2.159
			c-0.441-0.118-0.889-0.083-1.24,0.291c-0.063,0.065-0.157,0.101-0.237,0.149c-0.034-0.111-0.116-0.235-0.091-0.331
			c0.039-0.141,0.15-0.265,0.238-0.392c0.058-0.083,0.166-0.153,0.183-0.242c0.111-0.609,0.464-0.979,1.06-1.126
			c0.125,0,0.25,0,0.375,0c0.293,0.103,0.601,0.175,0.873,0.314c1.051,0.536,1.713,1.419,2.045,2.522
			c0.72,2.382,0.227,4.558-1.233,6.534c-0.282,0.383-0.619,0.725-0.972,1.135c0.685,0.662,1.369,1.328,2.062,1.984
			c0.06,0.057,0.168,0.068,0.256,0.088c1.685,0.385,2.851,1.342,3.354,3.031C28.691,38.762,28.726,38.914,28.765,39.063z
			 M22.392,32.69c0.246-0.309,0.502-0.606,0.731-0.923c0.251-0.346,0.474-0.703,0.407-1.172c-0.086-0.61-0.155-1.224-0.57-1.72
			c-0.277-0.332-0.632-0.506-1.076-0.417c-0.441,0.089-0.656,0.402-0.767,0.812C20.826,30.355,21.408,31.774,22.392,32.69z"/>
	</g>
	<g>
		<path fill="#58585B" d="M39.331,39.844c-0.376,0.182-1.129,0.439-2.106,0.439c-1.883,0-2.802-1.266-2.802-2.816
			c0-2.482,1.837-4.772,4.458-4.772c0.678,0,1.294,0.196,1.521,0.316l-0.361,0.994c-0.286-0.136-0.691-0.271-1.234-0.271
			c-1.896,0-3.086,1.868-3.086,3.584c0,1.175,0.617,1.939,1.805,1.939c0.738,0,1.312-0.225,1.688-0.404L39.331,39.844z"/>
		<path fill="#58585B" d="M40.792,38.865c0.347,0.211,0.979,0.453,1.565,0.453c0.843,0,1.386-0.543,1.386-1.191
			c0-0.57-0.255-0.918-1.009-1.34c-0.844-0.467-1.311-1.113-1.311-1.852c0-1.279,1.1-2.26,2.635-2.26
			c0.664,0,1.25,0.181,1.521,0.361l-0.347,0.948c-0.254-0.15-0.723-0.331-1.264-0.331c-0.754,0-1.295,0.467-1.295,1.1
			c0,0.525,0.346,0.857,0.994,1.219c0.813,0.467,1.37,1.101,1.37,1.914c0,1.535-1.25,2.395-2.786,2.395
			c-0.783,0-1.477-0.241-1.807-0.497L40.792,38.865z"/>
		<path fill="#58585B" d="M46.409,38.865c0.347,0.211,0.98,0.453,1.566,0.453c0.844,0,1.387-0.543,1.387-1.191
			c0-0.57-0.258-0.918-1.01-1.34c-0.846-0.467-1.311-1.113-1.311-1.852c0-1.279,1.1-2.26,2.633-2.26c0.664,0,1.25,0.181,1.521,0.361
			l-0.346,0.95c-0.26-0.15-0.727-0.332-1.268-0.332c-0.754,0-1.295,0.467-1.295,1.101c0,0.525,0.346,0.855,0.992,1.219
			c0.814,0.467,1.371,1.101,1.371,1.912c0,1.537-1.25,2.396-2.785,2.396c-0.783,0-1.477-0.24-1.807-0.496L46.409,38.865z"/>
		<path fill="#58585B" d="M57.928,29.441l-0.963,4.728h0.031c0.646-0.979,1.58-1.491,2.559-1.491c1.598,0,2.199,1.325,2.199,2.621
			c0,2.229-1.611,4.998-4.531,4.998c-1.279,0-2.244-0.525-2.244-1.881c0-0.346,0.061-0.783,0.121-1.131l1.58-7.844H57.928z
			 M56.348,37.314c-0.061,0.24-0.105,0.543-0.09,0.918c0,0.692,0.391,1.086,1.174,1.086c1.883,0,3.025-2.242,3.025-3.854
			c0-0.903-0.391-1.747-1.385-1.747c-1.086,0-2.199,1.114-2.561,2.831L56.348,37.314z"/>
		<path fill="#58585B" d="M67.445,40.131c0-0.438,0.074-1.129,0.164-1.881H67.58c-0.797,1.504-1.791,2.047-2.83,2.047
			c-1.281,0-2.092-1.023-2.092-2.408c0-2.529,1.867-5.209,5.043-5.209c0.691,0,1.459,0.121,1.957,0.287l-0.738,3.792
			c-0.24,1.268-0.346,2.563-0.316,3.373H67.445L67.445,40.131z M68.258,33.777c-0.18-0.046-0.451-0.105-0.873-0.105
			c-1.883,0-3.418,1.973-3.434,3.99c0,0.813,0.287,1.609,1.25,1.609c1.039,0,2.273-1.354,2.635-3.297L68.258,33.777z"/>
		<path fill="#58585B" d="M70.531,38.865c0.348,0.211,0.98,0.453,1.566,0.453c0.844,0,1.387-0.543,1.387-1.191
			c0-0.57-0.256-0.918-1.01-1.34c-0.848-0.467-1.314-1.113-1.314-1.852c0-1.279,1.104-2.26,2.635-2.26
			c0.662,0,1.25,0.181,1.521,0.361l-0.346,0.948c-0.256-0.15-0.723-0.331-1.266-0.331c-0.752,0-1.295,0.467-1.295,1.1
			c0,0.525,0.348,0.857,0.994,1.219c0.813,0.467,1.371,1.101,1.371,1.914c0,1.535-1.25,2.395-2.785,2.395
			c-0.783,0-1.477-0.241-1.809-0.497L70.531,38.865z"/>
		<path fill="#58585B" d="M81.344,39.711c-0.543,0.313-1.43,0.57-2.408,0.57c-1.928,0-2.771-1.313-2.771-2.922
			c0-2.197,1.625-4.683,3.979-4.683c1.387,0,2.139,0.828,2.139,1.868c0,1.91-2.154,2.422-4.85,2.379
			c-0.063,0.315-0.02,0.994,0.146,1.387c0.285,0.646,0.873,0.979,1.627,0.979c0.859,0,1.506-0.271,1.957-0.514L81.344,39.711z
			 M79.959,33.656c-1.191,0-2.078,1.158-2.381,2.305c1.957,0.016,3.494-0.242,3.494-1.371
			C81.072,33.988,80.621,33.656,79.959,33.656z"/>
		<path fill="#58585B" d="M90.664,29.441l-1.596,8.387c-0.15,0.752-0.271,1.596-0.316,2.303h-1.145l0.191-1.445h-0.025
			c-0.662,1.039-1.582,1.611-2.621,1.611c-1.414,0-2.182-1.158-2.182-2.648c0-2.592,1.926-4.97,4.502-4.97
			c0.467,0,0.979,0.106,1.295,0.256l0.645-3.492L90.664,29.441L90.664,29.441z M88.57,33.988c-0.256-0.165-0.678-0.301-1.205-0.301
			c-1.746,0-3.102,1.852-3.102,3.793c0,0.873,0.303,1.791,1.367,1.791c0.967,0,2.123-1.099,2.439-2.738L88.57,33.988z"/>
	</g>
</g>
</svg>
