<?xml version="1.0" encoding="utf-8"?>
<!-- Generator: Adobe Illustrator 16.0.0, SVG Export Plug-In . SVG Version: 6.00 Build 0)  -->
<!DOCTYPE svg PUBLIC "-//W3C//DTD SVG 1.1//EN" "http://www.w3.org/Graphics/SVG/1.1/DTD/svg11.dtd">
<svg version="1.1" id="Layer_1" xmlns="http://www.w3.org/2000/svg" xmlns:xlink="http://www.w3.org/1999/xlink" x="0px" y="0px"
	 width="83.5px" height="68px" viewBox="33 0 83.5 68" enable-background="new 33 0 83.5 68" xml:space="preserve">
<g>
	<path fill="#58585B" d="M73.309,39.337c-0.628,1.259-1.208,2.46-1.825,3.646c-0.911,1.742-2.359,2.763-4.311,2.965
		c-2.527,0.263-4.517-1.242-5.376-2.991c-0.678-1.379-1.383-2.746-2.076-4.119c-0.053-0.104-0.107-0.206-0.122-0.233
		c-0.759,0.232-1.478,0.463-2.202,0.676c-0.144,0.044-0.304,0.043-0.457,0.043c-1.629,0.004-3.258,0.003-4.937,0.003
		c0,0.438-0.011,0.862,0.001,1.286c0.074,2.559-1.949,4.906-4.556,5.298c-3.177,0.478-5.734-1.823-6.138-4.435
		c-0.106-0.688-0.082-1.396-0.121-2.148c-0.377,0-0.777-0.008-1.176,0.002c-1.187,0.023-2.263-0.313-3.212-1.016
		c-1.427-1.056-2.179-2.472-2.222-4.255c-0.036-1.522,0.516-2.812,1.564-3.883c0.907-0.927,2.049-1.383,3.334-1.483
		c0.588-0.045,1.178-0.072,1.815-0.11c0-0.418,0.007-0.854-0.001-1.29c-0.029-1.438,0.516-2.669,1.496-3.667
		c1.05-1.068,2.329-1.669,3.894-1.657c4.474,0.032,8.949,0.023,13.422,0.003c1.177-0.005,2.166,0.435,3.088,1.096
		c0.752,0.54,1.269,1.27,1.677,2.09c0.537,1.078,1.083,2.151,1.625,3.227c0.04,0.079,0.081,0.157,0.15,0.291
		c0.089-0.167,0.152-0.285,0.214-0.405c0.665-1.284,1.266-2.605,2.01-3.841c0.859-1.428,2.2-2.257,3.857-2.435
		c1.854-0.199,3.481,0.419,4.646,1.87c0.672,0.839,1.103,1.876,1.619,2.836c0.34,0.626,0.645,1.272,0.985,1.952
		c0.063-0.095,0.116-0.162,0.155-0.236c0.498-0.991,0.979-1.99,1.496-2.973c0.267-0.502,0.586-0.967,0.933-1.43
		c0.748-1.011,1.735-1.555,2.875-1.912c0.276-0.086,0.58-0.117,0.871-0.117c5.758-0.007,11.516-0.001,17.274-0.009
		c0.836-0.001,1.582,0.253,2.299,0.651c1.199,0.668,2.05,1.646,2.517,2.929c0.166,0.453,0.242,0.948,0.287,1.431
		c0.047,0.527,0.012,1.064,0.012,1.597c0.649,0.037,1.272,0.047,1.892,0.112c1.406,0.148,2.613,0.695,3.549,1.8
		c0.697,0.824,1.132,1.768,1.25,2.824c0.164,1.448-0.19,2.788-1.102,3.952c-0.929,1.186-2.164,1.84-3.64,2.041
		c-0.422,0.058-0.856,0.015-1.285,0.015c-0.188,0.001-0.373,0-0.596,0c0,0.436,0.006,0.837-0.003,1.237
		c-0.034,2.619-1.774,4.758-4.321,5.309c-0.494,0.105-1.008,0.15-1.515,0.152c-4.223,0.015-8.446,0.045-12.672-0.004
		c-2.293-0.026-4.082-1.015-5.127-3.146c-0.024-0.053-0.056-0.104-0.086-0.152c-0.004-0.009-0.015-0.012-0.019-0.015
		c-0.254,0.396-0.479,0.808-0.767,1.177c-0.94,1.229-2.205,1.926-3.733,2.071c-2.563,0.248-4.524-1.263-5.376-2.988
		c-0.542-1.097-1.099-2.188-1.65-3.284C73.447,39.583,73.395,39.493,73.309,39.337z M48.298,28.914c3.576,0,7.119,0,10.667,0
		c0.024,0.091,0.033,0.187,0.074,0.266c0.795,1.577,1.595,3.151,2.39,4.729c1.241,2.461,2.477,4.926,3.718,7.388
		c0.316,0.625,0.822,0.957,1.533,0.95c0.699-0.008,1.172-0.365,1.48-0.972c0.139-0.271,0.275-0.545,0.413-0.819
		c1.578-3.136,3.156-6.267,4.746-9.424c0.047,0.079,0.086,0.136,0.117,0.196c0.521,1.035,1.039,2.07,1.559,3.106
		c1.164,2.318,2.325,4.641,3.496,6.958c0.327,0.649,0.862,0.987,1.604,0.952c0.68-0.034,1.135-0.404,1.432-0.995
		c1.965-3.909,3.928-7.815,5.893-11.727c0.096-0.192,0.184-0.389,0.285-0.604c4.627,0,9.297,0,13.961,0c0,1.147,0,2.269,0,3.401
		c-0.172,0-0.313,0-0.457,0c-3.723,0-7.447,0-11.172,0c-0.949,0-1.688,0.717-1.689,1.663c-0.008,2.202-0.008,4.403-0.002,6.604
		c0.004,0.938,0.732,1.658,1.66,1.658c4.414,0,8.83-0.016,13.244,0.014c0.916,0.01,1.787-0.736,1.752-1.755
		c-0.051-1.498-0.016-2.998-0.016-4.497c0-0.126,0.012-0.252,0.018-0.402c0.168,0,0.299,0,0.428,0c1.535,0,3.07,0.002,4.605,0
		c0.91,0,1.65-0.733,1.656-1.63c0.004-0.912-0.742-1.651-1.67-1.652c-1.547-0.001-3.094,0-4.643-0.001
		c-0.125,0-0.25-0.01-0.396-0.018c0-0.171-0.002-0.301,0-0.43c0.021-1.519,0.045-3.038,0.063-4.557
		c0.005-0.125-0.024-0.254-0.057-0.376c-0.216-0.872-0.918-1.326-1.869-1.327c-5.401-0.006-10.806-0.002-16.207-0.002
		c-0.853,0-1.481,0.353-1.854,1.139c-0.451,0.949-0.908,1.896-1.379,2.835c-1.146,2.291-2.302,4.577-3.453,6.865
		c-0.065,0.131-0.142,0.256-0.231,0.421c-0.07-0.128-0.11-0.195-0.146-0.267c-1.285-2.594-2.567-5.188-3.856-7.779
		c-0.369-0.743-0.776-1.468-1.135-2.216c-0.315-0.654-0.86-0.973-1.53-0.981c-0.685-0.009-1.229,0.358-1.544,0.988
		c-0.496,0.992-0.969,1.997-1.464,2.989c-1.15,2.307-2.31,4.61-3.467,6.914c-0.054,0.107-0.123,0.211-0.207,0.352
		c-0.07-0.126-0.111-0.194-0.147-0.266c-1.644-3.291-3.297-6.577-4.923-9.877c-0.386-0.784-1-1.112-1.822-1.113
		c-4.177-0.007-8.354-0.004-12.53,0c-0.293,0-0.587,0.03-0.876,0.07c-0.801,0.115-1.418,0.826-1.408,1.632
		c0.014,1.258,0.045,2.515,0.064,3.771c0.007,0.4,0.001,0.801,0.001,1.234c-0.178,0-0.306,0-0.435,0c-1.535,0-3.07,0-4.606,0
		c-0.928,0.001-1.674,0.741-1.668,1.653c0.005,0.899,0.745,1.628,1.656,1.63c1.547,0,3.094,0,4.641,0
		c0.125,0,0.251,0.013,0.407,0.019c0,0.166,0,0.294,0,0.424c-0.003,1.463-0.009,2.929-0.006,4.392
		c0.001,0.224,0.007,0.457,0.072,0.666c0.248,0.806,1.022,1.271,1.854,1.141c0.771-0.121,1.37-0.844,1.371-1.662
		c0.001-1.521,0-3.048,0-4.568c0-0.129,0-0.256,0-0.406c0.171,0,0.299,0,0.427,0c2.643,0,5.284,0,7.925,0
		c0.91,0,1.642-0.729,1.644-1.626c0.001-0.926-0.724-1.656-1.647-1.657c-2.642,0-5.283,0-7.925,0c-0.136,0-0.273,0-0.415,0
		C48.298,31.163,48.298,30.059,48.298,28.914z"/>
	<path fill="#58585B" d="M91.725,35.622c3.324,0,6.625,0,9.947,0c0,1.104,0,2.19,0,3.312c-3.301,0-6.609,0-9.947,0
		C91.725,37.85,91.725,36.751,91.725,35.622z"/>
</g>
</svg>
