<?xml version="1.0" encoding="utf-8"?>
<!-- Generator: Adobe Illustrator 16.0.0, SVG Export Plug-In . SVG Version: 6.00 Build 0)  -->
<!DOCTYPE svg PUBLIC "-//W3C//DTD SVG 1.1//EN" "http://www.w3.org/Graphics/SVG/1.1/DTD/svg11.dtd">
<svg version="1.1" id="Layer_1" xmlns="http://www.w3.org/2000/svg" xmlns:xlink="http://www.w3.org/1999/xlink" x="0px" y="0px"
	 width="109.621px" height="68px" viewBox="0 0 109.621 68" enable-background="new 0 0 109.621 68" xml:space="preserve">
<g>
	<path fill="#58585B" d="M89.259,21.443c0,2.676,0,5.352,0,8.292c0.831-0.608,1.37-1.062,1.967-1.428
		c2.767-1.706,5.451-0.485,5.774,2.738c0.205,2.027-0.017,4.094,0.151,6.126c0.097,1.181,0.583,2.328,0.933,3.627
		c-1.277,0-3.019,0-4.281,0c0.3-1.435,0.717-2.817,0.847-4.229c0.138-1.488,0.078-3.011-0.042-4.507
		c-0.111-1.403-0.604-2.634-2.352-2.635c-1.315,0-2.889,1.333-2.95,2.702c-0.103,2.161-0.127,4.337,0.028,6.493
		c0.052,0.699,0.771,1.354,1.283,2.18c-1.729,0-3.479,0-5.861,0c2.439-1.113,2.023-2.871,2.029-4.486
		c0.012-3.251-0.059-6.501,0.025-9.749c0.051-2.001,0.055-3.899-1.895-5.124C86.367,21.443,87.813,21.443,89.259,21.443z"/>
	<path fill="#58585B" d="M84.209,28.125c0.438,2.086-1.357,0.94-2.125,1.478c0.031,0.134,0.063,0.339,0.133,0.533
		c1.27,3.634-0.445,6.273-4.264,6.51c-0.715,0.043-1.482-0.209-2.146-0.027c-0.517,0.142-1.207,0.709-1.261,1.152
		c-0.049,0.396,0.623,1.22,1.055,1.275c1.361,0.184,2.758,0.098,4.145,0.113c2.471,0.029,3.824,0.898,4.129,2.65
		c0.354,2.031-0.732,4.028-3.024,4.428c-2.25,0.393-4.687,0.453-6.915,0.022c-2.732-0.521-2.887-2.892-0.546-5.247
		c-1.333-2.047-1.261-2.518,0.722-4.926c-0.479-0.775-1.105-1.479-1.385-2.301c-1.125-3.333,1.021-6.22,4.634-6.168
		C79.625,27.651,81.887,27.943,84.209,28.125z M80.143,32.284c0.036-2.181-1.004-3.589-2.648-3.586
		c-1.584,0.002-2.547,1.23-2.56,3.256c-0.015,2.208,0.999,3.575,2.659,3.591C79.149,35.56,80.109,34.331,80.143,32.284z
		 M77.623,45.813c0.912-0.193,1.838-0.142,2.381-0.568c0.705-0.557,1.48-1.465,1.552-2.277c0.108-1.258-1.103-1.54-2.175-1.574
		c-1.199-0.039-2.446-0.199-3.584,0.067c-0.695,0.163-1.562,0.946-1.729,1.608c-0.149,0.58,0.378,1.654,0.933,2.023
		C75.742,45.588,76.793,45.612,77.623,45.813z"/>
	<path fill="#58585B" d="M26.72,26.908c-0.638-0.585-1.25-0.896-1.453-1.378c-0.706-1.679-1.94-2.611-3.659-2.178
		c-0.94,0.237-2.074,1.093-2.433,1.956c-0.661,1.583,0.019,3.093,1.494,4.052c1.258,0.818,2.625,1.467,3.885,2.283
		c2.373,1.537,3.198,3.647,2.515,6.191c-0.554,2.063-2.24,3.283-4.938,3.498c-0.836,0.065-1.689,0.058-2.523-0.029
		c-3.482-0.353-3.609-0.53-3.142-4.663c0.653,0.584,1.256,0.877,1.446,1.34c0.74,1.789,2.102,2.373,3.892,2.266
		c1.397-0.085,2.419-0.723,2.774-2.145c0.451-1.813,0.047-3.365-1.598-4.408c-1.268-0.803-2.618-1.479-3.876-2.294
		c-2.259-1.465-3.045-3.217-2.502-5.483c0.557-2.323,2.297-3.274,4.45-3.628c0.882-0.145,1.803-0.163,2.696-0.098
		C27.02,22.424,27.396,22.966,26.72,26.908z"/>
	<path fill="#58585B" d="M30.226,36.61c0.651,0.608,1.242,0.916,1.439,1.391c0.749,1.787,2.123,2.355,3.908,2.24
		c1.398-0.092,2.408-0.742,2.756-2.166c0.42-1.734,0.08-3.268-1.479-4.292c-1.304-0.857-2.701-1.57-4.025-2.396
		c-1.966-1.226-2.978-2.932-2.511-5.321c0.395-2.015,1.823-3.416,4.333-3.71c1.64-0.193,3.345,0.032,4.999,0.231
		c0.393,0.048,0.917,0.705,1.01,1.158c0.165,0.803,0.047,1.664,0.047,3.203c-0.826-0.68-1.482-0.964-1.697-1.445
		c-0.7-1.571-1.789-2.37-3.518-2.229c-1.314,0.106-2.331,0.654-2.649,2.027c-0.395,1.702,0.121,3.122,1.596,4.077
		c1.259,0.815,2.627,1.464,3.885,2.281c2.36,1.532,3.182,3.665,2.487,6.203c-0.562,2.051-2.263,3.27-4.958,3.475
		c-0.836,0.063-1.689,0.05-2.523-0.036C29.876,40.942,29.713,40.711,30.226,36.61z"/>
	<path fill="#58585B" d="M12.896,26.719c-0.417-0.407-0.977-0.743-1.224-1.235c-0.644-1.286-1.522-2.144-3.018-2.213
		c-1.61-0.076-2.899,0.651-3.559,2.02c-2.076,4.307-2.022,8.715-0.098,13.059c0.607,1.371,1.875,1.957,3.41,1.901
		c1.581-0.053,2.511-0.917,3.159-2.28c0.27-0.568,0.765-1.029,1.245-1.654c0.35,0.479,0.471,0.566,0.476,0.66
		c0.175,4.729,0.604,3.75-3.534,4.31c-5.432,0.735-8.364-1.692-8.751-7.199c-0.149-2.123-0.057-4.373,0.49-6.413
		c1.256-4.692,6.8-7.081,11.209-5.045c0.296,0.136,0.588,0.597,0.618,0.932c0.083,0.942,0.029,1.896,0.029,2.846
		C13.199,26.511,13.047,26.617,12.896,26.719z"/>
	<path fill="#58585B" d="M49.832,40.841c1.728-1.097,1.447-2.73,1.451-4.258c0.006-3.313,0.006-6.625,0-9.938
		c-0.006-2.345-0.013-2.345-1.679-3.929c2.011,0,3.827,0,5.644,0c-1.734,1.059-1.375,2.709-1.379,4.227
		c-0.008,4.21-0.002,8.421-0.002,12.911c1.506,0,2.936,0.125,4.332-0.03c1.729-0.19,1.897-1.757,2.373-3.05
		c0.189-0.518,0.688-0.92,1.045-1.375c0.112,0.103,0.223,0.207,0.336,0.313c0,1.721,0,3.438,0,5.132
		C57.785,40.841,53.81,40.841,49.832,40.841z"/>
	<path fill="#58585B" d="M101.922,29.52c-0.813-0.104-1.377-0.177-1.941-0.249c1.959-0.912,2.072-2.705,2.346-4.475
		c0.609,0,1.18,0,1.805,0c0.084,1.035,0.164,1.982,0.262,3.158c0.947,0,1.841-0.081,2.71,0.03c0.537,0.069,1.037,0.429,1.554,0.66
		c-0.543,0.262-1.063,0.662-1.636,0.755c-0.806,0.13-1.647,0.033-2.556,0.033c0,2.901-0.112,5.595,0.045,8.271
		c0.09,1.571,1.279,2.094,2.919,1.646c0.394-0.107,0.834-0.046,1.254-0.06c-0.237,0.411-0.378,0.95-0.729,1.209
		c-1.291,0.952-2.746,1.25-4.24,0.524c-1.432-0.696-1.766-2.053-1.78-3.496C101.902,34.887,101.922,32.247,101.922,29.52z"/>
	<path fill="#58585B" d="M69.646,40.837c-1.642,0-3.312,0-5.131,0c2.317-2.709,2.146-10.902-0.408-12.672c1.517,0,2.742,0,4.011,0
		C69.229,32.187,66.998,36.746,69.646,40.837z"/>
	<path fill="#58585B" d="M68.513,25.002c-0.896,0-1.584,0-2.414,0c0-0.767,0-1.499,0-2.353c0.711,0,1.44,0,2.293,0
		C68.43,23.384,68.463,24.083,68.513,25.002z"/>
</g>
</svg>
