<?xml version="1.0" encoding="utf-8"?>
<!-- Generator: Adobe Illustrator 16.0.0, SVG Export Plug-In . SVG Version: 6.00 Build 0)  -->
<!DOCTYPE svg PUBLIC "-//W3C//DTD SVG 1.1//EN" "http://www.w3.org/Graphics/SVG/1.1/DTD/svg11.dtd">
<svg version="1.1" id="Layer_1" xmlns="http://www.w3.org/2000/svg" xmlns:xlink="http://www.w3.org/1999/xlink" x="0px" y="0px"
	 width="68px" height="68px" viewBox="0 0 68 68" enable-background="new 0 0 68 68" xml:space="preserve">
<g>
	<g>
		<path fill="#58585B" d="M26.559,62.708c0.241,0.155-0.771,1.74-3.377,2.021c-1.918,0.207-4.715-0.082-5.813-1.229
			c-0.147-0.154,1.185-1.343,3.639-1.471C22.814,61.936,25.342,61.932,26.559,62.708"/>
		<path fill="#58585B" d="M26.645,62.416c-1.392,0-3.355-1.629-4.312-3.073c-1.237-1.878-0.793-3.544-0.399-3.577
			c0.217-0.021,2.125,1.323,3.485,3.104C26.775,60.648,26.927,62.415,26.645,62.416"/>
		<path fill="#58585B" d="M20.477,60.253c0.176,0.174-1.066,1.497-3.442,1.343c-1.667-0.104-4.243-0.809-4.974-2.053
			c-0.102-0.173,1.363-1.072,3.6-0.803C17.309,58.943,19.57,59.37,20.477,60.253"/>
		<path fill="#58585B" d="M20.618,59.994c-1.211-0.242-2.632-2.046-3.196-3.549c-0.732-1.939,0.004-3.436,0.368-3.406
			c0.202,0.016,1.677,1.587,2.512,3.462C21.134,58.376,20.859,60.042,20.618,59.994"/>
		<path fill="#58585B" d="M15.548,57.001c0.099,0.292-1.278,1.235-3.437,0.718c-1.635-0.396-3.729-1.49-4.217-2.713
			c-0.065-0.17,1.457-0.783,3.512-0.191C13.459,55.407,15.45,56.71,15.548,57.001"/>
		<path fill="#58585B" d="M15.729,56.779c-0.305-0.034-1.957-1.873-2.238-3.853c-0.283-1.981,0.654-3.249,0.992-3.161
			c0.186,0.047,1.274,1.771,1.672,3.674C16.548,55.346,16.033,56.82,15.729,56.779"/>
		<path fill="#58585B" d="M11.637,53.152c0.036,0.293-1.429,0.969-3.361,0.14c-1.461-0.63-3.248-2.007-3.492-3.231
			c-0.034-0.172,1.523-0.517,3.357,0.367C9.977,51.314,11.6,52.861,11.637,53.152"/>
		<path fill="#58585B" d="M11.846,52.975c-0.275-0.084-1.48-2.082-1.396-4.013c0.084-1.927,1.188-2.989,1.494-2.851
			c0.168,0.074,0.91,1.892,0.93,3.76C12.896,51.742,12.128,53.057,11.846,52.975"/>
		<path fill="#58585B" d="M8.771,49.086c-0.016,0.279-1.474,0.688-3.188-0.369c-1.716-1.056-2.875-3.168-2.804-3.551
			c0.041-0.213,1.525-0.27,3.13,0.832C7.51,47.1,8.786,48.807,8.771,49.086"/>
		<path fill="#58585B" d="M9,48.948c-0.248-0.12-1.057-2.183-0.68-3.999c0.375-1.814,1.576-2.666,1.846-2.489
			c0.15,0.097,0.583,1.937,0.305,3.709C10.195,47.945,9.249,49.068,9,48.948"/>
		<path fill="#58585B" d="M6.627,44.615c-0.059,0.269-1.543,0.438-3.044-0.854c-1.503-1.298-2.308-3.531-2.179-3.891
			c0.07-0.2,1.531-0.029,2.926,1.294C5.721,42.49,6.686,44.346,6.627,44.615"/>
		<path fill="#58585B" d="M6.871,44.518c-0.219-0.156-0.673-2.285-0.023-3.994c0.65-1.709,1.951-2.352,2.188-2.14
			c0.132,0.118,0.271,1.978-0.281,3.663C8.198,43.73,7.093,44.673,6.871,44.518"/>
		<path fill="#58585B" d="M5.248,39.932c-0.098,0.25-1.543,0.188-2.795-1.281c-1.25-1.461-1.705-3.725-1.525-4.049
			c0.096-0.179,1.479,0.2,2.627,1.681C4.698,37.759,5.346,39.684,5.248,39.932"/>
		<path fill="#58585B" d="M5.5,39.879c-0.189-0.182-0.305-2.293,0.568-3.836c0.877-1.543,2.215-1.968,2.414-1.728
			c0.108,0.133-0.025,1.951-0.808,3.48C6.895,39.33,5.689,40.061,5.5,39.879"/>
		<path fill="#58585B" d="M4.615,35.234c-0.129,0.225-1.514-0.055-2.51-1.646c-0.996-1.598-1.116-3.83-0.903-4.119
			c0.122-0.16,1.403,0.406,2.299,1.999C4.398,33.059,4.745,35.014,4.615,35.234"/>
		<path fill="#58585B" d="M4.865,35.221c-0.153-0.207,0.037-2.25,1.094-3.609c1.059-1.361,2.41-1.578,2.566-1.319
			c0.086,0.146-0.297,1.888-1.264,3.253C6.289,34.902,5.02,35.423,4.865,35.221"/>
		<path fill="#58585B" d="M4.676,30.569c-0.156,0.197-1.443-0.275-2.178-1.945c-0.734-1.674-0.545-3.833-0.299-4.077
			c0.137-0.135,1.289,0.593,1.93,2.245C4.771,28.452,4.832,30.375,4.676,30.569"/>
		<path fill="#58585B" d="M4.917,30.591c-0.121-0.217,0.347-2.151,1.552-3.307c1.205-1.157,2.532-1.181,2.646-0.902
			c0.062,0.152-0.545,1.779-1.665,2.949C6.328,30.5,5.038,30.811,4.917,30.591"/>
		<path fill="#58585B" d="M5.37,26.145c-0.177,0.168-1.349-0.471-1.828-2.183c-0.479-1.709-0.006-3.76,0.267-3.961
			c0.147-0.11,1.16,0.745,1.551,2.431C5.753,24.119,5.546,25.977,5.37,26.145"/>
		<path fill="#58585B" d="M5.602,26.201c-0.086-0.228,0.625-2.022,1.941-2.974c1.314-0.949,2.598-0.793,2.673-0.512
			c0.037,0.157-0.771,1.651-2.009,2.625C6.967,26.313,5.686,26.426,5.602,26.201"/>
		<path fill="#58585B" d="M6.641,21.975c-0.19,0.139-1.225-0.632-1.453-2.334c-0.229-1.701,0.5-3.604,0.789-3.759
			c0.158-0.086,1.013,0.864,1.16,2.532C7.281,20.083,6.833,21.84,6.641,21.975"/>
		<path fill="#58585B" d="M6.854,22.061c-0.052-0.229,0.873-1.854,2.268-2.596c1.393-0.736,2.602-0.425,2.63-0.141
			c0.019,0.154-0.966,1.49-2.284,2.265C8.145,22.356,6.904,22.292,6.854,22.061"/>
		<path fill="#58585B" d="M8.426,18.147c-0.203,0.104-1.09-0.771-1.078-2.437c0.014-1.661,0.978-3.39,1.273-3.506
			c0.166-0.062,0.855,0.962,0.768,2.583C9.299,16.414,8.626,18.042,8.426,18.147"/>
		<path fill="#58585B" d="M8.618,18.256c-0.019-0.229,1.091-1.666,2.534-2.201c1.441-0.535,2.57-0.087,2.557,0.189
			c-0.006,0.15-1.145,1.324-2.52,1.895C9.814,18.713,8.634,18.487,8.618,18.256"/>
		<path fill="#58585B" d="M10.557,14.846c-0.205,0.076-0.938-0.863-0.709-2.449c0.229-1.582,1.37-3.115,1.668-3.19
			c0.168-0.044,0.698,1.01,0.4,2.547C11.62,13.292,10.764,14.766,10.557,14.846"/>
		<path fill="#58585B" d="M10.727,14.973c0.012-0.221,1.26-1.457,2.713-1.81c1.451-0.347,2.477,0.209,2.431,0.472
			c-0.029,0.145-1.28,1.139-2.673,1.526C11.807,15.55,10.711,15.19,10.727,14.973"/>
		<path fill="#58585B" d="M13.154,11.813c-0.205,0.054-0.766-0.92-0.34-2.371c0.425-1.455,1.705-2.767,1.998-2.803
			c0.162-0.02,0.525,1.026,0.041,2.434C14.366,10.483,13.357,11.768,13.154,11.813"/>
		<path fill="#58585B" d="M13.296,11.954c0.042-0.205,1.384-1.223,2.81-1.389c1.426-0.168,2.326,0.463,2.246,0.705
			c-0.045,0.135-1.375,0.938-2.748,1.146C14.234,12.626,13.254,12.159,13.296,11.954"/>
		<path fill="#58585B" d="M16.02,9.27c-0.197,0.021-0.598-0.938-0.012-2.244c0.586-1.303,1.956-2.385,2.235-2.389
			c0.157-0.005,0.368,1.006-0.271,2.262C17.335,8.155,16.215,9.248,16.02,9.27"/>
		<path fill="#58585B" d="M16.133,9.412c0.067-0.185,1.459-0.985,2.827-0.996c1.369-0.011,2.147,0.655,2.035,0.875
			c-0.062,0.121-1.433,0.742-2.752,0.798C16.922,10.139,16.066,9.6,16.133,9.412"/>
		<path fill="#58585B" d="M19.046,7.202c-0.185,0-0.428-0.906,0.269-2.032c0.697-1.125,2.082-1.983,2.34-1.96
			c0.145,0.012,0.227,0.943-0.514,2.029C20.4,6.319,19.232,7.202,19.046,7.202"/>
		<path fill="#58585B" d="M19.134,7.344c0.085-0.162,1.47-0.753,2.74-0.644c1.271,0.112,1.917,0.786,1.79,0.972
			C23.593,7.778,22.234,8.231,21,8.155C19.77,8.083,19.049,7.506,19.134,7.344"/>
		<path fill="#58585B" d="M41.439,62.708c-0.24,0.155,0.773,1.74,3.381,2.021c1.916,0.207,4.711-0.08,5.812-1.228
			c0.146-0.153-1.187-1.343-3.639-1.47C45.188,61.936,42.659,61.932,41.439,62.708"/>
		<path fill="#58585B" d="M41.354,62.416c1.394,0,3.356-1.629,4.313-3.073c1.237-1.877,0.79-3.544,0.403-3.577
			c-0.219-0.021-2.129,1.323-3.486,3.103C41.227,60.648,41.07,62.415,41.354,62.416"/>
		<path fill="#58585B" d="M47.523,60.253c-0.178,0.174,1.065,1.497,3.441,1.343c1.669-0.104,4.243-0.809,4.975-2.053
			c0.104-0.173-1.362-1.07-3.602-0.801C50.689,58.943,48.428,59.37,47.523,60.253"/>
		<path fill="#58585B" d="M47.382,59.995c1.208-0.243,2.634-2.047,3.196-3.55c0.73-1.939-0.005-3.436-0.367-3.406
			c-0.204,0.016-1.68,1.587-2.514,3.462C46.864,58.376,47.141,60.043,47.382,59.995"/>
		<path fill="#58585B" d="M52.452,57.001c-0.101,0.292,1.274,1.235,3.438,0.718c1.631-0.394,3.725-1.49,4.213-2.713
			c0.066-0.17-1.457-0.783-3.51-0.191C54.541,55.407,52.549,56.711,52.452,57.001"/>
		<path fill="#58585B" d="M52.271,56.779c0.303-0.034,1.953-1.873,2.236-3.852c0.284-1.982-0.652-3.25-0.988-3.162
			c-0.188,0.047-1.278,1.771-1.676,3.674C51.451,55.346,51.966,56.82,52.271,56.779"/>
		<path fill="#58585B" d="M56.363,53.152c-0.038,0.293,1.428,0.969,3.361,0.14c1.461-0.63,3.246-2.007,3.491-3.231
			c0.037-0.172-1.522-0.518-3.356,0.369C58.021,51.314,56.4,52.863,56.363,53.152"/>
		<path fill="#58585B" d="M56.15,52.975c0.276-0.084,1.483-2.082,1.396-4.012c-0.083-1.928-1.186-2.99-1.488-2.852
			c-0.172,0.074-0.914,1.894-0.935,3.761C55.104,51.742,55.873,53.057,56.15,52.975"/>
		<path fill="#58585B" d="M59.229,49.086c0.014,0.279,1.472,0.689,3.188-0.369c1.716-1.056,2.877-3.168,2.804-3.551
			c-0.039-0.213-1.522-0.27-3.127,0.832C60.491,47.102,59.215,48.807,59.229,49.086"/>
		<path fill="#58585B" d="M58.999,48.948c0.251-0.12,1.056-2.183,0.683-3.999c-0.377-1.814-1.578-2.666-1.849-2.489
			c-0.149,0.099-0.582,1.937-0.306,3.709C57.807,47.945,58.753,49.068,58.999,48.948"/>
		<path fill="#58585B" d="M61.372,44.615c0.062,0.271,1.542,0.438,3.042-0.854c1.503-1.298,2.313-3.531,2.18-3.891
			c-0.07-0.2-1.533-0.029-2.923,1.294C62.277,42.49,61.313,44.346,61.372,44.615"/>
		<path fill="#58585B" d="M61.128,44.518c0.22-0.156,0.675-2.285,0.024-3.994c-0.651-1.709-1.95-2.352-2.187-2.14
			c-0.13,0.119-0.272,1.978,0.28,3.663C59.802,43.73,60.906,44.673,61.128,44.518"/>
		<path fill="#58585B" d="M62.752,39.932c0.096,0.25,1.543,0.188,2.794-1.281c1.25-1.461,1.706-3.725,1.526-4.049
			c-0.1-0.178-1.479,0.2-2.625,1.681C63.301,37.759,62.652,39.686,62.752,39.932"/>
		<path fill="#58585B" d="M62.5,39.879c0.189-0.182,0.305-2.293-0.568-3.836c-0.875-1.543-2.216-1.968-2.412-1.728
			c-0.109,0.131,0.021,1.951,0.806,3.481C61.104,39.33,62.313,40.061,62.5,39.879"/>
		<path fill="#58585B" d="M63.384,35.234c0.132,0.225,1.515-0.055,2.511-1.646c0.994-1.598,1.117-3.83,0.901-4.117
			c-0.12-0.162-1.399,0.404-2.297,1.997C63.602,33.059,63.255,35.014,63.384,35.234"/>
		<path fill="#58585B" d="M63.137,35.221c0.154-0.207-0.037-2.248-1.097-3.609c-1.058-1.361-2.408-1.578-2.565-1.319
			c-0.086,0.146,0.295,1.888,1.269,3.253C61.709,34.902,62.979,35.424,63.137,35.221"/>
		<path fill="#58585B" d="M63.325,30.569c0.151,0.197,1.442-0.275,2.175-1.944c0.734-1.675,0.546-3.834,0.301-4.078
			c-0.14-0.135-1.289,0.593-1.929,2.245C63.23,28.452,63.169,30.375,63.325,30.569"/>
		<path fill="#58585B" d="M63.083,30.591c0.121-0.217-0.349-2.151-1.554-3.306c-1.202-1.159-2.53-1.18-2.646-0.904
			c-0.063,0.152,0.545,1.779,1.667,2.949C61.672,30.5,62.963,30.811,63.083,30.591"/>
		<path fill="#58585B" d="M62.629,26.145c0.176,0.168,1.35-0.471,1.827-2.181c0.481-1.709,0.006-3.761-0.263-3.961
			c-0.15-0.11-1.162,0.745-1.553,2.429C62.249,24.119,62.452,25.979,62.629,26.145"/>
		<path fill="#58585B" d="M62.398,26.202c0.088-0.229-0.625-2.023-1.94-2.975c-1.319-0.951-2.601-0.793-2.672-0.512
			c-0.042,0.157,0.769,1.651,2.009,2.626C61.031,26.313,62.314,26.426,62.398,26.202"/>
		<path fill="#58585B" d="M61.355,21.975c0.191,0.14,1.23-0.632,1.455-2.334c0.228-1.701-0.5-3.604-0.787-3.759
			c-0.16-0.086-1.012,0.865-1.158,2.532C60.721,20.085,61.166,21.84,61.355,21.975"/>
		<path fill="#58585B" d="M61.145,22.061c0.055-0.229-0.869-1.853-2.263-2.596c-1.392-0.736-2.604-0.425-2.636-0.142
			c-0.016,0.153,0.97,1.491,2.291,2.265C59.854,22.356,61.096,22.292,61.145,22.061"/>
		<path fill="#58585B" d="M59.574,18.147c0.201,0.104,1.088-0.771,1.076-2.437c-0.014-1.661-0.973-3.39-1.271-3.506
			c-0.166-0.062-0.858,0.962-0.769,2.584C58.701,16.415,59.37,18.042,59.574,18.147"/>
		<path fill="#58585B" d="M59.383,18.256c0.018-0.229-1.091-1.666-2.535-2.201c-1.441-0.537-2.568-0.086-2.557,0.189
			c0.006,0.152,1.143,1.324,2.52,1.895C58.188,18.713,59.363,18.487,59.383,18.256"/>
		<path fill="#58585B" d="M57.445,14.846c0.201,0.076,0.936-0.863,0.709-2.447c-0.229-1.582-1.373-3.117-1.672-3.191
			c-0.168-0.043-0.697,1.01-0.4,2.547C56.382,13.292,57.234,14.766,57.445,14.846"/>
		<path fill="#58585B" d="M57.271,14.973c-0.01-0.22-1.258-1.459-2.711-1.808c-1.457-0.349-2.479,0.208-2.432,0.471
			c0.027,0.144,1.275,1.14,2.673,1.526C56.191,15.55,57.288,15.19,57.271,14.973"/>
		<path fill="#58585B" d="M54.848,11.813c0.203,0.055,0.766-0.918,0.338-2.371c-0.425-1.455-1.707-2.766-2-2.803
			c-0.16-0.019-0.524,1.026-0.035,2.435C53.633,10.483,54.641,11.768,54.848,11.813"/>
		<path fill="#58585B" d="M54.701,11.953c-0.039-0.204-1.383-1.222-2.807-1.386c-1.424-0.17-2.328,0.461-2.244,0.703
			c0.047,0.133,1.373,0.938,2.744,1.146C53.764,12.626,54.744,12.16,54.701,11.953"/>
		<path fill="#58585B" d="M51.98,9.27c0.199,0.023,0.6-0.938,0.01-2.244c-0.583-1.301-1.954-2.385-2.236-2.389
			c-0.156-0.005-0.369,1.006,0.273,2.262C50.665,8.155,51.783,9.248,51.98,9.27"/>
		<path fill="#58585B" d="M51.867,9.412c-0.066-0.185-1.458-0.985-2.826-0.996c-1.371-0.011-2.146,0.655-2.036,0.876
			c0.062,0.119,1.433,0.741,2.75,0.797C51.078,10.139,51.934,9.6,51.867,9.412"/>
		<path fill="#58585B" d="M48.953,7.202c0.184,0,0.428-0.906-0.268-2.032c-0.695-1.125-2.082-1.983-2.342-1.96
			c-0.145,0.012-0.228,0.943,0.518,2.029C47.6,6.319,48.766,7.202,48.953,7.202"/>
		<path fill="#58585B" d="M48.865,7.344c-0.084-0.162-1.469-0.753-2.74-0.644c-1.271,0.112-1.917,0.786-1.788,0.972
			c0.07,0.105,1.431,0.559,2.664,0.482C48.23,8.083,48.95,7.507,48.865,7.344"/>
	</g>
	<polygon fill="#58585B" points="36.979,25.255 48.602,21.867 40.125,30.514 48.873,38.884 37.146,35.867 34.271,47.627 
		31.021,35.964 19.396,39.354 27.874,30.708 19.127,22.335 30.854,25.354 33.73,13.592 	"/>
	<polygon fill="#58585B" points="15.217,26.471 16.333,26.901 15.191,27.255 15.127,28.45 14.438,27.473 13.281,27.78 
		13.997,26.823 13.348,25.819 14.479,26.204 15.232,25.274 	"/>
	<polygon fill="#58585B" points="14.918,32.667 16.096,32.876 15.042,33.442 15.206,34.626 14.342,33.799 13.268,34.321 
		13.787,33.245 12.958,32.382 14.143,32.544 14.707,31.489 	"/>
	<polygon fill="#58585B" points="16.094,39.318 17.268,39.084 16.492,39.995 17.078,41.038 15.973,40.583 15.161,41.463 
		15.252,40.271 14.166,39.771 15.327,39.488 15.466,38.302 	"/>
	<polygon fill="#58585B" points="19.434,46.027 20.529,45.552 19.966,46.605 20.758,47.501 19.581,47.289 18.975,48.318 
		18.811,47.137 17.645,46.876 18.721,46.354 18.605,45.165 	"/>
	<polygon fill="#58585B" points="35.057,53.039 37.091,53.105 35.453,54.316 36.021,56.273 34.361,55.088 32.676,56.232 
		33.29,54.292 31.682,53.04 33.718,53.021 34.41,51.107 	"/>
	<polygon fill="#58585B" points="27.434,50.456 29.468,50.521 27.831,51.732 28.396,53.689 26.739,52.505 25.053,53.648 
		25.667,51.709 24.059,50.457 26.096,50.439 26.787,48.523 	"/>
	<polygon fill="#58585B" points="53.132,26.471 52.016,26.901 53.157,27.255 53.223,28.45 53.912,27.473 55.068,27.78 
		54.354,26.823 55.003,25.819 53.87,26.204 53.116,25.274 	"/>
	<polygon fill="#58585B" points="53.432,32.667 52.254,32.876 53.309,33.442 53.145,34.626 54.007,33.799 55.083,34.321 
		54.563,33.245 55.393,32.382 54.206,32.544 53.643,31.489 	"/>
	<polygon fill="#58585B" points="52.255,39.318 51.083,39.084 51.855,39.995 51.271,41.038 52.377,40.583 53.188,41.463 
		53.098,40.271 54.184,39.771 53.021,39.488 52.883,38.302 	"/>
	<polygon fill="#58585B" points="48.916,46.027 47.818,45.552 48.384,46.605 47.592,47.501 48.77,47.289 49.375,48.318 
		49.538,47.137 50.706,46.876 49.63,46.354 49.743,45.165 	"/>
	<polygon fill="#58585B" points="40.917,50.456 38.881,50.521 40.52,51.732 39.952,53.689 41.609,52.505 43.297,53.648 
		42.684,51.709 44.291,50.457 42.255,50.439 41.563,48.523 	"/>
</g>
</svg>
