<?xml version="1.0" encoding="utf-8"?>
<!-- Generator: Adobe Illustrator 16.0.0, SVG Export Plug-In . SVG Version: 6.00 Build 0)  -->
<!DOCTYPE svg PUBLIC "-//W3C//DTD SVG 1.1//EN" "http://www.w3.org/Graphics/SVG/1.1/DTD/svg11.dtd">
<svg version="1.1" id="Layer_1" xmlns="http://www.w3.org/2000/svg" xmlns:xlink="http://www.w3.org/1999/xlink" x="0px" y="0px"
	 width="155px" height="68px" viewBox="0 0 155 68" enable-background="new 0 0 155 68" xml:space="preserve">
<g>
	<g>
		<g>
			<path fill="#58585B" d="M88.668,38.054h-5.84l-1.404,4.271h-3.117l5.862-16.647h3.161l5.865,16.647h-3.123L88.668,38.054z
				 M85.736,28.559c0,0-0.377,1.641-0.703,2.577l-1.477,4.456h4.357l-1.479-4.456c-0.306-0.939-0.656-2.577-0.656-2.577H85.736z"/>
		</g>
		<g>
			<path fill="#58585B" d="M97.673,25.677h5.367c1.806,0,2.626,0.141,3.351,0.472c1.666,0.747,2.723,2.345,2.723,4.548
				c0,1.993-1.055,3.842-2.813,4.553v0.047c0,0,0.233,0.234,0.563,0.82l3.424,6.213h-3.375l-3.309-6.215h-2.908v6.213h-3.023
				L97.673,25.677L97.673,25.677z M103.415,33.484c1.617,0,2.626-0.96,2.626-2.626c0-1.595-0.68-2.578-3.048-2.578h-2.3v5.207
				L103.415,33.484L103.415,33.484z"/>
		</g>
		<g>
			<path fill="#58585B" d="M115.445,25.677h5.677c5.134,0,8.483,3.049,8.483,8.298c0,5.256-3.352,8.346-8.483,8.346h-5.677V25.677
				L115.445,25.677z M120.957,39.72c3.378,0,5.531-1.991,5.531-5.745c0-3.703-2.206-5.696-5.531-5.696h-2.486V39.72H120.957z"/>
		</g>
		<g>
			<path fill="#58585B" d="M135.027,38.054c0,0,1.807,1.76,4.148,1.76c1.266,0,2.416-0.655,2.416-2.015
				c0-2.98-7.855-2.465-7.855-7.574c0-2.769,2.393-4.83,5.58-4.83c3.283,0,4.972,1.781,4.972,1.781l-1.313,2.463
				c0,0-1.601-1.452-3.685-1.452c-1.405,0-2.511,0.822-2.511,1.992c0,2.957,7.828,2.228,7.828,7.552
				c0,2.649-2.012,4.875-5.483,4.875c-3.703,0-5.743-2.271-5.743-2.271L135.027,38.054z"/>
		</g>
		<g>
			<path fill="#58585B" d="M54.546,25.677l-2.744,11.515c-0.209,0.938-0.278,1.758-0.278,1.758h-0.048
				c-0.025,0-0.049-0.797-0.307-1.758l-2.954-11.515h-2.626l-3,11.515c-0.26,0.959-0.281,1.758-0.306,1.758h-0.046
				c0,0-0.074-0.82-0.281-1.758l-1.964-8.622l-1.477,6.287l1.868,7.468h3.494l2.557-9.849c0.28-1.078,0.423-2.179,0.423-2.179h0.045
				c0,0,0.14,1.101,0.423,2.179l2.559,9.849h3.491l4.294-16.647H54.546L54.546,25.677z"/>
		</g>
		<g>
			<path fill="#58585B" d="M73.329,25.677l-2.745,11.515c-0.209,0.938-0.279,1.758-0.279,1.758h-0.049
				c-0.021,0-0.044-0.797-0.302-1.758l-2.957-11.515h-2.623l-3.002,11.515c-0.26,0.959-0.281,1.758-0.305,1.758H61.02
				c0,0-0.07-0.82-0.281-1.758l-1.976-8.661l-1.478,6.288l1.883,7.508h3.492l2.554-9.849c0.281-1.079,0.425-2.18,0.425-2.18h0.046
				c0,0,0.141,1.101,0.422,2.18l2.557,9.849h3.491l4.295-16.648L73.329,25.677L73.329,25.677z"/>
		</g>
		<g>
			<path fill="#58585B" d="M11.354,38.054H5.516l-1.407,4.271h-3.12l5.862-16.646h3.166l5.86,16.646h-3.119L11.354,38.054z
				 M8.423,28.559c0,0-0.377,1.641-0.704,2.577l-1.477,4.456h4.361l-1.479-4.453c-0.303-0.938-0.657-2.58-0.657-2.58H8.423z"/>
		</g>
		<g>
			<path fill="#58585B" d="M32.388,37.189c0.257,0.961,0.279,1.758,0.303,1.758h0.047c0,0,0.072-0.822,0.281-1.758l2.741-11.515
				h3.119l-4.292,16.647h-3.493l-2.554-9.849c-0.281-1.079-0.424-2.181-0.424-2.181H28.07c0,0-0.14,1.102-0.422,2.181l-2.558,9.847
				h-3.492l-4.173-16.644h3.118l2.627,11.515c0.212,0.938,0.282,1.758,0.282,1.758H23.5c0.025,0,0.045-0.797,0.306-1.758
				l3.001-11.515h2.623L32.388,37.189z"/>
		</g>
	</g>
	<g>
		<path fill="#58585B" d="M151.148,25.632c1.595,0,2.863,1.287,2.863,2.91c0,1.631-1.271,2.911-2.863,2.911
			c-1.564,0-2.828-1.278-2.828-2.911C148.32,26.921,149.584,25.632,151.148,25.632z M151.148,31.115c1.414,0,2.5-1.117,2.5-2.569
			c0-1.448-1.088-2.571-2.5-2.571c-1.391,0-2.469,1.127-2.469,2.571C148.682,30,149.762,31.115,151.148,31.115z M150.221,26.937
			h1.065c0.544,0,0.933,0.373,0.933,0.934c0,0.475-0.285,0.779-0.617,0.859v0.016c0,0,0.026,0.043,0.105,0.179l0.634,1.23h-0.396
			l-0.682-1.344h-0.693v1.344h-0.348L150.221,26.937L150.221,26.937z M151.246,28.502c0.372,0,0.611-0.237,0.611-0.633
			c0-0.384-0.239-0.613-0.611-0.613h-0.676v1.246H151.246z"/>
	</g>
</g>
</svg>
