<?xml version="1.0" encoding="utf-8"?>
<!-- Generator: Adobe Illustrator 16.0.0, SVG Export Plug-In . SVG Version: 6.00 Build 0)  -->
<!DOCTYPE svg PUBLIC "-//W3C//DTD SVG 1.1//EN" "http://www.w3.org/Graphics/SVG/1.1/DTD/svg11.dtd">
<svg version="1.1" id="Layer_1" xmlns="http://www.w3.org/2000/svg" xmlns:xlink="http://www.w3.org/1999/xlink" x="0px" y="0px"
	 width="132.25px" height="68px" viewBox="0 0 132.25 68" enable-background="new 0 0 132.25 68" xml:space="preserve">
<g>
	<g>
		<path fill="#58585B" d="M1.241,29.688l21.414,9.066v-4.442L1.241,25.245C1.241,26.598,1.241,28.299,1.241,29.688z"/>
		<path fill="#58585B" d="M2.153,24.334L7.4,26.557l15.277-6.449c0-1.387,0-3.088,0-4.443L2.153,24.334z"/>
		<path fill="#58585B" d="M14.136,29.416l8.541-3.57c0-1.387,0-3.09,0-4.443L8.855,27.206L14.136,29.416z"/>
		<path fill="#58585B" d="M6.373,47.842c0,1.615,0,2.928,0,4.494l15.311-6.953l-5.114-2.17L6.373,47.842z"/>
		<path fill="#58585B" d="M6.373,42.045c0,1.375,0,3.096,0,4.484l8.733-3.951l-5.105-2.162L6.373,42.045z"/>
		<path fill="#58585B" d="M4.244,36.697l18.411,7.797v-4.443L4.244,32.256C4.244,33.594,4.244,35.299,4.244,36.697z"/>
	</g>
	<g>
		<path fill="#58585B" d="M35.662,26.806c1.89,0,4.968,0.813,4.968,2.815v1.095h-1.247v-0.736c0-1.246-2.153-1.927-3.684-1.927
			c-2.947,0-5.215,2.305-5.215,5.517c0,3.171,2.25,5.724,5.271,5.724c2.74,0,4.344-1.869,4.344-1.869l0.758,0.963
			c0,0-1.833,2.154-5.122,2.154c-3.89,0-6.63-3.098-6.63-6.971C29.106,29.733,31.921,26.806,35.662,26.806z"/>
		<path fill="#58585B" d="M42.517,37.686c0,0,1.342,1.625,3.438,1.625c1.456,0,2.627-0.943,2.627-2.361
			c0-3.287-6.556-2.625-6.556-6.744c0-1.853,1.606-3.4,4.061-3.4c1.286,0,3.59,0.548,3.59,2.285v0.945H48.43v-0.623
			c0-0.793-1.096-1.38-2.323-1.38c-1.721,0-2.721,1.002-2.721,2.135c0,3.08,6.556,2.324,6.556,6.709c0,1.98-1.531,3.662-4.024,3.662
			c-2.72,0-4.213-1.889-4.213-1.889L42.517,37.686z"/>
		<path fill="#58585B" d="M51.81,37.686c0,0,1.34,1.625,3.438,1.625c1.453,0,2.626-0.943,2.626-2.361
			c0-3.287-6.556-2.625-6.556-6.744c0-1.853,1.605-3.4,4.061-3.4c1.285,0,3.589,0.548,3.589,2.285v0.945h-1.247v-0.623
			c0-0.793-1.095-1.38-2.324-1.38c-1.719,0-2.72,1.002-2.72,2.135c0,3.08,6.556,2.324,6.556,6.709c0,1.98-1.53,3.662-4.023,3.662
			c-2.721,0-4.211-1.889-4.211-1.889L51.81,37.686z"/>
		<path fill="#58585B" d="M60.838,28.62c-0.093-0.359-0.339-0.416-0.699-0.416h-0.226v-1.172h0.586c0.942,0,1.38,0.17,1.606,1.096
			l2.304,9.162c0.169,0.68,0.284,1.418,0.284,1.418h0.037c0,0,0.17-0.738,0.359-1.418l2.926-10.201h1.305l2.666,10.201
			c0.187,0.68,0.302,1.418,0.302,1.418h0.039c0,0,0.131-0.738,0.302-1.418l2.301-9.162c0.229-0.926,0.663-1.096,1.606-1.096h0.587
			v1.172h-0.21c-0.377,0-0.603,0.057-0.698,0.416l-3.061,11.693h-1.568l-2.475-9.238c-0.228-0.85-0.436-1.964-0.436-1.964h-0.037
			c0,0-0.228,1.096-0.473,1.947l-2.719,9.257h-1.568L60.838,28.62z"/>
		<path fill="#58585B" d="M77.818,39.141h1.244V28.204h-1.244v-1.172h3.797v1.172H80.35v10.939h1.266v1.172h-3.797V39.141z"/>
		<path fill="#58585B" d="M82.785,39.141h0.813c0.266,0,0.416-0.131,0.416-0.414V27.032h1.211l6.78,9.464
			c0.455,0.662,1.074,1.736,1.074,1.736h0.038c0,0-0.094-1.039-0.094-1.736v-8.313c0-0.812,0.34-1.153,1.153-1.153h1.396v1.172
			h-0.812c-0.265,0-0.416,0.133-0.416,0.416v11.692h-1.209l-6.781-9.463c-0.474-0.643-1.098-1.72-1.098-1.72h-0.037
			c0,0,0.114,1.021,0.114,1.72v8.311c0,0.813-0.341,1.152-1.153,1.152h-1.396V39.141L82.785,39.141L82.785,39.141z"/>
		<path fill="#58585B" d="M96.65,39.141h0.812c0.267,0,0.416-0.131,0.416-0.414V27.032h1.21l6.782,9.464
			c0.454,0.662,1.075,1.736,1.075,1.736h0.037c0,0-0.096-1.039-0.096-1.736v-8.313c0-0.812,0.342-1.153,1.152-1.153h1.4v1.172
			h-0.813c-0.265,0-0.417,0.133-0.417,0.416v11.692h-1.208l-6.78-9.461c-0.474-0.644-1.097-1.72-1.097-1.72h-0.038
			c0,0,0.113,1.021,0.113,1.72v8.311c0,0.813-0.342,1.152-1.152,1.152h-1.398v-1.172H96.65z"/>
		<path fill="#58585B" d="M111.741,28.204h-1.228v-1.172h7.594c0.813,0,1.152,0.34,1.152,1.153v1.323h-1.246v-0.887
			c0-0.283-0.152-0.416-0.416-0.416h-4.533v4.836h4.988v1.171h-4.988v4.515c0,0.283,0.149,0.416,0.416,0.416h4.666
			c0.264,0,0.416-0.133,0.416-0.416v-0.889h1.227v1.324c0,0.811-0.339,1.15-1.15,1.15h-5.744c-0.813,0-1.152-0.338-1.152-1.15
			L111.741,28.204L111.741,28.204z"/>
		<path fill="#58585B" d="M121.79,28.204h-1.228v-1.172h5.631c2.229,0,3.813,1.474,3.813,3.78c0,2.06-1.266,3.269-2.569,3.552v0.038
			c0,0,0.266,0.149,0.455,0.528l1.908,3.777c0.188,0.396,0.471,0.436,0.942,0.436h0.266v1.172h-0.587
			c-1.074,0-1.396-0.133-1.833-1.002l-1.905-3.799c-0.359-0.699-0.605-0.793-1.342-0.793h-2.23v5.592h-1.321V28.204L121.79,28.204z
			 M126.059,33.549c1.588,0,2.57-1.04,2.57-2.7c0-1.644-0.98-2.646-2.551-2.646h-2.965v5.346H126.059z"/>
	</g>
</g>
</svg>
