<?xml version="1.0" encoding="utf-8"?>
<!-- Generator: Adobe Illustrator 16.0.0, SVG Export Plug-In . SVG Version: 6.00 Build 0)  -->
<!DOCTYPE svg PUBLIC "-//W3C//DTD SVG 1.1//EN" "http://www.w3.org/Graphics/SVG/1.1/DTD/svg11.dtd">
<svg version="1.1" id="Layer_1" xmlns="http://www.w3.org/2000/svg" xmlns:xlink="http://www.w3.org/1999/xlink" x="0px" y="0px"
	 width="68px" height="68px" viewBox="0 0 68 68" enable-background="new 0 0 68 68" xml:space="preserve">
<g>
	<path fill="#58585B" d="M0.984,67.016c0-22.01,0-44.02,0-66.031c22.01,0,44.021,0,66.031,0c-0.01,0.567-0.022,1.134-0.022,1.701
		c-0.002,20.901-0.002,41.806-0.002,62.709c0,0.5,0,1.006,0,1.598c-0.65,0-1.124,0-1.599,0c-8.814,0-17.634-0.004-26.444,0.002
		C26.294,66.996,13.639,67.007,0.984,67.016z M29.998,53.807c3.805,0,7.475,0.178,11.121-0.051c3.343-0.209,5.126-2.068,5.168-5.434
		c0.117-9.332,0.154-18.669-0.01-28.002c-0.067-4.034-2.568-6.279-6.62-6.496c-2.919-0.156-5.845-0.152-8.765-0.207
		c-0.285-0.005-0.568,0.086-0.893,0.139C29.998,27.132,29.998,40.427,29.998,53.807z M27.434,28.43
		c-0.266-3.103-0.334-6.08-0.817-8.985c-0.638-3.837-3.835-6.499-7.524-6.661c-3.656-0.161-6.795,2.114-7.818,5.885
		c-0.406,1.497-0.563,3.097-0.588,4.657c-0.09,5.759-0.111,11.521-0.086,17.279c0.01,2.265,0.075,4.544,0.357,6.786
		c0.314,2.485,1.37,4.683,3.456,6.24c2.562,1.917,5.394,1.371,7.042-1.344c0.168-0.276,0.357-0.54,0.623-0.938
		c0.168,0.729,0.234,1.303,0.445,1.815c0.123,0.294,0.463,0.696,0.728,0.71c1.288,0.073,2.582,0.035,3.864,0.035
		c0-7.313,0-14.438,0-21.593c-2.797,0-5.482,0-8.234,0c0,2.061,0,4.039,0,6.004c0.489,0.111,0.893,0.202,1.203,0.274
		c0,2.642,0.007,5.17-0.011,7.694c-0.001,0.294-0.064,0.657-0.244,0.86c-0.259,0.295-0.642,0.633-0.984,0.646
		c-0.254,0.014-0.688-0.412-0.767-0.717c-0.186-0.71-0.281-1.458-0.282-2.199c-0.019-7.462-0.013-14.923,0-22.385
		c0-0.606,0.005-1.253,0.209-1.808c0.147-0.403,0.331-1.023,0.961-1.023c0.519,0,0.806,0.742,0.843,1.145
		c0.153,1.736,0.176,3.483,0.229,5.227c0.023,0.772,0.003,1.546,0.003,2.394C22.475,28.43,24.766,28.43,27.434,28.43z
		 M57.891,13.713c-2.402,0-4.726,0-7.138,0c0,0.625,0,1.144,0,1.665c-0.004,9.515,0,19.033-0.017,28.548
		c-0.004,2.336-0.33,2.692-2.559,3.057c0,2.274,0,4.557,0,6.914c1.551,0,2.988,0.047,4.42-0.016
		c3.231-0.133,4.922-1.771,5.233-5.021c0.065-0.698,0.065-1.396,0.067-2.094c0.021-10.608,0.039-21.215,0.05-31.824
		C57.949,14.562,57.914,14.177,57.891,13.713z"/>
	<path fill="#58585B" d="M37.21,20.688c1.381-0.186,2.015,0.458,2.019,1.672c0.008,7.542,0.014,15.087-0.045,22.633
		c-0.01,1.477-0.509,1.826-1.974,1.81C37.21,38.131,37.21,29.463,37.21,20.688z"/>
</g>
</svg>
