<?xml version="1.0" encoding="utf-8"?>
<!-- Generator: Adobe Illustrator 16.0.0, SVG Export Plug-In . SVG Version: 6.00 Build 0)  -->
<!DOCTYPE svg PUBLIC "-//W3C//DTD SVG 1.1//EN" "http://www.w3.org/Graphics/SVG/1.1/DTD/svg11.dtd">
<svg version="1.1" id="Layer_1" xmlns="http://www.w3.org/2000/svg" xmlns:xlink="http://www.w3.org/1999/xlink" x="0px" y="0px"
	 width="88.224px" height="68px" viewBox="34.026 0 88.224 68" enable-background="new 34.026 0 88.224 68" xml:space="preserve">
<g>
	<g enable-background="new    ">
		<path fill="#404041" d="M34.026,45.088l0.293-1.156c1.175,0,1.971-0.175,2.389-0.521c0.418-0.348,0.725-0.917,0.921-1.712
			l1.732-6.9l0.268-0.396h-1.414l0.348-1.324h1.467l-0.134-0.446c0.304-1.158,0.703-1.848,1.201-2.068
			c0.604-0.275,1.293-0.433,2.067-0.472c0.772-0.038,1.577-0.058,2.414-0.058l-0.268,1.208c-1.281,0-2.091,0.072-2.428,0.215
			c-0.249,0.11-0.414,0.284-0.494,0.521c-0.08,0.237-0.155,0.488-0.227,0.753l-0.319,0.347h2.4L43.895,34.4h-2.454l0.16,0.348
			l-1.788,7.016c-0.283,1.049-0.596,1.732-0.934,2.053c-0.516,0.476-1.014,0.771-1.493,0.895
			C36.41,44.961,35.29,45.088,34.026,45.088z"/>
		<path fill="#404041" d="M45.843,41.961c-0.551,0-0.925-0.011-1.12-0.031c-0.427-0.033-0.64-0.205-0.64-0.515
			c0-0.065,0.952-3.854,2.854-11.367h0.454c0.747,0,1.228,0.024,1.44,0.074c0.212,0.05,0.319,0.16,0.319,0.331
			s-0.951,4.007-2.854,11.508H45.843z"/>
		<path fill="#404041" d="M57.927,41.961c-0.889,0-1.427-0.038-1.614-0.115c-0.187-0.076-0.351-0.348-0.493-0.812l-2.026-6.568
			l-1.681,6.554c-0.106,0.44-0.259,0.709-0.453,0.803c-0.196,0.095-0.721,0.141-1.574,0.141h-0.561l3.041-11.913h0.453
			c0.871,0,1.405,0.039,1.602,0.116c0.195,0.077,0.354,0.347,0.479,0.811l1.975,6.751l1.975-7.68h0.427
			c0.551,0,0.935,0.011,1.146,0.033c0.392,0.022,0.587,0.154,0.587,0.397c0,0.032,0,0.071,0,0.115l-2.827,11.367H57.927z"/>
		<path fill="#404041" d="M72.305,30.553c0.587,0.469,0.881,1.111,0.881,1.928s-0.054,1.603-0.16,2.357
			c-0.105,0.754-0.312,1.58-0.612,2.475c-0.304,0.895-0.689,1.684-1.161,2.367c-0.471,0.685-1.12,1.254-1.947,1.711
			c-0.826,0.459-1.765,0.688-2.813,0.688c-0.09,0-1.663-0.044-4.723-0.135l3.068-11.911l4.455-0.182
			C70.713,29.85,71.718,30.084,72.305,30.553z M66.543,40.688c0.729,0,1.383-0.313,1.961-0.936c0.577-0.624,1.018-1.388,1.32-2.293
			c0.621-1.842,0.934-3.381,0.934-4.616c0-0.529-0.125-0.929-0.374-1.199s-0.685-0.405-1.307-0.405h-2.241v0.198l-2.32,9.167
			l-0.054,0.084H66.543z"/>
	</g>
	<path fill="#404041" d="M99.786,29.535l-2.769,9.611c-0.328,1.144-0.07,2.162,0.592,2.81c0.078,0.012,0.16,0.021,0.238,0.021h6.043
		L99.786,29.535z M108.596,30.295l2.782-9.675c0.328-1.138,0.073-2.154-0.583-2.8c-0.096-0.018-0.189-0.027-0.283-0.027h-6.045
		L108.596,30.295z M103.085,18.069l-2.612,9.082l4.821,14.609l2.614-9.083L103.085,18.069z"/>
	<path fill="none" d="M99.786,29.535l-2.769,9.611c-0.328,1.144-0.07,2.162,0.592,2.81c0.078,0.012,0.16,0.021,0.238,0.021h6.043
		L99.786,29.535z M108.596,30.295l2.782-9.675c0.328-1.138,0.073-2.154-0.583-2.8c-0.096-0.018-0.189-0.027-0.283-0.027h-6.045
		L108.596,30.295z M103.085,18.069l-2.612,9.082l4.821,14.609l2.614-9.083L103.085,18.069z"/>
	<path fill="#404041" d="M83.701,29.62l-2.742,9.526c-0.33,1.146-0.068,2.17,0.602,2.815c0.06,0.007,0.116,0.011,0.176,0.011h6.046
		L83.701,29.62z M92.509,30.38l2.812-9.76c0.326-1.13,0.076-2.141-0.568-2.786c-0.117-0.026-0.234-0.041-0.352-0.041h-6.045
		L92.509,30.38z M87.001,18.154l-2.614,9.082l4.824,14.61l2.613-9.083L87.001,18.154z"/>
	<path fill="none" d="M83.701,29.62l-2.742,9.526c-0.33,1.146-0.068,2.17,0.602,2.815c0.06,0.007,0.116,0.011,0.176,0.011h6.046
		L83.701,29.62z M92.509,30.38l2.812-9.76c0.326-1.13,0.076-2.141-0.568-2.786c-0.117-0.026-0.234-0.041-0.352-0.041h-6.045
		L92.509,30.38z M87.001,18.154l-2.614,9.082l4.824,14.61l2.613-9.083L87.001,18.154z"/>
	<path fill="#404041" d="M71.274,17.093h7.013c1.107,0,2.313,0.907,2.681,2.016l7.779,23.567h-7.013
		c-1.106,0-2.314-0.906-2.68-2.018L71.274,17.093z"/>
	<path fill="#404041" d="M87.386,17.093H94.4c1.107,0,2.313,0.907,2.682,2.016l7.779,23.567H97.85c-1.108,0-2.315-0.906-2.684-2.018
		L87.386,17.093z"/>
	<path fill="#404041" d="M103.5,17.093h7.014c1.106,0,2.314,0.907,2.682,2.016l7.779,23.567h-7.014
		c-1.107,0-2.314-0.906-2.682-2.018L103.5,17.093z"/>
	<g enable-background="new    ">
		<path fill="#404041" d="M82.251,48.034l0.079,0.45h0.021l0.098-0.45l0.746-2.378h0.547l0.749,2.378l0.106,0.504h0.021l0.101-0.504
			l0.588-2.378h0.678l-1.086,3.738H84.35l-0.723-2.276l-0.154-0.638l-0.021,0.004l-0.148,0.634l-0.712,2.276h-0.549l-1.086-3.738
			h0.678L82.251,48.034z"/>
		<path fill="#404041" d="M88.203,49.468c-0.521,0-0.936-0.173-1.242-0.521c-0.309-0.348-0.462-0.797-0.462-1.352v-0.15
			c0-0.531,0.159-0.977,0.476-1.328c0.317-0.354,0.691-0.53,1.125-0.53c0.504,0,0.885,0.152,1.146,0.456
			c0.259,0.305,0.387,0.709,0.387,1.218v0.425h-2.426l-0.011,0.018c0.008,0.359,0.099,0.652,0.271,0.885
			c0.176,0.23,0.422,0.346,0.736,0.346c0.229,0,0.433-0.033,0.605-0.099c0.172-0.065,0.323-0.155,0.45-0.271l0.267,0.441
			c-0.133,0.135-0.311,0.242-0.527,0.331C88.777,49.424,88.514,49.468,88.203,49.468z M88.1,46.122
			c-0.229,0-0.424,0.099-0.584,0.288c-0.162,0.189-0.262,0.433-0.298,0.722l0.007,0.019h1.726v-0.09
			c0-0.268-0.071-0.488-0.216-0.668C88.592,46.212,88.38,46.122,88.1,46.122z"/>
		<path fill="#404041" d="M93.586,47.667c0,0.539-0.129,0.976-0.389,1.306c-0.262,0.329-0.616,0.495-1.069,0.495
			c-0.246,0-0.461-0.048-0.644-0.144c-0.182-0.098-0.334-0.236-0.452-0.424l-0.083,0.494h-0.557v-5.393h0.682v2.096
			c0.117-0.166,0.265-0.293,0.438-0.379c0.174-0.09,0.377-0.133,0.609-0.133c0.46,0,0.818,0.186,1.078,0.553
			c0.258,0.369,0.387,0.854,0.387,1.455V47.667L93.586,47.667z M92.906,47.596c0-0.43-0.079-0.777-0.236-1.05
			c-0.156-0.272-0.396-0.405-0.721-0.405c-0.211,0-0.389,0.053-0.53,0.153c-0.146,0.104-0.259,0.24-0.345,0.413v1.62
			c0.088,0.187,0.201,0.327,0.345,0.433c0.144,0.104,0.319,0.155,0.537,0.155c0.319,0,0.562-0.114,0.715-0.343
			c0.157-0.229,0.235-0.529,0.235-0.905V47.596z"/>
		<path fill="#404041" d="M98.475,49.396c-0.023-0.113-0.041-0.213-0.056-0.299c-0.013-0.089-0.021-0.176-0.021-0.264
			c-0.127,0.182-0.293,0.33-0.496,0.451s-0.424,0.182-0.658,0.182c-0.389,0-0.686-0.1-0.891-0.299
			c-0.203-0.197-0.307-0.477-0.307-0.822c0-0.357,0.145-0.639,0.436-0.841c0.287-0.198,0.681-0.302,1.177-0.302h0.739v-0.37
			c0-0.219-0.066-0.394-0.2-0.521c-0.134-0.129-0.323-0.191-0.567-0.191c-0.219,0-0.396,0.059-0.533,0.168
			c-0.138,0.109-0.205,0.246-0.205,0.402h-0.648l-0.008-0.021c-0.014-0.271,0.113-0.521,0.386-0.746
			c0.271-0.226,0.621-0.339,1.049-0.339c0.425,0,0.767,0.105,1.022,0.323c0.259,0.215,0.388,0.524,0.388,0.931v1.803
			c0,0.133,0.007,0.262,0.021,0.387c0.015,0.125,0.039,0.246,0.076,0.367H98.475z M97.343,48.896c0.246,0,0.47-0.064,0.667-0.19
			s0.327-0.271,0.389-0.435v-0.605h-0.766c-0.273,0-0.492,0.068-0.656,0.206c-0.166,0.14-0.248,0.3-0.248,0.485
			c0,0.166,0.053,0.297,0.154,0.394C96.986,48.848,97.141,48.896,97.343,48.896z"/>
		<path fill="#404041" d="M99.917,47.596c0-0.603,0.132-1.087,0.396-1.455c0.264-0.367,0.625-0.554,1.088-0.554
			c0.238,0,0.445,0.048,0.627,0.146c0.18,0.096,0.328,0.231,0.447,0.412l0.084-0.486h0.543v3.76c0,0.479-0.142,0.848-0.418,1.104
			c-0.279,0.258-0.683,0.388-1.205,0.388c-0.183,0-0.375-0.024-0.584-0.074s-0.393-0.117-0.553-0.202l0.176-0.527
			c0.121,0.067,0.269,0.125,0.439,0.168s0.344,0.063,0.512,0.063c0.331,0,0.573-0.075,0.725-0.227
			c0.15-0.15,0.228-0.381,0.228-0.688v-0.422c-0.122,0.157-0.269,0.274-0.438,0.354c-0.17,0.078-0.364,0.119-0.588,0.119
			c-0.457,0-0.816-0.166-1.082-0.498c-0.262-0.332-0.394-0.768-0.394-1.305L99.917,47.596L99.917,47.596z M100.6,47.667
			c0,0.376,0.077,0.679,0.237,0.905c0.158,0.229,0.399,0.343,0.728,0.343c0.205,0,0.375-0.047,0.515-0.142
			c0.139-0.094,0.252-0.226,0.342-0.396v-1.721c-0.087-0.159-0.2-0.285-0.342-0.38c-0.142-0.094-0.31-0.141-0.509-0.141
			c-0.324,0-0.567,0.137-0.729,0.408c-0.159,0.271-0.241,0.621-0.241,1.047V47.667L100.6,47.667z"/>
		<path fill="#404041" d="M105.641,49.468c-0.521,0-0.936-0.173-1.242-0.521c-0.309-0.348-0.461-0.797-0.461-1.352v-0.15
			c0-0.531,0.158-0.977,0.476-1.328s0.69-0.53,1.125-0.53c0.504,0,0.886,0.152,1.144,0.456c0.258,0.305,0.387,0.709,0.387,1.218
			v0.425h-2.426l-0.01,0.018c0.008,0.359,0.1,0.652,0.273,0.885c0.175,0.23,0.419,0.346,0.734,0.346
			c0.229,0,0.434-0.033,0.605-0.099s0.322-0.155,0.449-0.271l0.269,0.441c-0.134,0.135-0.312,0.242-0.528,0.331
			C106.216,49.424,105.952,49.468,105.641,49.468z M105.537,46.122c-0.229,0-0.423,0.099-0.584,0.288s-0.262,0.433-0.297,0.722
			l0.007,0.019h1.726v-0.09c0-0.268-0.072-0.488-0.216-0.668C106.029,46.212,105.816,46.122,105.537,46.122z"/>
		<path fill="#404041" d="M108.438,45.656l0.049,0.557c0.125-0.197,0.281-0.354,0.47-0.462s0.399-0.164,0.642-0.164
			c0.402,0,0.717,0.118,0.938,0.354c0.221,0.234,0.331,0.602,0.331,1.094v2.361h-0.683v-2.35c0-0.329-0.063-0.563-0.193-0.699
			c-0.131-0.14-0.328-0.207-0.598-0.207c-0.193,0-0.369,0.047-0.521,0.142c-0.149,0.095-0.271,0.224-0.36,0.387v2.728h-0.682v-3.737
			L108.438,45.656L108.438,45.656z"/>
		<path fill="#404041" d="M113.375,48.934c0.227,0,0.424-0.069,0.598-0.209c0.172-0.141,0.256-0.313,0.256-0.515h0.611l0.008,0.021
			c0.012,0.322-0.133,0.608-0.432,0.859c-0.298,0.251-0.646,0.377-1.041,0.377c-0.544,0-0.96-0.178-1.248-0.531
			c-0.288-0.354-0.434-0.802-0.434-1.338v-0.146c0-0.532,0.146-0.978,0.435-1.332c0.29-0.356,0.706-0.534,1.247-0.534
			c0.438,0,0.795,0.129,1.072,0.387s0.41,0.575,0.402,0.95l-0.008,0.021h-0.615c0-0.229-0.08-0.422-0.242-0.582
			c-0.16-0.159-0.363-0.239-0.609-0.239c-0.355,0-0.611,0.129-0.768,0.385c-0.151,0.259-0.229,0.571-0.229,0.944v0.146
			c0,0.383,0.075,0.698,0.229,0.953C112.759,48.807,113.016,48.934,113.375,48.934z"/>
		<path fill="#404041" d="M116.754,48.009l0.12,0.472h0.021l0.918-2.822h0.758l-1.572,4.313c-0.096,0.252-0.229,0.471-0.405,0.656
			c-0.177,0.188-0.413,0.28-0.714,0.28c-0.055,0-0.126-0.007-0.21-0.021c-0.086-0.013-0.151-0.022-0.196-0.034l0.067-0.535
			c-0.015-0.002,0.026,0,0.123,0.007c0.096,0.007,0.155,0.01,0.183,0.01c0.146,0,0.264-0.063,0.354-0.192
			c0.093-0.13,0.17-0.271,0.229-0.43l0.164-0.391l-1.391-3.662h0.76L116.754,48.009z"/>
	</g>
</g>
</svg>
