<?xml version="1.0" encoding="utf-8"?>
<!-- Generator: Adobe Illustrator 16.0.0, SVG Export Plug-In . SVG Version: 6.00 Build 0)  -->
<!DOCTYPE svg PUBLIC "-//W3C//DTD SVG 1.1//EN" "http://www.w3.org/Graphics/SVG/1.1/DTD/svg11.dtd">
<svg version="1.1" id="Layer_1" xmlns="http://www.w3.org/2000/svg" xmlns:xlink="http://www.w3.org/1999/xlink" x="0px" y="0px"
	 width="92.667px" height="68px" viewBox="0 0 92.667 68" enable-background="new 0 0 92.667 68" xml:space="preserve">
<g>
	<path fill="#58585B" d="M1.847,42.828V25.121h3.071c1.348,0,2.317,0.064,2.915,0.193c0.597,0.128,1.104,0.351,1.523,0.665
		c0.588,0.443,1.036,0.986,1.344,1.627c0.307,0.641,0.459,1.349,0.459,2.122c0,0.943-0.246,1.746-0.738,2.407
		c-0.491,0.661-1.17,1.097-2.031,1.307c1.136,0.169,2.027,0.625,2.672,1.367c0.646,0.74,0.968,1.681,0.968,2.816
		c0,0.83-0.125,1.568-0.375,2.215c-0.25,0.645-0.628,1.201-1.136,1.668c-0.517,0.484-1.138,0.824-1.863,1.021
		s-1.964,0.297-3.714,0.297H1.847V42.828z M3.456,32.994h2.008c1.477,0,2.519-0.242,3.127-0.726c0.608-0.483,0.913-1.29,0.913-2.419
		c0-1.218-0.296-2.076-0.89-2.576s-1.645-0.75-3.15-0.75H3.456V32.994z M3.456,41.438h2.057c1.168,0,1.976-0.049,2.419-0.146
		c0.442-0.1,0.817-0.264,1.125-0.496c0.379-0.291,0.682-0.689,0.906-1.203c0.227-0.512,0.339-1.059,0.339-1.639
		c0-0.709-0.125-1.332-0.375-1.869s-0.597-0.938-1.039-1.203C8.58,34.703,8.218,34.576,7.804,34.5
		c-0.415-0.075-1.063-0.113-1.941-0.113H5.512H3.456V41.438z"/>
	<path fill="#58585B" d="M15.55,42.828V25.121h8.77v1.512h-7.16v5.539h7.16v1.512h-7.16v7.632h7.16v1.515h-8.77V42.828z"/>
	<path fill="#58585B" d="M26.91,39.854l1.379-0.737c0.258,0.87,0.703,1.547,1.336,2.024c0.633,0.479,1.394,0.721,2.279,0.721
		c1.121,0,1.995-0.329,2.625-0.993c0.631-0.662,0.944-1.576,0.944-2.744c0-0.854-0.211-1.563-0.636-2.131
		c-0.422-0.563-1.332-1.216-2.728-1.958c-1.78-0.943-2.967-1.774-3.556-2.491c-0.588-0.718-0.883-1.58-0.883-2.589
		c0-1.258,0.425-2.281,1.273-3.072c0.852-0.79,1.954-1.185,3.311-1.185c0.887,0,1.658,0.187,2.314,0.562
		c0.658,0.376,1.191,0.938,1.604,1.688l-1.244,0.75c-0.26-0.508-0.623-0.896-1.096-1.161c-0.473-0.265-1.029-0.399-1.674-0.399
		c-0.871,0-1.564,0.257-2.082,0.769c-0.518,0.512-0.773,1.203-0.773,2.074c0,1.242,1.023,2.399,3.072,3.471
		c0.371,0.194,0.651,0.344,0.847,0.448c1.508,0.831,2.517,1.616,3.022,2.354c0.508,0.738,0.762,1.693,0.762,2.871
		c0,1.59-0.463,2.85-1.391,3.781c-0.928,0.931-2.188,1.396-3.785,1.396c-1.162,0-2.156-0.288-2.981-0.862
		C28.022,41.857,27.376,40.998,26.91,39.854z"/>
	<path fill="#58585B" d="M43.746,42.828V26.632h-4.873V25.12h11.369v1.512h-4.888v16.196H43.746z"/>
	<path fill="#58585B" d="M66.257,28.361c-0.881-0.758-1.777-1.318-2.699-1.681c-0.92-0.363-1.887-0.545-2.902-0.545
		c-2.291,0-4.15,0.727-5.58,2.178c-1.434,1.451-2.148,3.342-2.148,5.673c0,1.17,0.179,2.221,0.527,3.157
		c0.353,0.938,0.885,1.766,1.604,2.491c0.709,0.709,1.521,1.25,2.438,1.621s1.896,0.556,2.945,0.556
		c1.018,0,2.006-0.172,2.977-0.521c0.969-0.347,1.883-0.856,2.746-1.535v1.888c-0.871,0.532-1.793,0.94-2.766,1.229
		c-0.971,0.285-1.934,0.431-2.885,0.431c-1.283,0-2.508-0.23-3.678-0.688c-1.168-0.461-2.172-1.105-3.013-1.938
		c-0.86-0.854-1.516-1.848-1.959-2.977c-0.44-1.13-0.663-2.365-0.663-3.714c0-1.322,0.229-2.557,0.684-3.701
		c0.457-1.146,1.111-2.134,1.967-2.964c0.828-0.814,1.832-1.451,3.006-1.911c1.172-0.46,2.395-0.689,3.658-0.689
		c1.129,0,2.176,0.155,3.141,0.465c0.965,0.311,1.842,0.776,2.631,1.397L66.257,28.361z"/>
	<path fill="#58585B" d="M68.384,39.854l1.381-0.737c0.258,0.87,0.703,1.547,1.336,2.024c0.633,0.479,1.395,0.721,2.279,0.721
		c1.121,0,1.996-0.329,2.625-0.993c0.629-0.658,0.942-1.576,0.942-2.744c0-0.854-0.213-1.563-0.635-2.131
		c-0.424-0.563-1.332-1.216-2.728-1.958c-1.783-0.943-2.969-1.774-3.561-2.491c-0.588-0.718-0.881-1.58-0.881-2.589
		c0-1.258,0.426-2.281,1.275-3.072c0.852-0.79,1.953-1.185,3.307-1.185c0.891,0,1.662,0.187,2.318,0.562
		c0.656,0.376,1.188,0.938,1.604,1.688l-1.244,0.75c-0.26-0.508-0.625-0.896-1.098-1.161c-0.471-0.266-1.029-0.399-1.674-0.399
		c-0.871,0-1.564,0.257-2.08,0.769c-0.52,0.512-0.775,1.203-0.775,2.074c0,1.242,1.023,2.399,3.072,3.471
		c0.371,0.194,0.654,0.344,0.848,0.448c1.51,0.831,2.518,1.616,3.023,2.354c0.508,0.738,0.764,1.693,0.764,2.871
		c0,1.59-0.465,2.85-1.391,3.781c-0.928,0.932-2.191,1.396-3.787,1.396c-1.16,0-2.154-0.288-2.979-0.862
		C69.5,41.857,68.853,40.998,68.384,39.854z"/>
	<path fill="#58585B" d="M80.722,39.854l1.379-0.737c0.26,0.87,0.703,1.547,1.336,2.024c0.633,0.479,1.395,0.721,2.281,0.721
		c1.119,0,1.996-0.329,2.623-0.993c0.629-0.658,0.943-1.576,0.943-2.744c0-0.854-0.212-1.563-0.634-2.131
		c-0.426-0.563-1.334-1.216-2.729-1.958c-1.781-0.943-2.969-1.774-3.558-2.491c-0.588-0.718-0.883-1.58-0.883-2.589
		c0-1.258,0.427-2.281,1.274-3.072c0.853-0.79,1.955-1.185,3.31-1.185c0.888,0,1.66,0.187,2.315,0.562
		c0.656,0.376,1.191,0.938,1.604,1.688l-1.246,0.75c-0.258-0.508-0.622-0.896-1.096-1.161c-0.472-0.266-1.029-0.399-1.675-0.399
		c-0.87,0-1.563,0.257-2.079,0.769c-0.519,0.512-0.775,1.203-0.775,2.074c0,1.242,1.022,2.399,3.072,3.471
		c0.371,0.194,0.653,0.344,0.849,0.448c1.508,0.831,2.516,1.616,3.022,2.354c0.51,0.738,0.764,1.693,0.764,2.871
		c0,1.59-0.463,2.85-1.391,3.781c-0.929,0.931-2.188,1.396-3.787,1.396c-1.16,0-2.154-0.288-2.979-0.862
		C81.837,41.857,81.19,40.998,80.722,39.854z"/>
</g>
</svg>
