<?xml version="1.0" encoding="utf-8"?>
<!-- Generator: Adobe Illustrator 16.0.0, SVG Export Plug-In . SVG Version: 6.00 Build 0)  -->
<!DOCTYPE svg PUBLIC "-//W3C//DTD SVG 1.1//EN" "http://www.w3.org/Graphics/SVG/1.1/DTD/svg11.dtd">
<svg version="1.1" id="Layer_1" xmlns="http://www.w3.org/2000/svg" xmlns:xlink="http://www.w3.org/1999/xlink" x="0px" y="0px"
	 width="12px" height="19px" viewBox="0 0 12 19" style="enable-background:new 0 0 12 19;" xml:space="preserve">
<style type="text/css">
<![CDATA[
	.st0{fill:#FFCB0B;}
]]>
</style>
<g>
	<path class="st0" d="M1.488,16.465c-0.32,0.304-0.32,0.795,0,1.1c0.16,0.151,0.369,0.227,0.581,0.227
		c0.209,0,0.419-0.075,0.58-0.227l7.871-7.459c0.177-0.169,0.247-0.393,0.228-0.612c0.018-0.218-0.051-0.442-0.229-0.61l-7.87-7.46
		c-0.32-0.303-0.84-0.303-1.161,0c-0.32,0.303-0.32,0.797,0,1.099l7.355,6.971L1.488,16.465z"/>
	<path class="st0" d="M0.96,18.066c-0.299-0.28-0.46-0.655-0.46-1.051c0-0.398,0.164-0.772,0.46-1.052l6.827-6.47L0.963,3.026
		c-0.299-0.28-0.462-0.653-0.462-1.05c0-0.399,0.163-0.774,0.459-1.053C1.55,0.36,2.583,0.36,3.18,0.922l7.867,7.457
		c0.322,0.302,0.482,0.729,0.447,1.056c0.037,0.439-0.124,0.865-0.443,1.171L3.18,18.066C2.885,18.349,2.488,18.5,2.07,18.5
		C1.648,18.5,1.254,18.345,0.96,18.066z M9.902,9.494l-7.879,7.571c0.012,0.013,0.026,0.018,0.049,0.018l7.932-7.532L9.988,9.44
		l0.004-0.057L2.02,2.021L9.902,9.494z"/>
</g>
</svg>
