<?xml version="1.0" encoding="utf-8"?>
<!-- Generator: Adobe Illustrator 16.0.0, SVG Export Plug-In . SVG Version: 6.00 Build 0)  -->
<!DOCTYPE svg PUBLIC "-//W3C//DTD SVG 1.1//EN" "http://www.w3.org/Graphics/SVG/1.1/DTD/svg11.dtd">
<svg version="1.1" id="Layer_1" xmlns="http://www.w3.org/2000/svg" xmlns:xlink="http://www.w3.org/1999/xlink" x="0px" y="0px"
	 width="27px" height="27px" viewBox="3.321 3.871 27 27" enable-background="new 3.321 3.871 27 27" xml:space="preserve">
<path fill="#414042" d="M16.822,5.006C9.92,5.006,4.32,10.607,4.32,17.505c0,6.9,5.6,12.5,12.501,12.5c6.898,0,12.5-5.6,12.5-12.5
	C29.322,10.607,23.72,5.006,16.822,5.006z M20.121,17.505h-2.199c0,3.5,0,7.701,0,7.701h-3.201c0,0,0-4.201,0-7.701h-1.5v-2.698h1.5
	v-1.802c0-1.299,0.599-3.199,3.201-3.199h2.4v2.6c0,0-1.4,0-1.701,0c-0.299,0-0.699,0.1-0.699,0.701v1.599h2.4L20.121,17.505z"/>
</svg>
