<?xml version="1.0" encoding="utf-8"?>
<!-- Generator: Adobe Illustrator 16.0.0, SVG Export Plug-In . SVG Version: 6.00 Build 0)  -->
<!DOCTYPE svg PUBLIC "-//W3C//DTD SVG 1.1//EN" "http://www.w3.org/Graphics/SVG/1.1/DTD/svg11.dtd">
<svg version="1.1" id="Layer_1" xmlns="http://www.w3.org/2000/svg" xmlns:xlink="http://www.w3.org/1999/xlink" x="0px" y="0px"
	 width="99px" height="99px" viewBox="0 0 99 99" enable-background="new 0 0 99 99" xml:space="preserve">
<g>
	<path fill="#404041" d="M39.3,37.7l0.9-3.4c0.1-0.3,0.3-0.6,0.6-0.6h18.9l-0.2-1c-0.1-0.3-0.3-0.6-0.6-0.6H39.5
		c-0.4,0-0.5,0.3-0.7,0.6l-1.3,5H39.3z"/>
	<path fill="#404041" d="M61,32.1l1.4,5.4h3l-4.586-5.87C60.883,31.782,60.946,31.938,61,32.1z"/>
	<path fill="#404041" d="M62.5,44c0,1.6,1.3,3,3,3s3-1.4,3-3s-1.3-3-3-3C63.9,41,62.5,42.3,62.5,44z"/>
	<path fill="#404041" d="M73.3,40.54c0.063,0.276,0.101,0.563,0.101,0.86V65c0,2.1-1.7,3.9-3.9,3.9h-0.2H29.1
		c-0.22,0-0.436-0.027-0.648-0.065c-0.079-0.013-0.156-0.028-0.233-0.046c-0.125-0.031-0.247-0.07-0.368-0.113
		c-0.192-0.065-0.375-0.146-0.554-0.24c-0.013-0.007-0.025-0.014-0.038-0.021c-0.519-0.28-0.975-0.666-1.321-1.146L43.1,98.6
		c2.1,0.301,4.2,0.4,6.3,0.4c18.8,0,35-10.4,43.4-25.7L73.3,40.54z"/>
	<path fill="#404041" d="M49.3,65.5c6.8,0,12.3-5.5,12.3-12.3c0-6.8-5.5-12.3-12.3-12.3S37,46.4,37,53.2C37,60,42.5,65.5,49.3,65.5z
		 M49.3,44.5c4.8,0,8.7,3.9,8.7,8.7c0,4.8-3.9,8.7-8.7,8.7s-8.7-3.9-8.7-8.7C40.6,48.4,44.5,44.5,49.3,44.5z"/>
</g>
</svg>
