<?xml version="1.0" encoding="utf-8"?>
<!-- Generator: Adobe Illustrator 16.0.0, SVG Export Plug-In . SVG Version: 6.00 Build 0)  -->
<!DOCTYPE svg PUBLIC "-//W3C//DTD SVG 1.1//EN" "http://www.w3.org/Graphics/SVG/1.1/DTD/svg11.dtd">
<svg version="1.1" id="Layer_1" xmlns="http://www.w3.org/2000/svg" xmlns:xlink="http://www.w3.org/1999/xlink" x="0px" y="0px"
	 width="99px" height="99px" viewBox="0 0 99 99" style="enable-background:new 0 0 99 99;" xml:space="preserve">
<style type="text/css">
<![CDATA[
	.st0{fill-rule:evenodd;clip-rule:evenodd;fill:#404041;}
	.st1{fill-rule:evenodd;clip-rule:evenodd;fill:#FFCB05;}
]]>
</style>
<path class="st0" d="M65.5,47c-1.7,0-3-1.4-3-3c0-1.7,1.4-3,3-3c1.7,0,3,1.4,3,3C68.5,45.6,67.2,47,65.5,47 M49.3,65.5
	c-6.8,0-12.3-5.5-12.3-12.3s5.5-12.3,12.3-12.3s12.3,5.5,12.3,12.3S56.1,65.5,49.3,65.5z M49.3,61.9c-4.8,0-8.7-3.9-8.7-8.7
	c0-4.8,3.9-8.7,8.7-8.7c4.8,0,8.7,3.9,8.7,8.7C58,58,54.1,61.9,49.3,61.9z M39.5,32.1h19.4c0.3,0,0.5,0.3,0.6,0.6l0.2,1H40.8
	c-0.3,0-0.5,0.3-0.6,0.6l-0.9,3.4h-1.8l1.3-5C39,32.4,39.1,32.1,39.5,32.1z M65.4,37.5l-5-6.4c0.2,0.3,0.4,0.6,0.5,1l1.4,5.4H65.4z
	 M92.8,73.3l-20-33.6c0.3,0.5,0.4,1.1,0.4,1.8V65c0,2.1-1.7,3.9-3.9,3.9H29.1c-1.3,0-2.5-0.7-3.2-1.7l17.2,31.4
	c2.1,0.3,4.2,0.4,6.3,0.4C68.2,99,84.4,88.6,92.8,73.3z"/>
<g>
	<defs>
		<path id="SVGID_1_" d="M78.4,33.1L78.4,33.1z"/>
	</defs>
	<clipPath id="SVGID_2_">
		<use xlink:href="#SVGID_1_"  style="overflow:visible;"/>
	</clipPath>
</g>
<path class="st1" d="M65.5,47c-1.7,0-3-1.4-3-3c0-1.7,1.4-3,3-3c1.7,0,3,1.4,3,3C68.5,45.6,67.2,47,65.5,47 M49.3,65.5
	c-6.8,0-12.3-5.5-12.3-12.3s5.5-12.3,12.3-12.3s12.3,5.5,12.3,12.3S56.1,65.5,49.3,65.5z M49.3,61.9c-4.8,0-8.7-3.9-8.7-8.7
	c0-4.8,3.9-8.7,8.7-8.7c4.8,0,8.7,3.9,8.7,8.7C58,58,54.1,61.9,49.3,61.9z M39.5,32.1h19.4c0.3,0,0.5,0.3,0.6,0.6l0.2,1H40.8
	c-0.3,0-0.5,0.3-0.6,0.6l-0.9,3.4h-1.8l1.3-5C39,32.4,39.1,32.1,39.5,32.1z M29.1,37.5h7.1l1.4-5.4c0.2-0.9,0.7-1.7,1.7-1.7h20
	c0.9,0,1.4,0.8,1.7,1.7l1.4,5.4h7.1c2.1,0,3.9,1.7,3.9,3.9V65c0,2.1-1.7,3.9-3.9,3.9H29.1c-2.1,0-3.9-1.7-3.9-3.9V41.4
	C25.3,39.3,27,37.5,29.1,37.5z"/>
</svg>
