<?xml version="1.0" encoding="utf-8"?>
<!-- Generator: Adobe Illustrator 16.0.0, SVG Export Plug-In . SVG Version: 6.00 Build 0)  -->
<!DOCTYPE svg PUBLIC "-//W3C//DTD SVG 1.1//EN" "http://www.w3.org/Graphics/SVG/1.1/DTD/svg11.dtd">
<svg version="1.1" id="Layer_1" xmlns="http://www.w3.org/2000/svg" xmlns:xlink="http://www.w3.org/1999/xlink" x="0px" y="0px"
	 width="170px" height="170px" viewBox="0 0 170 170" enable-background="new 0 0 170 170" xml:space="preserve">
<polygon fill="#E0AA00" points="52.282,91.482 72.5,123.75 89.75,123.75 86.167,105.083 54.083,90 "/>
<polygon fill="#E0AA00" points="56.162,171.732 56.163,171.732 56.162,171.73 "/>
<path fill="#E0AA00" d="M77.334,50.516c-10.441-0.311-17.443,10.183-15.642,23.896c1.802,13.711,11.727,25.082,22.171,25.393
	c10.438,0.313,17.442-10.548,15.641-24.261C97.699,61.833,87.771,50.829,77.334,50.516z"/>
<path fill="#E0AA00" d="M162.406,107.257L122.93,45.1l-9.07,8.202h-12.851c8.522,2.05,13.063,12.232,13.063,22.428
	c0,8.565-4.741,14.943-11.446,20.18c-6.536,5.109-7.778,7.251-7.778,11.596c0,3.706,7.004,10.014,10.67,12.607
	c10.705,7.57,14.172,14.602,14.17,26.34c0,5.207-1.797,10.4-5.262,14.938C137.906,152.093,155.943,132.021,162.406,107.257z"/>
<path fill="#E0AA00" d="M92.557,128.043c-3.07-0.994-6.453-1.576-10.083-1.617c-15.554-0.168-29.491,9.482-29.491,21.076
	c0,6.252,3.14,11.949,8.394,15.933c7.467,2.305,15.399,3.55,23.623,3.55c4.488,0,8.884-0.388,13.17-1.098
	c7.971-3.709,11.098-10.213,11.098-17.779c0-1.426-0.176-2.822-0.498-4.182C107.063,137.232,101.004,133.914,92.557,128.043z"/>
<path fill="#404041" d="M122.93,45.1c0,0-30.397,0-40.532,0c-18.17,0-35.271,13.604-35.271,29.552
	c0,16.293,12.387,29.368,30.871,29.368c1.285,0,2.533-0.065,3.759-0.153c-1.2,2.296-2.059,4.864-2.059,7.548
	c0,4.527,2.435,8.189,5.514,11.188c-2.327,0-4.574,0.063-7.026,0.063c-22.505,0-39.83,14.33-39.83,29.194
	c0,0.041,0.006,0.08,0.006,0.121c6.937,4.987,14.694,8.904,23.045,11.479c-5.274-3.984-8.426-9.691-8.426-15.957
	c0-11.594,13.937-21.244,29.491-21.076c3.629,0.041,7.012,0.623,10.083,1.617c8.447,5.871,14.506,9.189,16.213,15.883
	c0.322,1.358,0.498,2.756,0.498,4.182c0,7.586-3.143,14.103-11.154,17.806c5.662-0.935,11.117-2.466,16.313-4.522
	c3.465-4.535,5.262-9.729,5.262-14.937c0.002-11.738-3.465-18.771-14.17-26.341c-3.666-2.594-10.67-8.9-10.67-12.606
	c0-4.345,1.242-6.485,7.778-11.596c6.705-5.236,11.446-11.615,11.446-20.18c0-10.196-4.541-20.378-13.063-22.428h12.851L122.93,45.1
	z M83.863,99.805c-10.444-0.312-20.369-11.682-22.171-25.393c-1.802-13.713,5.2-24.207,15.642-23.896
	c10.438,0.313,20.365,11.317,22.17,25.028C101.305,89.257,94.302,100.118,83.863,99.805z"/>
</svg>
