<?xml version="1.0" encoding="utf-8"?>
<!-- Generator: Adobe Illustrator 16.0.0, SVG Export Plug-In . SVG Version: 6.00 Build 0)  -->
<!DOCTYPE svg PUBLIC "-//W3C//DTD SVG 1.1//EN" "http://www.w3.org/Graphics/SVG/1.1/DTD/svg11.dtd">
<svg version="1.1" id="Layer_1" xmlns="http://www.w3.org/2000/svg" xmlns:xlink="http://www.w3.org/1999/xlink" x="0px" y="0px"
	 width="27px" height="27px" viewBox="-0.25 0 27 27" enable-background="new -0.25 0 27 27" xml:space="preserve">
<g>
	<path fill="#414042" d="M11.45,19.8c-0.2,0-0.4,0-0.7,0s-1.8,0.101-3.1,0.5c-0.6,0.2-2.4,0.9-2.5,2.8c2.2,1.801,5,2.9,8.1,2.9h0.1
		c0.801-0.6,1.2-1.4,1.2-2.3C14.55,22.2,13.65,21.4,11.45,19.8z"/>
	<path fill="#414042" d="M13.55,11.8c0-2.1-1.2-5.399-3.7-5.399c-0.8,0-1.6,0.399-2,1C7.35,8,7.25,8.8,7.25,9.6c0,2,1.1,5.2,3.6,5.2
		c0.7,0,1.5-0.399,2-0.8C13.45,13.2,13.55,12.3,13.55,11.8z"/>
	<path fill="#414042" d="M25.25,10.1h-3V13.4h-1.4V10.1h-3.3V8.7h3.3V5.4h1.4v3.3h2.5c-1.9-4.5-6.3-7.7-11.6-7.7
		c-6.8,0-12.4,5.6-12.4,12.5c0,3,1.1,5.8,2.8,7.9c0.3-0.4,0.7-0.801,1.3-1.101c1.8-1.1,4.3-1.3,5.6-1.3c-0.4-0.5-0.9-1.1-0.9-2
		c0-0.5,0.1-0.8,0.3-1.1c-0.3,0-0.6,0.1-0.9,0.1c-3.1,0-4.8-2.3-4.8-4.6c0-1.301,0.6-2.801,1.9-3.9c1.7-1.4,3.6-1.6,5.2-1.6h6
		l-1.9,1h-1.8C14.25,7.5,15.65,8.6,15.65,10.8s-1.2,3.2-2.4,4.101c-0.4,0.399-0.8,0.8-0.8,1.399c0,0.601,0.399,1,0.8,1.3l1,0.801
		c1.3,1.1,2.5,2.1,2.5,4.1c0,1.2-0.5,2.4-1.4,3.3c5.801-0.8,10.4-6,10.4-12.3C25.75,12.3,25.55,11.2,25.25,10.1z"/>
</g>
</svg>
