<?xml version="1.0" encoding="utf-8"?>
<!-- Generator: Adobe Illustrator 16.0.0, SVG Export Plug-In . SVG Version: 6.00 Build 0)  -->
<!DOCTYPE svg PUBLIC "-//W3C//DTD SVG 1.1//EN" "http://www.w3.org/Graphics/SVG/1.1/DTD/svg11.dtd">
<svg version="1.1" id="Layer_1" xmlns="http://www.w3.org/2000/svg" xmlns:xlink="http://www.w3.org/1999/xlink" x="0px" y="0px"
	 width="170px" height="170px" viewBox="0 0 170 170" enable-background="new 0 0 170 170" xml:space="preserve">
<polygon fill="#E0AA00" points="56.162,171.732 56.163,171.732 56.162,171.731 "/>
<path fill="#E0AA00" d="M77.334,50.516c-10.441-0.311-17.443,10.183-15.642,23.896c1.802,13.711,11.727,25.082,22.171,25.393
	c10.438,0.313,17.441-10.548,15.641-24.261C97.699,61.833,87.772,50.829,77.334,50.516z"/>
<path fill="#E0AA00" d="M92.557,128.043c-3.07-0.994-6.453-1.576-10.083-1.617c-15.554-0.168-29.491,9.482-29.491,21.076
	c0,6.231,3.12,11.91,8.343,15.892c7.482,2.315,15.433,3.564,23.675,3.564c4.52,0,8.945-0.394,13.26-1.114
	c7.904-3.715,11.008-10.198,11.007-17.736c0-1.427-0.175-2.823-0.497-4.182C107.062,137.233,101.004,133.914,92.557,128.043z"/>
<path fill="none" d="M99.504,75.543c-1.805-13.711-11.731-24.714-22.17-25.028c-10.441-0.311-17.443,10.183-15.642,23.896
	c1.802,13.711,11.727,25.082,22.171,25.393C94.302,100.118,101.305,89.257,99.504,75.543z"/>
<path fill="#E0AA00" d="M85.213,122.602c-3.08-2.998-5.514-6.66-5.514-11.188c0-2.684,0.858-5.252,2.059-7.548
	c-1.226,0.088-2.474,0.153-3.759,0.153c-11.364,0-20.417-4.946-25.711-12.54l-0.005,0.005l19.765,31.543
	c1.996-0.237,4.045-0.362,6.14-0.362C80.639,122.664,82.886,122.602,85.213,122.602z"/>
<path fill="#E0AA00" d="M122.93,45.1l-9.07,8.202h-12.851c8.522,2.05,13.063,12.232,13.063,22.428
	c0,8.565-4.741,14.943-11.446,20.18c-6.536,5.11-7.778,7.251-7.778,11.596c0,3.706,7.004,10.013,10.669,12.607
	c10.706,7.57,14.173,14.602,14.17,26.34c0,5.207-1.796,10.401-5.261,14.937c23.481-9.297,41.519-29.368,47.981-54.133L122.93,45.1z"
	/>
</svg>
