<?xml version="1.0" encoding="utf-8"?>
<!-- Generator: Adobe Illustrator 16.0.0, SVG Export Plug-In . SVG Version: 6.00 Build 0)  -->
<!DOCTYPE svg PUBLIC "-//W3C//DTD SVG 1.1//EN" "http://www.w3.org/Graphics/SVG/1.1/DTD/svg11.dtd">
<svg version="1.1" id="Layer_1" xmlns="http://www.w3.org/2000/svg" xmlns:xlink="http://www.w3.org/1999/xlink" x="0px" y="0px"
	 width="160px" height="160px" viewBox="5 5 160 160" enable-background="new 5 5 160 160" xml:space="preserve">
<path fill="#E0AA00" d="M139.3,57.3l-0.043-0.043c0.066,0.274,0.067,0.537-0.057,0.744l-16.5,28.6l-2,0.102l17.652-30.348
	L138.3,56.3l-0.363-0.636L137.9,55.7l-17.7,30.6l-1.3-2.5l16.805-28.963L135.6,54.8l-0.447-0.716L118.3,83.5l-2.8,0.2l17.455-30.374
	L132.8,53.2l-0.399-0.7l-0.111,0.175c0.037,0.011,0.073,0.013,0.111,0.025L114.8,83.3l-0.899-1.7l15.355-26.779L126.8,51.1h-0.028
	c0.328,0.531,0.528,1.145,0.528,1.8v2.4l-4.3,7.5V56c0-1.4-1.1-2.5-2.5-2.5H46.7c-1.4,0-2.5,1.1-2.5,2.5v37.4
	c0,1.398,1.1,2.5,2.5,2.5H120.6c1.4,0,2.5-1.102,2.5-2.5V88.6l4.301-7.5v25.2c0,1.9-1.601,3.5-3.5,3.5H43.4
	c-1.286,0-2.42-0.74-3.028-1.803L40.4,108.1l36.048,56.44C79.259,164.839,82.11,165,85,165c40.365,0,73.73-29.9,79.198-68.759
	L139.3,57.3z M112.1,95c0.101-1.1,0.101-2.2,0.199-3.4c0.901,0.4,1.801,0.9,2.602,1.5C113.9,93.8,113,94.4,112.1,95z M122,88.2
	c-0.2,0.1-2.4,1.7-5,3.5l-1.5,1c-0.9-0.7-2-1.4-3.1-1.8l0.1-1.801c0.2-3.101,0.5-5.801,0.6-6l0.301-0.6l1.101,2.2l2.899-0.2
	c0.5,0,1,0.3,1.199,0.7l1.301,2.6L122.3,87.6L122,88.2z M73.7,112.3H93.6l2.4,7.9H71.3L73.7,112.3z M103,124.3H64.4
	c-0.7,0-1.2-0.6-1.1-1.1c0-0.601,0.5-1.101,1.1-1.101H103c0.6,0,1.1,0.5,1.1,1.101C104.1,123.8,103.6,124.3,103,124.3z"/>
</svg>
