<?xml version="1.0" encoding="utf-8"?>
<!-- Generator: Adobe Illustrator 16.0.0, SVG Export Plug-In . SVG Version: 6.00 Build 0)  -->
<!DOCTYPE svg PUBLIC "-//W3C//DTD SVG 1.1//EN" "http://www.w3.org/Graphics/SVG/1.1/DTD/svg11.dtd">
<svg version="1.1" id="Layer_1" xmlns="http://www.w3.org/2000/svg" xmlns:xlink="http://www.w3.org/1999/xlink" x="0px" y="0px"
	 width="99px" height="99px" viewBox="0 0 99 99" enable-background="new 0 0 99 99" xml:space="preserve">
<path fill="#404041" d="M86.153,26.326c0.406,1.109,0.258,2.55-0.854,4.074l-17.7,21c-0.83,1.106-1.081,1.554-1.408,1.561
	c-0.289,0.09-0.588-0.209-1.392-0.761c-1.5-1.101-1.5-0.8-0.1-2.8L74,34.8l3.3-5.1l-1.448-1.666C75.943,28.274,76,28.531,76,28.8v1
	l-2.6,4.1v-0.416L73.2,33.8v-3.3c0-0.541-0.323-1.03-0.778-1.294C72.258,29.14,72.082,29.1,71.9,29.1H26.1c-0.8,0-1.5,0.7-1.5,1.5
	v23c0,0.801,0.7,1.5,1.5,1.5h31.5c-0.011,0.037-0.021,0.064-0.032,0.101H57.6C57.4,55.9,57.2,56.3,56.9,56.6
	C56.6,56.9,56,57,55,56.9c-0.5-0.101-1.1,0.199-1.3,0.8c-0.067,0.136-0.096,0.277-0.104,0.418c0.015,0.45,0.301,0.895,0.805,1.182
	c1.6,0.8,4,0.9,6.1,0.7c1.3-0.2,2.6-0.5,3.7-1c1.2-0.6,2.1-1.3,2.6-2.4c0.2-0.5,0.3-1,0.3-1.5H71.7c0.8,0,1.5-0.699,1.5-1.5v-7v-0.1
	l2.6-3.1v0.1v18.1V61.7c0,1.2-1,2.2-2.2,2.2H25.1h-0.8h-0.1c-0.678,0-1.284-0.325-1.69-0.819L44.2,98.7c2.1,0.3,3.4,0.3,5.6,0.3
	c9.9,0,19.3-2.9,27.4-8.3l0.1-0.101c3.7-2.5,7-5.399,9.8-8.8l0.101-0.2C94.6,73,99,61.9,99,49.7c0-0.6,0-1.1,0-1.7L86.153,26.326z
	 M54.9,58.3c3,0.3,3.5-0.899,4.3-4.1c1.1-4.101,6.3-1.601,6.6,1C66.2,58.7,58.4,59.8,54.9,58.3z M42.8,65.4h12.3l1.5,4.899H41.3
	L42.8,65.4z M60.8,72.8H37c-0.3,0-0.6-0.3-0.7-0.7c0-0.399,0.3-0.699,0.7-0.699h23.8c0.4,0,0.7,0.3,0.7,0.699
	C61.5,72.5,61.2,72.8,60.8,72.8z"/>
</svg>
