<?xml version="1.0" encoding="utf-8"?>
<!-- Generator: Adobe Illustrator 16.0.0, SVG Export Plug-In . SVG Version: 6.00 Build 0)  -->
<!DOCTYPE svg PUBLIC "-//W3C//DTD SVG 1.1//EN" "http://www.w3.org/Graphics/SVG/1.1/DTD/svg11.dtd">
<svg version="1.1" id="Layer_1" xmlns="http://www.w3.org/2000/svg" xmlns:xlink="http://www.w3.org/1999/xlink" x="0px" y="0px"
	 width="160px" height="160px" viewBox="5 5 160 160" enable-background="new 5 5 160 160" xml:space="preserve">
<path fill="#E0AA00" d="M164.198,96.241L139.3,57.3l-1-1l-0.399-0.7l-2.301-0.8l-0.5-0.8l-0.699,0.5l-1.601-1.3l-0.399-0.7
	l-2.301,3.6l-3.3-5h-2.1l-82.4,0.2L40.2,100l-0.3,6.3l0.5,1.8l36.048,56.44C79.259,164.839,82.11,165,85,165
	C125.365,165,158.73,135.1,164.198,96.241z"/>
<path fill="#3C3C3B" d="M64.4,124.3H103c0.6,0,1.1-0.5,1.1-1.1l0,0c0-0.601-0.5-1.101-1.1-1.101H64.4c-0.6,0-1.1,0.5-1.1,1.101l0,0
	C63.2,123.7,63.7,124.3,64.4,124.3 M93.6,112.3l2.4,7.9H71.3l2.4-7.9H93.6z M114.8,83.3l-0.899-1.7L130.3,53
	c0.3-0.5,1.2-0.6,2.101-0.3L114.8,83.3z M133.2,52.9l2,1.1l-16.9,29.5l-2.8,0.2L133.2,52.9L133.2,52.9z M114.9,93.1
	c-1,0.7-1.9,1.301-2.801,1.9c0.101-1.1,0.101-2.2,0.199-3.4C113.2,92,114.1,92.5,114.9,93.1z M117,91.7l-1.5,1
	c-0.9-0.7-2-1.4-3.1-1.8l0.1-1.801c0.2-3.101,0.5-5.801,0.6-6l0.301-0.6l1.101,2.2l2.899-0.2c0.5,0,1,0.3,1.199,0.7l1.301,2.6
	L122.3,87.6L122,88.2C121.8,88.3,119.6,89.9,117,91.7z M138.5,56.1c0.7,0.6,1,1.4,0.7,1.9l-16.5,28.6l-2,0.102L138.5,56.1z
	 M135.9,54.5l2,1.1h0.1l-0.1,0.1l-17.7,30.6l-1.3-2.5L135.9,54.5z M43.4,49.4h80.4c1.9,0,3.5,1.6,3.5,3.5v2.4l-4.3,7.5V56
	c0-1.4-1.1-2.5-2.5-2.5H46.7c-1.4,0-2.5,1.1-2.5,2.5v37.4c0,1.398,1.1,2.5,2.5,2.5H120.6c1.4,0,2.5-1.102,2.5-2.5V88.6l4.301-7.5
	v25.2c0,1.9-1.601,3.5-3.5,3.5H43.4c-1.9,0-3.5-1.6-3.5-3.5V52.9C39.9,51,41.5,49.4,43.4,49.4z"/>
</svg>
