<?xml version="1.0" encoding="utf-8"?>
<!-- Generator: Adobe Illustrator 16.0.0, SVG Export Plug-In . SVG Version: 6.00 Build 0)  -->
<!DOCTYPE svg PUBLIC "-//W3C//DTD SVG 1.1//EN" "http://www.w3.org/Graphics/SVG/1.1/DTD/svg11.dtd">
<svg version="1.1" id="Layer_1" xmlns="http://www.w3.org/2000/svg" xmlns:xlink="http://www.w3.org/1999/xlink" x="0px" y="0px"
	 width="99px" height="99px" viewBox="0 0 99 99" style="enable-background:new 0 0 99 99;" xml:space="preserve">
<style type="text/css">
<![CDATA[
	.st0{fill-rule:evenodd;clip-rule:evenodd;fill:#404041;}
	.st1{fill:#FFCB05;}
]]>
</style>
<path class="st0" d="M77.2,90.6L77.2,90.6l-0.2,0.1 M54.9,58.3c3,0.3,3.5-0.9,4.3-4.1c1.1-4.1,6.3-1.6,6.6,1
	C66.2,58.7,58.4,59.8,54.9,58.3z M37,72.8h23.8c0.4,0,0.7-0.3,0.7-0.7c0-0.4-0.3-0.7-0.7-0.7H37c-0.4,0-0.7,0.3-0.7,0.7
	C36.4,72.5,36.7,72.8,37,72.8z M55.1,65.4l1.5,4.9H41.3l1.5-4.9H55.1z M25.1,63.9h-0.8h0h-0.1c-0.7,0-1.4-0.4-1.8-1l21.8,35.8
	c2.1,0.3,3.4,0.3,5.6,0.3c9.9,0,19.3-2.9,27.4-8.3l0.1-0.1l0,0l0,0c3.7-2.5,7-5.4,9.8-8.8L87,82l0.1-0.2l0.1-0.2v0
	C94.6,73,99,61.9,99,49.7c0-0.6,0-1.1,0-1.7L85.9,25.9c0.6,1.2,0.6,2.8-0.7,4.5l-17.7,21c-1.5,2-1.1,1.9-2.7,0.8
	c-1.5-1.1-1.5-0.8-0.1-2.8l9.3-14.6l3.3-5.1l-2-2.3c0.3,0.4,0.5,0.8,0.5,1.3v1l-2.6,4.1v-3.3c0-0.8-0.7-1.5-1.5-1.5H26.1
	c-0.8,0-1.5,0.7-1.5,1.5v23.1c0,0.8,0.7,1.5,1.5,1.5h31.5c-0.2,0.7-0.4,1.1-0.7,1.4c-0.3,0.3-0.9,0.4-1.9,0.3
	c-0.5-0.1-1.1,0.2-1.3,0.8c-0.3,0.6,0,1.3,0.7,1.7c1.6,0.8,4,0.9,6.1,0.7c1.3-0.2,2.6-0.5,3.7-1c1.2-0.6,2.1-1.3,2.6-2.4
	c0.2-0.5,0.3-1,0.3-1.5h4.6c0.8,0,1.5-0.7,1.5-1.5v-7.1l2.6-3.1v18.2c0,1.2-1,2.2-2.2,2.2H25.1z"/>
<path class="st1" d="M54.9,58.3c3,0.3,3.5-0.9,4.3-4.1c1.1-4.1,6.3-1.6,6.6,1C66.2,58.7,58.4,59.8,54.9,58.3 M24.2,26.6h49.6
	c1.2,0,2.2,1,2.2,2.2v1l-2.6,4.1v-3.3c0-0.8-0.7-1.5-1.5-1.5H26.1c-0.8,0-1.5,0.7-1.5,1.5v23.1c0,0.8,0.7,1.5,1.5,1.5h31.5
	c-0.2,0.7-0.4,1.1-0.7,1.4c-0.3,0.3-0.9,0.4-1.9,0.3c-0.5-0.1-1.1,0.2-1.3,0.8c-0.3,0.6,0,1.3,0.7,1.7c1.6,0.8,4,0.9,6.1,0.7
	c1.3-0.2,2.6-0.5,3.7-1c1.2-0.6,2.1-1.3,2.6-2.4c0.2-0.5,0.3-1,0.3-1.5h4.6c0.8,0,1.5-0.7,1.5-1.5v-7.1l2.6-3.1v18.2
	c0,1.2-1,2.2-2.2,2.2H24.2c-1.2,0-2.2-1-2.2-2.2V28.8C22,27.6,23,26.6,24.2,26.6z M37,72.8h23.8c0.4,0,0.7-0.3,0.7-0.7
	c0-0.4-0.3-0.7-0.7-0.7H37c-0.4,0-0.7,0.3-0.7,0.7C36.4,72.5,36.7,72.8,37,72.8z M55.1,65.4l1.5,4.9H41.3l1.5-4.9H55.1z M64.8,49.4
	c-1.5,2-1.5,1.6,0.1,2.8c1.6,1.1,1.2,1.2,2.7-0.8l17.7-21c3.5-4.8-2.5-8.8-5.6-4.1l-5.5,8.6L64.8,49.4z"/>
</svg>
