<?xml version="1.0" encoding="utf-8"?>
<!-- Generator: Adobe Illustrator 16.0.0, SVG Export Plug-In . SVG Version: 6.00 Build 0)  -->
<!DOCTYPE svg PUBLIC "-//W3C//DTD SVG 1.1//EN" "http://www.w3.org/Graphics/SVG/1.1/DTD/svg11.dtd">
<svg version="1.1" id="Layer_1" xmlns="http://www.w3.org/2000/svg" xmlns:xlink="http://www.w3.org/1999/xlink" x="0px" y="0px"
	 width="99px" height="99px" viewBox="0 0 99 99" style="enable-background:new 0 0 99 99;" xml:space="preserve">
<style type="text/css">
<![CDATA[
	.st0{fill-rule:evenodd;clip-rule:evenodd;fill:#404041;}
	.st1{fill-rule:evenodd;clip-rule:evenodd;fill:#FFCB05;}
]]>
</style>
<path class="st0" d="M36.7,28.5h25.7c0.2,0,0.4,0.2,0.4,0.4v4.7c0,0.2-0.2,0.4-0.4,0.4H36.7c-0.2,0-0.4-0.2-0.4-0.4v-4.7
	C36.3,28.6,36.5,28.5,36.7,28.5 M36.7,37.3h25.7c0.2,0,0.4,0.2,0.4,0.4v4.7c0,0.2-0.2,0.4-0.4,0.4H36.7c-0.2,0-0.4-0.2-0.4-0.4v-4.7
	C36.3,37.5,36.5,37.3,36.7,37.3z M36.7,46.2h25.7c0.2,0,0.4,0.2,0.4,0.4v4.7c0,0.2-0.2,0.4-0.4,0.4H36.7c-0.2,0-0.4-0.2-0.4-0.4
	v-4.7C36.3,46.4,36.5,46.2,36.7,46.2z M49.6,56.5c1.7,0,3.1,1.4,3.1,3.1c0,1.7-1.4,3.1-3.1,3.1c-1.7,0-3.1-1.4-3.1-3.1
	C46.5,57.9,47.9,56.5,49.6,56.5z M49.6,64.6c0.8,0,1.5,0.7,1.5,1.5c0,0.8-0.7,1.5-1.5,1.5c-0.8,0-1.5-0.7-1.5-1.5
	C48.1,65.3,48.8,64.6,49.6,64.6z M33,74.2L48.9,99c0.2,0,0.4,0,0.6,0c20,0,37.3-12,45-29.1L66,25.1h0c0.2,0.4,0.3,0.8,0.3,1.2v46.9
	c0,1.3-1.1,2.4-2.4,2.4H35.2C34.2,75.5,33.4,75,33,74.2L33,74.2z"/>
<path class="st1" d="M36.7,28.5h25.7c0.2,0,0.4,0.2,0.4,0.4v4.7c0,0.2-0.2,0.4-0.4,0.4H36.7c-0.2,0-0.4-0.2-0.4-0.4v-4.7
	C36.3,28.6,36.5,28.5,36.7,28.5 M36.7,37.3h25.7c0.2,0,0.4,0.2,0.4,0.4v4.7c0,0.2-0.2,0.4-0.4,0.4H36.7c-0.2,0-0.4-0.2-0.4-0.4v-4.7
	C36.3,37.5,36.5,37.3,36.7,37.3z M36.7,46.2h25.7c0.2,0,0.4,0.2,0.4,0.4v4.7c0,0.2-0.2,0.4-0.4,0.4H36.7c-0.2,0-0.4-0.2-0.4-0.4
	v-4.7C36.3,46.4,36.5,46.2,36.7,46.2z M49.6,56.5c1.7,0,3.1,1.4,3.1,3.1c0,1.7-1.4,3.1-3.1,3.1c-1.7,0-3.1-1.4-3.1-3.1
	C46.5,57.9,47.9,56.5,49.6,56.5z M49.6,64.6c0.8,0,1.5,0.7,1.5,1.5c0,0.8-0.7,1.5-1.5,1.5c-0.8,0-1.5-0.7-1.5-1.5
	C48.1,65.3,48.8,64.6,49.6,64.6z M35.2,23.9h28.7c1.3,0,2.4,1.1,2.4,2.4v46.9c0,1.3-1.1,2.4-2.4,2.4H35.2c-1.3,0-2.4-1.1-2.4-2.4
	V26.3C32.8,24.9,33.9,23.9,35.2,23.9z"/>
</svg>
