<?xml version="1.0" encoding="utf-8"?>
<!-- Generator: Adobe Illustrator 16.0.0, SVG Export Plug-In . SVG Version: 6.00 Build 0)  -->
<!DOCTYPE svg PUBLIC "-//W3C//DTD SVG 1.1//EN" "http://www.w3.org/Graphics/SVG/1.1/DTD/svg11.dtd">
<svg version="1.1" id="Layer_1" xmlns="http://www.w3.org/2000/svg" xmlns:xlink="http://www.w3.org/1999/xlink" x="0px" y="0px"
	 width="99px" height="99px" viewBox="0 0 99 99" enable-background="new 0 0 99 99" xml:space="preserve">
<path fill="#404041" d="M36.7,28.5h25.7c0.199,0,0.399,0.2,0.399,0.4v4.7c0,0.2-0.2,0.4-0.399,0.4H36.7c-0.2,0-0.4-0.2-0.4-0.4v-4.7
	C36.3,28.6,36.5,28.5,36.7,28.5 M36.7,37.3h25.7c0.199,0,0.399,0.2,0.399,0.4v4.7c0,0.2-0.2,0.4-0.399,0.4H36.7
	c-0.2,0-0.4-0.2-0.4-0.4v-4.7C36.3,37.5,36.5,37.3,36.7,37.3z M36.7,46.2h25.7c0.199,0,0.399,0.2,0.399,0.4v4.7
	c0,0.2-0.2,0.4-0.399,0.4H36.7c-0.2,0-0.4-0.2-0.4-0.4v-4.7C36.3,46.4,36.5,46.2,36.7,46.2z M49.6,56.5c1.7,0,3.1,1.4,3.1,3.1
	c0,1.7-1.4,3.101-3.1,3.101c-1.7,0-3.1-1.4-3.1-3.101C46.5,57.9,47.9,56.5,49.6,56.5z M49.6,64.6c0.8,0,1.5,0.7,1.5,1.5
	c0,0.801-0.699,1.5-1.5,1.5s-1.5-0.699-1.5-1.5C48.1,65.3,48.8,64.6,49.6,64.6z M33,74.2L48.9,99c0.2,0,0.4,0,0.6,0
	c20,0,37.3-12,45-29.1L66,25.1l0,0c0.2,0.4,0.3,0.8,0.3,1.2v46.9c0,1.3-1.1,2.399-2.399,2.399H35.2C34.2,75.5,33.4,75,33,74.2
	L33,74.2z"/>
</svg>
