<?xml version="1.0" encoding="utf-8"?>
<!-- Generator: Adobe Illustrator 16.0.0, SVG Export Plug-In . SVG Version: 6.00 Build 0)  -->
<!DOCTYPE svg PUBLIC "-//W3C//DTD SVG 1.1//EN" "http://www.w3.org/Graphics/SVG/1.1/DTD/svg11.dtd">
<svg version="1.1" id="Layer_1" xmlns="http://www.w3.org/2000/svg" xmlns:xlink="http://www.w3.org/1999/xlink" x="0px" y="0px"
	 width="12px" height="19px" viewBox="0 0 12 19" style="enable-background:new 0 0 12 19;" xml:space="preserve">
<style type="text/css">
<![CDATA[
	.st0{fill:#FFCB0B;}
]]>
</style>
<g>
	<path class="st0" d="M3.156,9.494l7.356-6.971c0.32-0.302,0.32-0.796,0-1.099c-0.321-0.303-0.841-0.303-1.161,0l-7.87,7.46
		c-0.178,0.167-0.247,0.392-0.229,0.61c-0.02,0.219,0.05,0.443,0.227,0.612l7.871,7.459c0.161,0.151,0.371,0.227,0.58,0.227
		c0.212,0,0.421-0.075,0.581-0.227c0.32-0.305,0.32-0.796,0-1.1L3.156,9.494z"/>
	<path class="st0" d="M9.93,18.5c-0.418,0-0.814-0.151-1.109-0.434L0.95,10.605c-0.32-0.306-0.481-0.732-0.444-1.171
		C0.47,9.108,0.631,8.681,0.953,8.378L8.82,0.922c0.597-0.562,1.63-0.562,2.22,0.001c0.296,0.279,0.459,0.654,0.459,1.053
		c0,0.397-0.163,0.77-0.462,1.05L4.212,9.494l6.828,6.47c0.296,0.279,0.46,0.653,0.46,1.052c0,0.396-0.161,0.771-0.46,1.051
		C10.746,18.345,10.352,18.5,9.93,18.5z M9.98,2.021L2.008,9.383L2.012,9.44L1.996,9.55l7.932,7.532
		c0.022,0,0.037-0.005,0.049-0.018L2.098,9.494L9.98,2.021z"/>
</g>
</svg>
