<?xml version="1.0" encoding="utf-8"?>
<!-- Generator: Adobe Illustrator 16.0.0, SVG Export Plug-In . SVG Version: 6.00 Build 0)  -->
<!DOCTYPE svg PUBLIC "-//W3C//DTD SVG 1.1//EN" "http://www.w3.org/Graphics/SVG/1.1/DTD/svg11.dtd">
<svg version="1.1" id="Layer_1" xmlns="http://www.w3.org/2000/svg" xmlns:xlink="http://www.w3.org/1999/xlink" x="0px" y="0px"
	 width="38px" height="38px" viewBox="0 0 38 38" enable-background="new 0 0 38 38" xml:space="preserve">
<g>
	<path fill="#424142" d="M8.731,18.767c-0.163-0.038-0.343-0.058-0.536-0.058H6.162v2.784h1.846c0.495,0,0.857-0.089,1.048-0.258
		c0.246-0.221,0.371-0.653,0.371-1.283C9.426,19.035,9.029,18.836,8.731,18.767z"/>
	<path fill="#424142" d="M23.84,15.479c-0.236-0.551-0.752-0.818-1.576-0.818h-0.492c-0.841,0-1.355,0.247-1.576,0.754
		c-0.152,0.356-0.238,0.788-0.252,1.282c-0.016,0.528-0.023,1-0.023,1.416v0.633c0,1.087,0.156,1.854,0.463,2.275
		c0.28,0.39,0.757,0.578,1.459,0.578h0.352c0.398,0,0.729-0.042,0.983-0.126c0.228-0.075,0.401-0.203,0.531-0.389
		c0.187-0.265,0.407-0.886,0.407-2.339v-0.633c0-0.581-0.016-1.105-0.046-1.558C24.04,16.127,23.963,15.765,23.84,15.479z"/>
	<path fill="#424142" d="M8.678,17.082c0.271-0.195,0.409-0.589,0.409-1.172v-0.123c0-0.443-0.088-0.753-0.262-0.921
		c-0.172-0.164-0.514-0.251-0.987-0.251c-0.458,0-0.847,0.01-1.167,0.029l-0.509,0.031v2.689h1.043
		C8.104,17.363,8.502,17.21,8.678,17.082z"/>
	<path fill="#424142" d="M19,0C8.507,0,0,8.507,0,19s8.507,19,19,19s19-8.507,19-19S29.493,0,19,0z M10.778,21.399
		c-0.161,0.388-0.391,0.696-0.683,0.917c-0.485,0.376-1.209,0.56-2.21,0.56H4.616v-9.461l0.249-0.023
		c2.219-0.208,3.632-0.209,4.336,0.021c0.373,0.122,0.671,0.305,0.886,0.542c0.371,0.412,0.551,1.059,0.551,1.978
		c0,1.031-0.325,1.609-0.744,1.924c0.22,0.092,0.406,0.214,0.558,0.366c0.373,0.382,0.561,0.927,0.561,1.621
		C11.013,20.51,10.937,21.019,10.778,21.399z M17.699,22.876h-5.097v-9.515h1.546v8.103h3.551V22.876z M25.679,19.409
		c-0.024,0.413-0.075,0.8-0.152,1.153c-0.079,0.362-0.196,0.694-0.35,0.988c-0.16,0.307-0.379,0.571-0.65,0.786
		c-0.547,0.436-1.328,0.657-2.321,0.657h-0.363c-1.496,0-2.505-0.492-2.999-1.463c-0.278-0.539-0.443-1.261-0.492-2.143
		c-0.02-0.404-0.03-0.842-0.03-1.316c0-0.475,0.014-0.925,0.042-1.351c0.028-0.433,0.084-0.832,0.168-1.185
		c0.085-0.364,0.209-0.69,0.368-0.972c0.165-0.292,0.385-0.541,0.654-0.739c0.541-0.387,1.311-0.581,2.29-0.581h0.363
		c1.554,0,2.571,0.444,3.027,1.32c0.271,0.522,0.426,1.248,0.458,2.156c0.017,0.429,0.024,0.882,0.024,1.36
		C25.715,18.561,25.702,19.003,25.679,19.409z M33.902,22.205c-0.407,0.307-1.085,0.537-2.072,0.702
		c-0.337,0.057-0.725,0.086-1.152,0.086c-0.434,0-0.839-0.045-1.204-0.134c-0.376-0.092-0.702-0.229-0.969-0.409
		c-0.271-0.183-0.495-0.415-0.663-0.69c-0.162-0.264-0.289-0.571-0.378-0.912c-0.138-0.553-0.208-1.237-0.208-2.035
		c0-0.781,0.015-1.408,0.042-1.862c0.028-0.463,0.084-0.89,0.167-1.267c0.085-0.387,0.206-0.734,0.361-1.032
		c0.162-0.31,0.377-0.574,0.641-0.785c0.525-0.414,1.27-0.623,2.211-0.623c1.031,0,1.928,0.117,2.666,0.346l0.549,0.172l-0.375,1.45
		l-0.282-0.098c-0.907-0.316-1.79-0.477-2.622-0.477c-0.784,0-1.257,0.293-1.488,0.921c-0.149,0.404-0.233,0.873-0.25,1.394
		c-0.017,0.549-0.025,1.024-0.025,1.424v0.58c0,1.449,0.295,2.04,0.543,2.281c0.206,0.199,0.48,0.314,0.839,0.352
		c0.381,0.046,0.779,0.045,1.146,0.003c0.185-0.021,0.361-0.048,0.53-0.081c0.236-0.047,0.429-0.097,0.575-0.148v-2.307h-1.811
		v-1.358h3.34v4.425L33.902,22.205z"/>
</g>
</svg>
