<?xml version="1.0" standalone="no"?>
<!DOCTYPE svg PUBLIC "-//W3C//DTD SVG 20010904//EN"
 "http://www.w3.org/TR/2001/REC-SVG-20010904/DTD/svg10.dtd">
<svg version="1.0" xmlns="http://www.w3.org/2000/svg"
 width="91.000000pt" height="91.000000pt" viewBox="0 0 91.000000 91.000000"
 preserveAspectRatio="xMidYMid meet">
<metadata>
Created by potrace 1.14, written by Peter Selinger 2001-2017
</metadata>
<g transform="translate(0.000000,91.000000) scale(0.100000,-0.100000)"
fill="#000000" stroke="none">
<path d="M341 894 c-162 -44 -283 -166 -326 -331 -8 -31 -15 -61 -15 -65 0 -4
205 -8 455 -8 250 0 455 4 455 8 0 4 -7 34 -15 65 -64 248 -313 396 -554 331z
m-49 -171 c23 -21 23 -48 0 -71 -18 -18 -18 -20 5 -48 29 -37 29 -44 -1 -44
-17 0 -31 11 -46 35 -12 19 -28 35 -36 35 -9 0 -14 -11 -14 -35 0 -28 -4 -35
-20 -35 -19 0 -20 7 -20 90 l0 90 57 0 c38 0 62 -5 75 -17z m238 -8 c0 -22 4
-25 35 -25 39 0 55 -20 55 -67 0 -39 -20 -64 -50 -64 -14 1 -37 1 -52 1 l-28
0 0 90 c0 83 1 90 20 90 15 0 20 -7 20 -25z"/>
<path d="M0 437 c0 -96 58 -226 134 -301 253 -251 671 -135 761 211 8 31 15
72 15 90 l0 33 -455 0 -455 0 0 -33z"/>
</g>
</svg>
