<?xml version="1.0" encoding="utf-8"?>
<!-- Generator: Adobe Illustrator 16.0.0, SVG Export Plug-In . SVG Version: 6.00 Build 0)  -->
<!DOCTYPE svg PUBLIC "-//W3C//DTD SVG 1.1//EN" "http://www.w3.org/Graphics/SVG/1.1/DTD/svg11.dtd">
<svg version="1.1" id="Layer_1" xmlns:sketch="http://www.bohemiancoding.com/sketch/ns"
	 xmlns="http://www.w3.org/2000/svg" xmlns:xlink="http://www.w3.org/1999/xlink" x="0px" y="0px" width="27px" height="27px"
	 viewBox="0.35 -0.25 27 27" enable-background="new 0.35 -0.25 27 27" xml:space="preserve">
<title></title>
<path fill="#414042" d="M13.85,0.8c-6.899,0-12.5,5.6-12.5,12.5c0,6.899,5.601,12.4,12.5,12.4c6.9,0,12.5-5.601,12.5-12.501
	C26.35,6.3,20.75,0.8,13.85,0.8z M6.651,7.3h14.4c0.299,0,0.6,0.1,0.799,0.3l-8,6.9l-8-6.9C6.05,7.4,6.35,7.3,6.651,7.3z M5.451,8.3
	l5.8,5l-5.8,5V8.3z M21.051,19.199h-14.4c-0.301,0-0.601-0.1-0.801-0.299l5.9-5.101l2.1,1.8l2.1-1.8l5.9,5.101
	C21.651,19.1,21.35,19.199,21.051,19.199z M22.25,18.3L16.45,13.4l5.801-5V18.3z"/>
</svg>
