<?xml version="1.0" encoding="utf-8"?>
<!-- Generator: Adobe Illustrator 16.0.0, SVG Export Plug-In . SVG Version: 6.00 Build 0)  -->
<!DOCTYPE svg PUBLIC "-//W3C//DTD SVG 1.1//EN" "http://www.w3.org/Graphics/SVG/1.1/DTD/svg11.dtd">
<svg version="1.1" id="Layer_1" xmlns="http://www.w3.org/2000/svg" xmlns:xlink="http://www.w3.org/1999/xlink" x="0px" y="0px"
	 width="115px" height="115px" viewBox="0 0 115 115" enable-background="new 0 0 115 115" xml:space="preserve">
<path fill="#E0AA00" d="M112.869,73L102.3,56.4l-3-0.1l-3-4.7l-20-12L61,41.1l8.2,12.8h-2L59,41.2l-16.5,1l-18.9,9.4l2.3,3.6
	L21,57.4l-3.2,18.2l23.575,37.092C46.493,114.185,51.9,115,57.5,115C83.884,115,106.101,97.225,112.869,73z"/>
<path fill="#3C3C3B" d="M50.9,59.7h-28V72h28V59.7z M97.1,59.7h-28V72h28V59.7z M96.3,51.6c-7-4.9-16.899-11.9-17.1-12
	c-6.4-4.5-13.101-3-18.2,1.5l4.1,4.2C68.2,43.1,72,42,75.3,44.1c0.101,0.1,5,3.6,10.5,7.6h10.5V51.6z M23.7,51.6
	c7-4.9,16.9-11.9,17.1-12c6.4-4.5,13.2-3,18.3,1.6L55,45.3c-3.1-2.2-7-3.4-10.3-1.3c-0.1,0.1-5,3.6-10.5,7.6H23.7z M22.5,53.7h28.9
	c1.5,0,2.9,0.6,3.9,1.6s1.6,2.4,1.6,3.9V63.1h6.2V59.2c0-1.5,0.604-2.9,1.604-3.9s2.396-1.6,3.896-1.6h28.9c1.5,0,2.9,0.6,3.9,1.6
	s1.6,2.4,1.6,3.9v13.2c0,1.5-0.6,2.896-1.6,3.896S99,77.9,97.5,77.9H68.6C67.1,77.9,65.7,77.3,64.7,76.3S63.1,73.9,63.1,72.4V68.1
	h-6.2V72.4c0,1.5-0.6,2.896-1.6,3.896S52.9,77.9,51.4,77.9H22.5c-1.5,0-2.9-0.604-3.9-1.604S17,73.9,17,72.4V59.3
	c0-1.5,0.6-2.9,1.6-3.9C19.5,54.3,20.9,53.7,22.5,53.7z"/>
</svg>
