<?xml version="1.0" encoding="utf-8"?>
<!-- Generator: Adobe Illustrator 16.0.0, SVG Export Plug-In . SVG Version: 6.00 Build 0)  -->
<!DOCTYPE svg PUBLIC "-//W3C//DTD SVG 1.1//EN" "http://www.w3.org/Graphics/SVG/1.1/DTD/svg11.dtd">
<svg version="1.1" id="Layer_1" xmlns="http://www.w3.org/2000/svg" xmlns:xlink="http://www.w3.org/1999/xlink" x="0px" y="0px"
	 width="115px" height="115px" viewBox="0 0 115 115" enable-background="new 0 0 115 115" xml:space="preserve">
<g>
	<path fill="#E0AA00" d="M97.5,53.7c0.051,0,0.099,0.014,0.149,0.015L96.3,51.6v0.1H85.8c-5.5-4-10.399-7.5-10.5-7.6
		c-3.3-2.1-7.1-1-10.2,1.2L61,41.1l8.072,12.6H97.5z"/>
	<rect x="69.1" y="59.7" fill="#E0AA00" width="28" height="12.3"/>
	<path fill="#E0AA00" d="M102.3,56.4l-0.08-0.002c0.487,0.83,0.78,1.788,0.78,2.803v13.2c0,1.5-0.6,2.896-1.6,3.896
		S99,77.9,97.5,77.9H68.6C67.1,77.9,65.7,77.3,64.7,76.3S63.1,73.9,63.1,72.4V68.1h-6.2V72.4c0,1.5-0.6,2.896-1.6,3.896
		S52.9,77.9,51.4,77.9H22.5c-1.5,0-2.9-0.604-3.9-1.604c-0.29-0.29-0.535-0.62-0.752-0.97L17.8,75.6l23.575,37.092
		C46.493,114.185,51.9,115,57.5,115c26.384,0,48.601-17.775,55.369-42L102.3,56.4z"/>
	<rect x="22.9" y="59.7" fill="#E0AA00" width="28" height="12.3"/>
	<path fill="#E0AA00" d="M51.4,53.7c1.5,0,2.9,0.6,3.9,1.6s1.6,2.4,1.6,3.9V63.1h6.2V59.2c0-1.5,0.604-2.9,1.604-3.9
		c0.679-0.678,1.547-1.152,2.498-1.4H67.2l-8.161-12.639L55,45.3c-3.1-2.2-7-3.4-10.3-1.3c-0.1,0.1-5,3.6-10.5,7.6H23.7
		c0.081-0.057,0.164-0.115,0.245-0.172L23.6,51.6l1.341,2.1H51.4z"/>
</g>
</svg>
