<?xml version="1.0" encoding="utf-8"?>
<!-- Generator: Adobe Illustrator 16.0.0, SVG Export Plug-In . SVG Version: 6.00 Build 0)  -->
<!DOCTYPE svg PUBLIC "-//W3C//DTD SVG 1.1//EN" "http://www.w3.org/Graphics/SVG/1.1/DTD/svg11.dtd">
<svg version="1.1" id="Layer_1" xmlns="http://www.w3.org/2000/svg" xmlns:xlink="http://www.w3.org/1999/xlink" x="0px" y="0px"
	 width="99px" height="99px" viewBox="0 0 99 99" enable-background="new 0 0 99 99" xml:space="preserve">
<path fill="#404041" d="M34.4,31.1L34.4,31.1L34.4,31.1L34.4,31.1z M16,48.5L48.4,99c0.4,0,0.9,0,1.3,0c2.2,0,4.3-0.1,6.399-0.4l0,0
	C64.6,97.5,72.4,94.2,79,89.4C86.1,84.1,91.8,77,95.2,68.7l-14.8-23v0.1c0,0.1,0.1,0.3,0.1,0.4v1.7c0,0.1,0,0.1,0,0.2s0,0.1,0,0.2
	c0,0.1-0.1,0.2-0.1,0.3c-0.101,0.1-0.101,0.1-0.2,0.2L63.1,63l0,0c-0.199,0.1-0.3,0.2-0.399,0.2c-0.2,0-0.4,0-0.5-0.101l0,0
	C62.1,63,62,62.9,61.9,62.7C61.8,62.6,61.8,62.4,61.8,62.2v-6.5c0-0.4,0.101-0.7,0.2-1s0.4-0.601,0.6-0.8L71,47l-8.3-6.9l0,0
	c-0.3-0.2-0.5-0.5-0.601-0.8C62,39,61.9,38.7,61.9,38.3v-6.5c0-0.2,0-0.3,0.1-0.5c0.1-0.2,0.2-0.3,0.3-0.4l0,0
	c0.2-0.1,0.3-0.1,0.5-0.1l0,0l-4.6-7.1l0,0l0,0l0,0c0.1,0.1,0.2,0.3,0.2,0.5c0,0.2,0,0.3-0.101,0.5l-14,45
	c-0.1,0.399-0.3,0.6-0.6,0.8c-0.3,0.2-0.6,0.3-1,0.3h-3.6c-0.9,0-1.3-0.399-1-1.3l6.8-21.9L34.5,31.2c0,0,0,0.1,0.1,0.1l0,0
	c0.1,0.1,0.1,0.3,0.1,0.5v6.5c0,0.4-0.1,0.7-0.2,1l0,0c-0.1,0.3-0.4,0.6-0.6,0.8l0,0l-3,2.5l0,0L25.4,47l5.3,4.4l0,0l3,2.5
	c0.3,0.199,0.5,0.5,0.6,0.8l0,0c0.1,0.3,0.2,0.6,0.2,1v6.5c0,0.2,0,0.3-0.1,0.5l0,0c-0.1,0.2-0.2,0.3-0.3,0.399
	C33.9,63.2,33.8,63.2,33.6,63.2c-0.1,0-0.3-0.101-0.4-0.2l0,0l-17-14.3C16.1,48.6,16.1,48.6,16,48.5L16,48.5L16,48.5z"/>
</svg>
