<?xml version="1.0" encoding="utf-8"?>
<!-- Generator: Adobe Illustrator 16.0.0, SVG Export Plug-In . SVG Version: 6.00 Build 0)  -->
<!DOCTYPE svg PUBLIC "-//W3C//DTD SVG 1.1//EN" "http://www.w3.org/Graphics/SVG/1.1/DTD/svg11.dtd">
<svg version="1.1" id="Layer_1" xmlns="http://www.w3.org/2000/svg" xmlns:xlink="http://www.w3.org/1999/xlink" x="0px" y="0px"
	 width="99px" height="99px" viewBox="0 0 99 99" style="enable-background:new 0 0 99 99;" xml:space="preserve">
<style type="text/css">
<![CDATA[
	.st0{fill-rule:evenodd;clip-rule:evenodd;fill:#404041;}
	.st1{fill:#FFCB05;}
]]>
</style>
<path class="st0" d="M34.4,31.1L34.4,31.1L34.4,31.1L34.4,31.1z M16,48.5L48.4,99c0.4,0,0.9,0,1.3,0c2.2,0,4.3-0.1,6.4-0.4h0
	c8.5-1.1,16.3-4.4,22.9-9.2c7.1-5.3,12.8-12.4,16.2-20.7L80.4,45.7l0,0.1c0,0.1,0.1,0.3,0.1,0.4v1.7c0,0.1,0,0.1,0,0.2
	c0,0.1,0,0.1,0,0.2c0,0.1-0.1,0.2-0.1,0.3c-0.1,0.1-0.1,0.1-0.2,0.2L63.1,63l0,0c-0.2,0.1-0.3,0.2-0.4,0.2c-0.2,0-0.4,0-0.5-0.1v0
	c-0.1-0.1-0.2-0.2-0.3-0.4c-0.1-0.1-0.1-0.3-0.1-0.5v-6.5c0-0.4,0.1-0.7,0.2-1c0.1-0.3,0.4-0.6,0.6-0.8L71,47l-8.3-6.9l0,0
	c-0.3-0.2-0.5-0.5-0.6-0.8c-0.1-0.3-0.2-0.6-0.2-1v-6.5c0-0.2,0-0.3,0.1-0.5c0.1-0.2,0.2-0.3,0.3-0.4v0c0.2-0.1,0.3-0.1,0.5-0.1l0,0
	l-4.6-7.1l0,0l0,0h0c0.1,0.1,0.2,0.3,0.2,0.5c0,0.2,0,0.3-0.1,0.5L44.3,69.7c-0.1,0.4-0.3,0.6-0.6,0.8c-0.3,0.2-0.6,0.3-1,0.3h-3.6
	c-0.9,0-1.3-0.4-1-1.3l6.8-21.9L34.5,31.2c0,0,0,0.1,0.1,0.1l0,0c0.1,0.1,0.1,0.3,0.1,0.5v6.5c0,0.4-0.1,0.7-0.2,1l0,0
	c-0.1,0.3-0.4,0.6-0.6,0.8l0,0l-3,2.5v0L25.4,47l5.3,4.4v0l3,2.5c0.3,0.2,0.5,0.5,0.6,0.8l0,0c0.1,0.3,0.2,0.6,0.2,1v6.5
	c0,0.2,0,0.3-0.1,0.5l0,0c-0.1,0.2-0.2,0.3-0.3,0.4c-0.2,0.1-0.3,0.1-0.5,0.1c-0.1,0-0.3-0.1-0.4-0.2l0,0L16.2,48.7
	C16.1,48.6,16.1,48.6,16,48.5L16,48.5L16,48.5z"/>
<path class="st1" d="M39.2,70.8c-0.9,0-1.3-0.4-1-1.3l13.9-45l0,0c0.1-0.4,0.3-0.6,0.6-0.8v0c0.3-0.2,0.6-0.3,1-0.3h3.6
	c0.2,0,0.4,0,0.5,0.1c0.2,0.1,0.3,0.2,0.4,0.3h0c0.1,0.1,0.2,0.3,0.2,0.5c0,0.2,0,0.3-0.1,0.5L44.3,69.7c-0.1,0.4-0.3,0.6-0.6,0.8
	c-0.3,0.2-0.6,0.3-1,0.3H39.2z M25.4,47l5.3,4.4v0l3,2.5c0.3,0.2,0.5,0.5,0.6,0.8l0,0c0.1,0.3,0.2,0.6,0.2,1v6.5
	c0,0.2,0,0.3-0.1,0.5l0,0c-0.1,0.2-0.2,0.3-0.3,0.4c-0.2,0.1-0.3,0.1-0.5,0.1c-0.1,0-0.3-0.1-0.4-0.2l0,0L16.2,48.7
	c-0.1,0-0.1-0.1-0.2-0.2l0,0c-0.1-0.1-0.1-0.2-0.1-0.3c0-0.1,0-0.1,0-0.2v0c0-0.1,0-0.1,0-0.2v-1.7c0-0.2,0-0.3,0.1-0.4
	c0.1-0.1,0.1-0.3,0.3-0.3l17.1-14.3l0,0c0.2-0.1,0.3-0.2,0.4-0.2c0.2,0,0.4,0,0.5,0.1c0.1,0.1,0.2,0.2,0.3,0.4l0,0
	c0.1,0.1,0.1,0.3,0.1,0.5v6.5c0,0.4-0.1,0.7-0.2,1l0,0c-0.1,0.3-0.4,0.6-0.6,0.8l0,0l-3,2.5v0L25.4,47z M62.7,40.1
	c-0.3-0.2-0.5-0.5-0.6-0.8c-0.1-0.3-0.2-0.6-0.2-1v-6.5c0-0.2,0-0.3,0.1-0.5c0.1-0.2,0.2-0.3,0.3-0.4v0c0.2-0.1,0.3-0.1,0.5-0.1
	c0.1,0,0.3,0.1,0.4,0.2l0,0l17.1,14.4c0.1,0.1,0.2,0.2,0.3,0.3c0,0.1,0.1,0.3,0.1,0.4v1.7c0,0.1,0,0.1,0,0.2c0,0.1,0,0.1,0,0.2
	c0,0.1-0.1,0.2-0.1,0.3c-0.1,0.1-0.1,0.1-0.2,0.2L63.1,63l0,0c-0.2,0.1-0.3,0.2-0.4,0.2c-0.2,0-0.4,0-0.5-0.1v0
	c-0.1-0.1-0.2-0.2-0.3-0.4c-0.1-0.1-0.1-0.3-0.1-0.5v-6.5c0-0.4,0.1-0.7,0.2-1c0.1-0.3,0.4-0.6,0.6-0.8L71,47L62.7,40.1z"/>
</svg>
