<?xml version="1.0" encoding="utf-8"?>
<!-- Generator: Adobe Illustrator 16.0.0, SVG Export Plug-In . SVG Version: 6.00 Build 0)  -->
<!DOCTYPE svg PUBLIC "-//W3C//DTD SVG 1.1//EN" "http://www.w3.org/Graphics/SVG/1.1/DTD/svg11.dtd">
<svg version="1.1" id="Layer_1" xmlns="http://www.w3.org/2000/svg" xmlns:xlink="http://www.w3.org/1999/xlink" x="0px" y="0px"
	 width="27px" height="27px" viewBox="0.7 1.05 27 27" enable-background="new 0.7 1.05 27 27" xml:space="preserve">
<path fill="#414042" d="M14.2,2.05c-6.9,0-12.5,5.601-12.5,12.5c0,6.9,5.6,12.5,12.5,12.5s12.5-5.6,12.5-12.5
	C26.7,7.651,21.1,2.05,14.2,2.05z M10.3,20.151c-0.899,0-1.6-0.7-1.6-1.601c0-0.899,0.7-1.6,1.6-1.6c0.9,0,1.601,0.7,1.601,1.6
	C12,19.45,11.3,20.151,10.3,20.151z M14.5,20.25c0-1.6-0.6-3-1.7-4.1c-1.1-1.101-2.5-1.7-4.1-1.7v-2.4c4.5,0,8.1,3.7,8.1,8.2H14.5z
	 M18.7,20.25c0-5.5-4.5-10-10-10V7.851c6.8,0,12.3,5.6,12.3,12.399H18.7z"/>
</svg>
