<?xml version="1.0" encoding="utf-8"?>
<!-- Generator: Adobe Illustrator 16.0.0, SVG Export Plug-In . SVG Version: 6.00 Build 0)  -->
<!DOCTYPE svg PUBLIC "-//W3C//DTD SVG 1.1//EN" "http://www.w3.org/Graphics/SVG/1.1/DTD/svg11.dtd">
<svg version="1.1" id="Layer_1" xmlns="http://www.w3.org/2000/svg" xmlns:xlink="http://www.w3.org/1999/xlink" x="0px" y="0px"
	 width="99px" height="99px" viewBox="0 0 99 99" enable-background="new 0 0 99 99" xml:space="preserve">
<g>
	<polygon fill="#404041" points="60.2,69.7 60.2,61.9 57.5,61.9 57.5,63.5 58.5,63.5 58.5,69.7 	"/>
	<path fill="#404041" d="M43.8,61.9c-0.4,0-0.8,0-1.1,0.199C42.4,62.2,42.2,62.4,42,62.7c-0.1,0.3-0.2,0.6-0.3,0.899
		C41.6,64,41.6,64.4,41.6,65h1.7v-0.2c0-0.6,0-0.899,0.1-1.1c0-0.2,0.2-0.3,0.4-0.3c0.2,0,0.3,0.1,0.4,0.199
		c0.1,0.101,0.1,0.301,0.1,0.5c0,0.4-0.2,0.9-0.5,1.4l-2.5,4.4h4.5V68.3h-1.6l1-1.6c0.3-0.5,0.5-1,0.7-1.4
		c0.1-0.399,0.2-0.8,0.2-1.2c0-0.699-0.2-1.199-0.6-1.6S44.5,61.9,43.8,61.9z"/>
	<path fill="#404041" d="M74.1,68.2c-0.399,0-0.6-0.2-0.6-0.7h-1.7c0,0.7,0.3,1.2,0.7,1.6c0.4,0.4,0.9,0.601,1.6,0.601
		c0.5,0,0.9,0,1.2-0.2c0.4-0.2,0.601-0.4,0.8-0.8C76.3,68.3,76.4,68,76.4,67.6c0-0.899-0.4-1.5-1.101-1.899c0.601-0.4,0.9-1,0.9-1.8
		c0-0.601-0.2-1.2-0.601-1.601C75.2,61.9,74.7,61.7,74.1,61.7c-0.3,0-0.6,0.1-0.899,0.2c-0.3,0.199-0.5,0.399-0.7,0.6
		s-0.3,0.5-0.4,0.7c-0.1,0.2-0.1,0.6-0.1,1h1.7h0.1V64.1c0-0.3,0-0.6,0.101-0.699c0-0.101,0.1-0.2,0.3-0.2c0.3,0,0.5,0.399,0.5,1
		c0,0.3-0.101,0.5-0.2,0.6C74.4,64.9,74.3,65,74,65h-0.7v1.4h0.5c0.3,0,0.5,0.1,0.601,0.199C74.5,66.7,74.6,66.9,74.6,67.2
		C74.6,67.9,74.5,68.2,74.1,68.2z"/>
	<path fill="#404041" d="M35,47.6c2,1.7,4.4,2.4,6.7,2.2c2.4-0.2,4.6-1.2,6.3-3.2c1.7-1.9,2.4-4.4,2.2-6.7c-0.2-2.4-1.3-4.7-3.2-6.3
		c-1.9-1.7-4.4-2.4-6.7-2.2c-2.4,0.2-4.6,1.3-6.3,3.2s-2.4,4.4-2.2,6.7C32,43.7,33.1,45.9,35,47.6z"/>
	<path fill="#404041" d="M80.7,60.7c0.2,0.3,0.399,0.8,0.399,1.2v7c0,0.624-0.274,1.189-0.702,1.593
		C79.993,70.924,79.426,71.2,78.8,71.2H69.4c-1.2,0-2.2-1-2.2-2.2v-7c0-0.825,0.404-1.486,1.006-1.861
		c0.365-0.271,0.812-0.438,1.294-0.438H70L65.5,52.6c0.2,0.301,0.3,0.7,0.3,1.101V69c0,1.1-0.899,2-2,2h-0.1H54c-1.1,0-2-0.9-2-2
		V53.8c0-1.1,0.9-2,2-2h8.8L51.5,34.1h-0.1c1.1,1.7,1.699,3.7,1.899,5.6c0.2,3.2-0.7,6.4-2.899,9c-2.2,2.6-5.3,4.1-8.5,4.3
		c-3.2,0.2-6.4-0.7-9-2.9c-0.6-0.6-1.2-1.2-1.7-1.8l2,3.101l1.1,1.899l-0.9-1.1l-4.8,5.6c0-0.1-0.1-0.1-0.2-0.2L26.2,55.7
		c-0.1,0-0.1-0.101-0.2-0.101l1.7,2.7c0.5,0.4,0.5,1.101,0.1,1.601l-5.6,6.6c-0.4,0.5-1.1,0.5-1.6,0.1L18.4,64.7c0,0,0,0-0.1-0.101
		l20.8,33.2C42.5,98.6,46,99,49.5,99c16.8,0,31.7-8.5,40.6-21.4L90.2,77.4l0.3-0.5l0.4-0.601v-0.1L80.7,60.7z M50.5,69
		c0,1.1-0.9,2-2,2h-9.7c-1.1,0-2-0.9-2-2V58.4c0-1.101,0.9-2,2-2h9.7c1.1,0,2,0.899,2,2V69z"/>
</g>
</svg>
