<?xml version="1.0" encoding="utf-8"?>
<!-- Generator: Adobe Illustrator 16.0.0, SVG Export Plug-In . SVG Version: 6.00 Build 0)  -->
<!DOCTYPE svg PUBLIC "-//W3C//DTD SVG 1.1//EN" "http://www.w3.org/Graphics/SVG/1.1/DTD/svg11.dtd">
<svg version="1.1" id="Layer_1" xmlns="http://www.w3.org/2000/svg" xmlns:xlink="http://www.w3.org/1999/xlink" x="0px" y="0px"
	 width="99px" height="99px" viewBox="0 0 99 99" style="enable-background:new 0 0 99 99;" xml:space="preserve">
<style type="text/css">
<![CDATA[
	.st0{fill-rule:evenodd;clip-rule:evenodd;fill:#404041;}
	.st1{fill-rule:evenodd;clip-rule:evenodd;fill:#FFCB05;}
]]>
</style>
<path class="st0" d="M73.7,64.2H72c0-0.4,0-0.8,0.1-1c0.1-0.2,0.2-0.5,0.4-0.7c0.2-0.2,0.4-0.4,0.7-0.6c0.3-0.1,0.6-0.2,0.9-0.2
	c0.6,0,1.1,0.2,1.5,0.6c0.4,0.4,0.6,1,0.6,1.6c0,0.8-0.3,1.4-0.9,1.8c0.7,0.4,1.1,1,1.1,1.9c0,0.4-0.1,0.7-0.3,1.1
	c-0.2,0.4-0.4,0.6-0.8,0.8c-0.3,0.2-0.7,0.2-1.2,0.2c-0.7,0-1.2-0.2-1.6-0.6c-0.4-0.4-0.7-0.9-0.7-1.6h1.7c0,0.5,0.2,0.7,0.6,0.7
	c0.4,0,0.5-0.3,0.5-1c0-0.3-0.1-0.5-0.2-0.6c-0.1-0.1-0.3-0.2-0.6-0.2h-0.5V65H74c0.3,0,0.4-0.1,0.5-0.2c0.1-0.1,0.2-0.3,0.2-0.6
	c0-0.6-0.2-1-0.5-1c-0.2,0-0.3,0.1-0.3,0.2c-0.1,0.1-0.1,0.4-0.1,0.7V64.2z M57.5,61.9h2.7v7.8h-1.7v-6.2h-1V61.9z M43.3,65h-1.7
	c0-0.6,0-1,0.1-1.4c0.1-0.3,0.2-0.6,0.3-0.9c0.2-0.3,0.4-0.5,0.7-0.6c0.3-0.2,0.7-0.2,1.1-0.2c0.7,0,1.3,0.2,1.7,0.6
	c0.4,0.4,0.6,0.9,0.6,1.6c0,0.4-0.1,0.8-0.2,1.2c-0.2,0.4-0.4,0.9-0.7,1.4l-1,1.6h1.6v1.6h-4.5l2.5-4.4c0.3-0.5,0.5-1,0.5-1.4
	c0-0.2,0-0.4-0.1-0.5c-0.1-0.1-0.2-0.2-0.4-0.2c-0.2,0-0.4,0.1-0.4,0.3c-0.1,0.2-0.1,0.5-0.1,1.1V65z M38.8,56.4h9.7
	c1.1,0,2,0.9,2,2V69c0,1.1-0.9,2-2,2h-9.7c-1.1,0-2-0.9-2-2V58.4C36.8,57.3,37.7,56.4,38.8,56.4z M41.7,49.8
	C39.4,50,37,49.3,35,47.6c-1.9-1.7-3-3.9-3.2-6.3c-0.2-2.3,0.5-4.8,2.2-6.7c1.7-1.9,3.9-3,6.3-3.2c2.3-0.2,4.8,0.5,6.7,2.2
	c1.9,1.6,3,3.9,3.2,6.3c0.2,2.3-0.5,4.8-2.2,6.7C46.3,48.6,44.1,49.6,41.7,49.8z M18.3,64.6l20.8,33.2C42.5,98.6,46,99,49.5,99
	c16.8,0,31.7-8.5,40.6-21.4l0,0l0,0l0,0l0,0l0,0l0,0l0,0l0,0l0.1-0.2l0,0l0,0l0,0l0,0l0,0l0.3-0.5l0,0l0,0l0,0l0,0l0,0l0,0l0,0l0,0
	l0,0l0,0l0,0l0,0l0.4-0.6l0,0l0,0l0,0l0-0.1l0,0l0,0L80.7,60.7h0c0.2,0.3,0.4,0.8,0.4,1.2v7c0,1.2-1,2.2-2.2,2.2h-9.4
	c-1.2,0-2.2-1-2.2-2.2v-7c0-1.2,1-2.2,2.2-2.2H70l-4.5-7.1l0,0l0,0l0,0c0.2,0.3,0.3,0.7,0.3,1.1V69c0,1.1-0.9,2-2,2H54
	c-1.1,0-2-0.9-2-2V53.8c0-1.1,0.9-2,2-2h8.8L51.5,34.1l-0.1,0c1.1,1.7,1.7,3.7,1.9,5.6c0.2,3.2-0.7,6.4-2.9,9
	c-2.2,2.6-5.3,4.1-8.5,4.3c-3.2,0.2-6.4-0.7-9-2.9c-0.6-0.6-1.2-1.2-1.7-1.8l2,3.1l1.1,1.9l-0.9-1.1l-4.8,5.6c0-0.1-0.1-0.1-0.2-0.2
	l-2.2-1.9c-0.1,0-0.1-0.1-0.2-0.1l1.7,2.7l0,0c0.5,0.4,0.5,1.1,0.1,1.6l-5.6,6.6c-0.4,0.5-1.1,0.5-1.6,0.1l-2.2-1.9
	C18.4,64.7,18.4,64.7,18.3,64.6z"/>
<path class="st1" d="M73.7,64.2H72c0-0.4,0-0.8,0.1-1c0.1-0.2,0.2-0.5,0.4-0.7c0.2-0.2,0.4-0.4,0.7-0.6c0.3-0.1,0.6-0.2,0.9-0.2
	c0.6,0,1.1,0.2,1.5,0.6c0.4,0.4,0.6,1,0.6,1.6c0,0.8-0.3,1.4-0.9,1.8c0.7,0.4,1.1,1,1.1,1.9c0,0.4-0.1,0.7-0.3,1.1
	c-0.2,0.4-0.4,0.6-0.8,0.8c-0.3,0.2-0.7,0.2-1.2,0.2c-0.7,0-1.2-0.2-1.6-0.6c-0.4-0.4-0.7-0.9-0.7-1.6h1.7c0,0.5,0.2,0.7,0.6,0.7
	c0.4,0,0.5-0.3,0.5-1c0-0.3-0.1-0.5-0.2-0.6c-0.1-0.1-0.3-0.2-0.6-0.2h-0.5V65H74c0.3,0,0.4-0.1,0.5-0.2c0.1-0.1,0.2-0.3,0.2-0.6
	c0-0.6-0.2-1-0.5-1c-0.2,0-0.3,0.1-0.3,0.2c-0.1,0.1-0.1,0.4-0.1,0.7V64.2z M57.5,61.9h2.7v7.8h-1.7v-6.2h-1V61.9z M54,51.8h9.7
	c1.1,0,2,0.9,2,2V69c0,1.1-0.9,2-2,2H54c-1.1,0-2-0.9-2-2V53.8C52,52.7,52.9,51.8,54,51.8z M43.3,65h-1.7c0-0.6,0-1,0.1-1.4
	c0.1-0.3,0.2-0.6,0.3-0.9c0.2-0.3,0.4-0.5,0.7-0.6c0.3-0.2,0.7-0.2,1.1-0.2c0.7,0,1.3,0.2,1.7,0.6c0.4,0.4,0.6,0.9,0.6,1.6
	c0,0.4-0.1,0.8-0.2,1.2c-0.2,0.4-0.4,0.9-0.7,1.4l-1,1.6h1.6v1.6h-4.5l2.5-4.4c0.3-0.5,0.5-1,0.5-1.4c0-0.2,0-0.4-0.1-0.5
	c-0.1-0.1-0.2-0.2-0.4-0.2c-0.2,0-0.4,0.1-0.4,0.3c-0.1,0.2-0.1,0.5-0.1,1.1V65z M38.8,56.4h9.7c1.1,0,2,0.9,2,2V69c0,1.1-0.9,2-2,2
	h-9.7c-1.1,0-2-0.9-2-2V58.4C36.8,57.3,37.7,56.4,38.8,56.4z M30.9,49.9L26,55.6c0.1,0,0.1,0.1,0.2,0.1l2.2,1.9
	c0.1,0,0.1,0.1,0.2,0.2l4.8-5.6c-0.5-0.3-0.9-0.6-1.3-1C31.7,50.7,31.3,50.3,30.9,49.9z M41.7,49.8C39.4,50,37,49.3,35,47.6
	c-1.9-1.7-3-3.9-3.2-6.3c-0.2-2.3,0.5-4.8,2.2-6.7c1.7-1.9,3.9-3,6.3-3.2c2.3-0.2,4.8,0.5,6.7,2.2c1.9,1.6,3,3.9,3.2,6.3
	c0.2,2.3-0.5,4.8-2.2,6.7C46.3,48.6,44.1,49.6,41.7,49.8z M49.1,31.3c-2.6-2.2-5.9-3.2-9-2.9c-3.2,0.2-6.2,1.7-8.5,4.3
	s-3.2,5.9-2.9,9c0.2,3.2,1.7,6.2,4.3,8.5c2.6,2.2,5.9,3.2,9,2.9c3.2-0.2,6.2-1.7,8.5-4.3c2.2-2.6,3.2-5.9,2.9-9
	c-0.2-2.7-1.3-5.2-3.1-7.3C49.9,32,49.5,31.6,49.1,31.3z M27.8,58.3l-2.2-1.9c-0.5-0.4-1.2-0.4-1.6,0.1l-5.6,6.6
	c-0.4,0.5-0.4,1.2,0.1,1.6l2.2,1.9c0.5,0.4,1.2,0.4,1.6-0.1l5.6-6.6C28.3,59.4,28.3,58.7,27.8,58.3z M69.4,59.8h9.4
	c1.2,0,2.2,1,2.2,2.2v7c0,1.2-1,2.2-2.2,2.2h-9.4c-1.2,0-2.2-1-2.2-2.2v-7C67.2,60.7,68.2,59.8,69.4,59.8z"/>
</svg>
