<?xml version="1.0" encoding="utf-8"?>
<!-- Generator: Adobe Illustrator 16.0.0, SVG Export Plug-In . SVG Version: 6.00 Build 0)  -->
<!DOCTYPE svg PUBLIC "-//W3C//DTD SVG 1.1//EN" "http://www.w3.org/Graphics/SVG/1.1/DTD/svg11.dtd">
<svg version="1.1" id="Layer_1" xmlns="http://www.w3.org/2000/svg" xmlns:xlink="http://www.w3.org/1999/xlink" x="0px" y="0px"
	 width="1175px" height="42.2px" viewBox="0 0 1175 42.2" style="enable-background:new 0 0 1175 42.2;" xml:space="preserve">
<style type="text/css">
<![CDATA[
	.st0{fill:#E7AC00;}
	.st1{fill:#595959;}
	.st2{fill:#FFCC00;}
	.st3{fill:#3C3C3B;}
]]>
</style>
<g>
	<path class="st2" d="M581.8,22.1l-2-3.1l9.8-5.6l0.9,1.4l7.9-1.4l6.8,10.6c0.2-1,0.3-1.9,0.3-2.9c0-9.6-7.9-17.5-17.5-17.5
		c-9.6,0-17.5,7.9-17.5,17.5c0,8.4,6.1,15.5,14,17.2l-5.6-9L581.8,22.1z"/>
	<path class="st2" d="M589.9,38.5c0,0-0.1,0-0.1,0C589.8,38.5,589.9,38.5,589.9,38.5z"/>
	<path class="st0" d="M589.8,38.5c-0.6,0.1-1.2,0.1-1.8,0.1C588.6,38.6,589.2,38.6,589.8,38.5z"/>
	<path class="st0" d="M584.4,38.3h0.1c1.1,0.2,2.3,0.3,3.5,0.3C586.7,38.6,585.5,38.5,584.4,38.3L584.4,38.3z"/>
	<path class="st0" d="M605.2,24l-6.8-10.6l-7.9,1.4l-0.9-1.4l-9.8,5.6l2,3.1l-3.2,7.1l5.7,9c1.2,0.3,2.4,0.4,3.7,0.4
		c0.6,0,1.2,0,1.8-0.1c0,0,0.1,0,0.1,0C597.7,37.7,604,31.7,605.2,24z"/>
	<polygon class="st3" points="589.6,13.4 581.6,29.2 578.6,29.2 581.6,18.9 579.3,18.9 581.5,13.4 583.2,13.4 587.1,13.4 	"/>
	<polygon class="st3" points="598.4,13.4 590.4,29.2 587.4,29.2 590.4,18.9 588.1,18.9 590.3,13.4 592,13.4 595.9,13.4 	"/>
</g>
<rect x="2.2" y="20.7" class="st1" width="564.3" height="0.5"/>
<rect x="609.5" y="20.7" class="st1" width="564.3" height="0.5"/>
</svg>
