<?xml version="1.0" encoding="utf-8"?>
<!-- Generator: Adobe Illustrator 16.0.0, SVG Export Plug-In . SVG Version: 6.00 Build 0)  -->
<!DOCTYPE svg PUBLIC "-//W3C//DTD SVG 1.1//EN" "http://www.w3.org/Graphics/SVG/1.1/DTD/svg11.dtd">
<svg version="1.1" id="Layer_1" xmlns="http://www.w3.org/2000/svg" xmlns:xlink="http://www.w3.org/1999/xlink" x="0px" y="0px"
	 width="48px" height="48px" viewBox="0 0 48 48" style="enable-background:new 0 0 48 48;" xml:space="preserve">
<style type="text/css">
<![CDATA[
	.st0{fill-rule:evenodd;clip-rule:evenodd;}
	.st1{fill-rule:evenodd;clip-rule:evenodd;fill:#FFCB05;}
]]>
</style>
<g>
	<path class="st0" d="M17.989,47.141L17.96,47.09c-0.029-0.041-0.056-0.084-0.08-0.129c-0.029-0.041-0.056-0.084-0.081-0.129
		c-0.029-0.042-0.056-0.086-0.08-0.13c-0.029-0.041-0.056-0.083-0.08-0.128c-0.028-0.041-0.056-0.084-0.08-0.129
		c-0.028-0.041-0.056-0.084-0.08-0.128c-0.029-0.042-0.057-0.087-0.082-0.132c-0.028-0.041-0.055-0.084-0.079-0.127
		c-0.029-0.043-0.056-0.086-0.081-0.13c-0.028-0.042-0.055-0.084-0.079-0.128c-0.029-0.042-0.056-0.086-0.081-0.13
		c-0.028-0.042-0.056-0.085-0.08-0.129c-0.029-0.042-0.056-0.085-0.081-0.13c-0.028-0.041-0.056-0.084-0.08-0.129
		c-0.028-0.041-0.055-0.084-0.079-0.127c-0.029-0.043-0.057-0.086-0.082-0.131c-0.028-0.042-0.056-0.084-0.08-0.129
		c-0.028-0.041-0.056-0.084-0.08-0.129c-0.028-0.041-0.055-0.084-0.079-0.127c-0.029-0.042-0.056-0.085-0.08-0.129
		c-0.029-0.042-0.057-0.086-0.081-0.131c-0.029-0.041-0.057-0.085-0.081-0.129c-0.028-0.042-0.056-0.085-0.08-0.129
		c-0.028-0.041-0.055-0.084-0.08-0.129c-0.028-0.041-0.056-0.084-0.08-0.129c-0.029-0.041-0.057-0.085-0.081-0.129
		c-0.028-0.041-0.055-0.084-0.079-0.128c-0.029-0.042-0.056-0.085-0.081-0.13c-0.028-0.041-0.055-0.084-0.079-0.127
		c-0.029-0.043-0.058-0.087-0.082-0.133c-0.029-0.041-0.056-0.084-0.08-0.128c-0.028-0.042-0.055-0.083-0.08-0.128
		c-0.028-0.041-0.056-0.084-0.08-0.129c-0.028-0.041-0.055-0.084-0.079-0.128c-0.03-0.042-0.058-0.087-0.082-0.132
		c-0.029-0.041-0.056-0.084-0.08-0.128c-0.028-0.042-0.056-0.085-0.08-0.13c-0.028-0.041-0.056-0.083-0.08-0.127
		c-0.029-0.042-0.056-0.085-0.081-0.13c-0.028-0.042-0.056-0.085-0.08-0.129c-0.029-0.042-0.057-0.085-0.081-0.13
		c-0.028-0.041-0.055-0.084-0.079-0.129c-0.029-0.041-0.056-0.083-0.08-0.127c-0.029-0.042-0.057-0.086-0.081-0.131
		c-0.029-0.041-0.056-0.084-0.081-0.129c-0.028-0.041-0.055-0.084-0.079-0.129c-0.029-0.041-0.056-0.084-0.08-0.127
		c-0.029-0.043-0.056-0.086-0.081-0.131c-0.029-0.041-0.056-0.084-0.08-0.129c-0.029-0.042-0.056-0.085-0.081-0.129
		c-0.028-0.041-0.055-0.084-0.08-0.129c-0.028-0.041-0.055-0.084-0.08-0.129c-0.028-0.041-0.056-0.084-0.08-0.129
		c-0.029-0.041-0.056-0.085-0.081-0.13c-0.028-0.041-0.056-0.084-0.08-0.128c-0.028-0.042-0.056-0.086-0.08-0.13
		c-0.028-0.041-0.056-0.083-0.079-0.128c-0.029-0.041-0.057-0.085-0.082-0.13c-0.028-0.041-0.055-0.083-0.079-0.128
		c-0.029-0.041-0.056-0.084-0.081-0.129c-0.028-0.041-0.055-0.084-0.079-0.127c-0.029-0.043-0.057-0.087-0.082-0.133
		c-0.028-0.041-0.056-0.084-0.08-0.129c-0.028-0.041-0.056-0.084-0.08-0.128c-0.028-0.042-0.056-0.085-0.08-0.129
		c-0.029-0.042-0.056-0.084-0.08-0.128c-0.029-0.042-0.056-0.086-0.08-0.131c-0.029-0.041-0.057-0.084-0.081-0.129
		c-0.029-0.041-0.056-0.084-0.08-0.129c-0.029-0.041-0.056-0.084-0.08-0.129c-0.029-0.041-0.056-0.084-0.08-0.127
		c-0.029-0.043-0.056-0.086-0.081-0.131c-0.028-0.041-0.056-0.084-0.08-0.129c-0.028-0.041-0.055-0.084-0.08-0.127
		c-0.028-0.042-0.056-0.085-0.08-0.129c-0.028-0.043-0.056-0.086-0.081-0.131c-0.167-0.24-0.266-0.532-0.266-0.846
		c0-0.229,0-0.457,0-0.686v-0.002c0,0,0,0,0-0.002l0,0c0-0.001,0-0.002,0-0.002c0-1.891,0-3.779,0-5.67l0,0
		c0-3.109,1.717-5.834,4.241-7.263l0.048,0.147l0.032-0.019l0.048,0.148l0.033-0.019l0.047,0.148l0.033-0.019l0.047,0.148
		l0.033-0.019l0.048,0.148l0.032-0.02l0.048,0.148l0.033-0.02l0.047,0.148l0.033-0.02l0.047,0.148l0.033-0.02l0.048,0.148
		l0.033-0.019l0.047,0.148l0.033-0.019l0.047,0.148l0.033-0.019l0.047,0.148l0.033-0.019l0.047,0.148l0.034-0.019l0.047,0.148
		l0.033-0.02l0.047,0.148l0.033-0.019l0.047,0.148l0.033-0.019l0.047,0.149l0.033-0.02l0.048,0.147l0.033-0.019l0.047,0.148
		l0.033-0.02l0.047,0.148l0.033-0.02l0.048,0.148l0.032-0.02l0.048,0.148l0.033-0.02l0.047,0.148l0.033-0.02l0.047,0.148l0.033-0.02
		l0.048,0.148l0.032-0.02l0.048,0.148l0.033-0.02l0.047,0.148L18,26.299l0.047,0.148l0.033-0.02l0.047,0.148l0.033-0.02l0.048,0.148
		l0.033-0.02l0.047,0.148l0.033-0.02l0.047,0.148l0.033-0.02l0.047,0.148l0.033-0.02l0.048,0.148l0.033-0.019l0.047,0.147
		l0.033-0.019l0.047,0.147l0.033-0.019l0.047,0.147l0.033-0.019l0.048,0.147l0.033-0.019l0.047,0.148l0.033-0.02l0.047,0.147
		l0.033-0.019l0.047,0.148l0.033-0.019l0.048,0.147l0.032-0.019l0.048,0.147l0.033-0.019l0.047,0.147l0.033-0.019l0.048,0.147
		l0.032-0.019l0.048,0.148l0.032-0.02l0.048,0.148l0.033-0.02l0.047,0.148l0.033-0.02l0.047,0.148l0.033-0.02l0.048,0.148
		l0.032-0.02l0.048,0.148l0.033-0.02l0.047,0.148l0.033-0.02l0.047,0.148l0.033-0.02l0.023,0.072l0.202-0.371
		c-0.033-0.039-0.061-0.082-0.08-0.129c-0.033-0.039-0.061-0.082-0.081-0.129c-0.032-0.038-0.06-0.082-0.08-0.129
		c-0.032-0.039-0.061-0.082-0.08-0.129c-0.033-0.039-0.061-0.082-0.081-0.13c-0.032-0.038-0.06-0.081-0.08-0.129
		c-0.032-0.038-0.06-0.081-0.08-0.129c-0.032-0.038-0.06-0.081-0.08-0.128c-0.033-0.039-0.061-0.082-0.081-0.13
		c-0.032-0.038-0.06-0.082-0.08-0.129c-0.033-0.038-0.06-0.083-0.08-0.13c-0.033-0.037-0.06-0.081-0.08-0.128
		c-0.033-0.038-0.061-0.082-0.081-0.13c-0.032-0.037-0.06-0.081-0.08-0.129c-0.033-0.037-0.06-0.082-0.08-0.129
		c-0.033-0.038-0.06-0.082-0.08-0.129c-0.033-0.038-0.061-0.081-0.08-0.129c-0.033-0.037-0.061-0.082-0.081-0.129
		c-0.033-0.039-0.06-0.082-0.08-0.129c-0.033-0.039-0.06-0.082-0.08-0.129c-0.033-0.039-0.06-0.082-0.08-0.129
		c-0.033-0.039-0.061-0.082-0.08-0.129c-0.033-0.039-0.061-0.082-0.081-0.129c-0.033-0.039-0.06-0.082-0.08-0.129
		c-0.033-0.039-0.06-0.082-0.08-0.129c-0.033-0.039-0.061-0.082-0.081-0.129c-0.032-0.039-0.06-0.082-0.08-0.129
		c-0.033-0.039-0.06-0.082-0.08-0.129c-0.032-0.039-0.061-0.082-0.08-0.129c-0.033-0.039-0.061-0.082-0.081-0.13
		c-0.032-0.038-0.06-0.081-0.08-0.128c-0.033-0.039-0.061-0.082-0.08-0.13c-0.033-0.038-0.061-0.082-0.08-0.128
		c-0.033-0.039-0.061-0.083-0.081-0.13c-0.032-0.039-0.06-0.082-0.08-0.129c-0.032-0.039-0.06-0.082-0.08-0.129
		c-0.033-0.039-0.061-0.082-0.08-0.129c-0.033-0.038-0.061-0.082-0.081-0.129c-0.032-0.038-0.06-0.082-0.08-0.129
		c-0.032-0.038-0.06-0.081-0.08-0.128c-0.033-0.039-0.06-0.082-0.08-0.129c-0.076-0.089-0.122-0.206-0.122-0.333
		c0-0.282,0.226-0.51,0.506-0.51l0,0c0.055,0,0.107,0.008,0.156,0.024c-0.018-0.027-0.034-0.055-0.051-0.087
		c-0.027-0.038-0.055-0.08-0.08-0.128c-0.028-0.038-0.055-0.081-0.081-0.13c-0.027-0.037-0.055-0.08-0.08-0.128
		c-0.027-0.038-0.055-0.081-0.08-0.129c-0.028-0.038-0.055-0.08-0.08-0.128c-0.028-0.038-0.056-0.081-0.081-0.13
		c-0.027-0.038-0.055-0.081-0.08-0.129c-0.027-0.037-0.055-0.08-0.08-0.128c-0.027-0.038-0.055-0.081-0.081-0.129
		c-0.027-0.037-0.054-0.08-0.079-0.128c-0.028-0.038-0.056-0.081-0.081-0.13c-0.028-0.038-0.055-0.08-0.08-0.128
		c-0.028-0.038-0.055-0.081-0.081-0.13c-0.027-0.037-0.054-0.08-0.079-0.128c-0.028-0.037-0.055-0.08-0.08-0.129
		c-0.028-0.038-0.056-0.081-0.081-0.129c-0.028-0.038-0.055-0.081-0.081-0.129c-0.027-0.037-0.054-0.08-0.079-0.128
		c-0.028-0.038-0.055-0.08-0.08-0.129c-0.028-0.038-0.055-0.08-0.08-0.128c-0.19-0.254-0.329-0.754-0.354-1.733
		c-0.052-2.102,1.459-5.411,3.259-5.411l0,0c0.361,0,0.708,0.101,1.033,0.288c0.325-0.187,0.673-0.288,1.034-0.288
		c0.824,0,1.588,0.695,2.169,1.651c0.027,0.042,0.055,0.085,0.08,0.129c0.028,0.043,0.057,0.088,0.083,0.133
		c0.029,0.044,0.057,0.089,0.085,0.135c0.024,0.039,0.049,0.079,0.073,0.119c0.027,0.042,0.054,0.085,0.08,0.129
		c0.028,0.043,0.056,0.088,0.083,0.133c0.029,0.044,0.057,0.09,0.085,0.135c0.024,0.039,0.049,0.079,0.073,0.119l0.003,0.005
		c0.026,0.041,0.052,0.082,0.078,0.124l0.007,0.012c0.023,0.037,0.047,0.074,0.07,0.112c0.03,0.047,0.061,0.095,0.09,0.144
		c0.024,0.039,0.049,0.079,0.073,0.119l0.004,0.006c0.028,0.044,0.057,0.089,0.084,0.134c0.026,0.042,0.053,0.084,0.079,0.127
		c0.024,0.039,0.049,0.078,0.073,0.118c0.029,0.045,0.059,0.092,0.087,0.139l0.005,0.008l0.067,0.108l0.002,0.004l0.001,0.002
		l0.004,0.006c0.025,0.04,0.051,0.08,0.076,0.121v0.001l0.003,0.003l0.002,0.004l0.065,0.104V11.4c0-0.585,0.477-1.065,1.059-1.065
		c3.548,0,7.095,0,10.642,0c0.403,0,0.757,0.231,0.935,0.568c0.03,0.041,0.057,0.084,0.08,0.128c0.03,0.042,0.058,0.085,0.081,0.13
		c0.03,0.041,0.057,0.084,0.08,0.129c0.03,0.041,0.057,0.084,0.08,0.128c0.029,0.041,0.057,0.083,0.08,0.128
		c0.03,0.041,0.058,0.084,0.081,0.13c0.03,0.041,0.057,0.084,0.08,0.129c0.03,0.041,0.057,0.084,0.08,0.129
		c0.03,0.041,0.058,0.084,0.081,0.13c0.029,0.04,0.056,0.083,0.079,0.127c0.03,0.041,0.057,0.084,0.081,0.13
		c0.029,0.041,0.057,0.084,0.08,0.129c0.03,0.041,0.057,0.084,0.081,0.13c0.029,0.041,0.057,0.084,0.08,0.129
		c0.029,0.041,0.056,0.083,0.08,0.127c0.029,0.042,0.057,0.085,0.081,0.131c0.029,0.041,0.057,0.084,0.08,0.129
		c0.029,0.041,0.057,0.084,0.08,0.129c0.029,0.041,0.057,0.083,0.08,0.128c0.03,0.042,0.057,0.085,0.081,0.13
		c0.029,0.041,0.056,0.083,0.079,0.127c0.03,0.041,0.058,0.085,0.081,0.13c0.029,0.041,0.057,0.083,0.08,0.128
		c0.029,0.041,0.057,0.084,0.08,0.129c0.03,0.041,0.058,0.084,0.081,0.13c0.029,0.041,0.056,0.083,0.08,0.128
		c0.029,0.041,0.057,0.084,0.08,0.13c0.03,0.041,0.057,0.083,0.08,0.128c0.029,0.041,0.057,0.084,0.08,0.129
		c0.03,0.041,0.058,0.085,0.081,0.13c0.03,0.041,0.057,0.084,0.08,0.129c0.03,0.041,0.057,0.083,0.08,0.128
		c0.03,0.041,0.057,0.084,0.08,0.128c0.03,0.041,0.057,0.084,0.081,0.129c0.029,0.041,0.057,0.084,0.08,0.129
		c0.029,0.041,0.057,0.084,0.08,0.128c0.029,0.041,0.057,0.084,0.08,0.129c0.029,0.041,0.057,0.084,0.08,0.128
		c0.03,0.042,0.058,0.085,0.082,0.13c0.029,0.041,0.057,0.084,0.08,0.129c0.029,0.041,0.056,0.083,0.08,0.128
		c0.029,0.041,0.056,0.083,0.079,0.128c0.03,0.042,0.058,0.085,0.082,0.13c0.029,0.041,0.056,0.083,0.079,0.128
		c0.029,0.041,0.058,0.084,0.081,0.13c0.029,0.041,0.057,0.084,0.08,0.129c0.029,0.041,0.056,0.083,0.08,0.127
		c0.029,0.042,0.057,0.085,0.081,0.13c0.029,0.042,0.057,0.084,0.08,0.129c0.029,0.041,0.057,0.084,0.08,0.129
		c0.029,0.041,0.057,0.083,0.08,0.128c0.029,0.041,0.057,0.083,0.08,0.128c0.03,0.041,0.057,0.084,0.081,0.129
		c0.029,0.041,0.056,0.084,0.08,0.129c0.029,0.041,0.056,0.083,0.079,0.128c0.03,0.041,0.057,0.083,0.08,0.128
		c0.03,0.042,0.058,0.085,0.082,0.13c0.029,0.041,0.056,0.084,0.08,0.129c0.029,0.041,0.056,0.084,0.08,0.129
		c0.029,0.041,0.057,0.084,0.08,0.129c0.029,0.041,0.057,0.083,0.08,0.127c0.029,0.041,0.057,0.085,0.08,0.13
		c0.03,0.041,0.058,0.084,0.081,0.129c0.029,0.041,0.057,0.083,0.08,0.129c0.029,0.041,0.057,0.084,0.08,0.129
		c0.03,0.041,0.057,0.083,0.08,0.127c0.03,0.041,0.057,0.084,0.081,0.13c0.029,0.041,0.056,0.084,0.08,0.129
		c0.03,0.041,0.057,0.084,0.081,0.13c0.029,0.04,0.056,0.083,0.079,0.127c0.03,0.041,0.057,0.084,0.081,0.13
		c0.029,0.041,0.056,0.083,0.08,0.128c0.03,0.042,0.057,0.085,0.081,0.13c0.029,0.041,0.056,0.083,0.079,0.128
		c0.03,0.041,0.057,0.084,0.08,0.128c0.03,0.042,0.058,0.084,0.081,0.13c0.03,0.041,0.056,0.084,0.08,0.128
		c0.03,0.041,0.057,0.085,0.081,0.13c0.029,0.041,0.056,0.083,0.079,0.127c0.03,0.041,0.057,0.084,0.081,0.129
		c0.029,0.041,0.057,0.084,0.08,0.129c0.03,0.041,0.057,0.084,0.081,0.13c0.029,0.041,0.056,0.083,0.079,0.128
		c0.029,0.041,0.057,0.083,0.08,0.128c0.03,0.042,0.058,0.085,0.081,0.13c0.03,0.041,0.057,0.084,0.08,0.129
		c0.03,0.041,0.058,0.083,0.08,0.128c0.03,0.041,0.058,0.084,0.081,0.13c0.029,0.04,0.056,0.083,0.079,0.127
		c0.03,0.042,0.058,0.084,0.081,0.13c0.03,0.041,0.057,0.084,0.081,0.129c0.029,0.042,0.057,0.084,0.08,0.13
		c0.029,0.041,0.056,0.083,0.08,0.128c0.029,0.041,0.057,0.084,0.08,0.129c0.03,0.041,0.057,0.084,0.081,0.129
		c0.029,0.041,0.056,0.083,0.08,0.129c0.029,0.041,0.057,0.084,0.08,0.129c0.029,0.041,0.056,0.083,0.079,0.127
		c0.03,0.041,0.058,0.084,0.081,0.13c0.03,0.041,0.057,0.084,0.081,0.129c0.029,0.041,0.057,0.084,0.081,0.129
		c0.029,0.041,0.056,0.084,0.079,0.128c0.03,0.041,0.057,0.084,0.08,0.129c0.03,0.041,0.058,0.084,0.081,0.13
		c0.029,0.041,0.057,0.083,0.08,0.128c0.029,0.042,0.057,0.084,0.081,0.13c0.028,0.041,0.056,0.083,0.079,0.127
		c0.03,0.041,0.057,0.084,0.081,0.13c0.029,0.041,0.057,0.084,0.08,0.129c0.03,0.041,0.057,0.084,0.08,0.129
		c0.03,0.041,0.057,0.084,0.08,0.129c0.029,0.041,0.057,0.084,0.08,0.128c0.03,0.042,0.058,0.085,0.081,0.13
		c0.03,0.041,0.057,0.084,0.08,0.129c0.03,0.041,0.057,0.084,0.081,0.129c0.029,0.041,0.057,0.084,0.08,0.13
		c0.029,0.04,0.056,0.083,0.079,0.127c0.03,0.042,0.057,0.085,0.081,0.13c0.029,0.041,0.057,0.084,0.08,0.129
		c0.03,0.041,0.058,0.085,0.081,0.131c0.029,0.04,0.056,0.082,0.079,0.127c0.03,0.041,0.057,0.084,0.081,0.129
		c0.029,0.041,0.057,0.084,0.08,0.129c0.03,0.041,0.057,0.085,0.081,0.131c0.029,0.041,0.057,0.084,0.08,0.129
		c0.029,0.04,0.057,0.082,0.08,0.127c0.029,0.041,0.057,0.086,0.081,0.131c0.029,0.041,0.057,0.084,0.08,0.129
		c0.029,0.041,0.057,0.084,0.08,0.129c0.029,0.041,0.057,0.084,0.08,0.128c0.03,0.041,0.058,0.085,0.081,0.13
		c0.029,0.041,0.056,0.084,0.079,0.128c0.03,0.042,0.058,0.085,0.081,0.13c0.029,0.041,0.057,0.084,0.08,0.129
		c0.014,0.02,0.027,0.039,0.04,0.06C45.995,39.477,36.181,48,24.375,48C22.163,48,20.022,47.7,17.989,47.141z"/>
	<path class="st1" d="M23.778,22.676c2.535,1.426,4.262,4.156,4.262,7.275c0,2.121,0.021,4.239,0.021,6.36
		c0,0.817-0.664,1.483-1.473,1.483h-5.016l-2.312-6.779L23.778,22.676L23.778,22.676z M24.482,11.271v6.831
		c0,0.586,0.476,1.065,1.059,1.065h1.25v1.945c0,0.409,0.097,0.645,0.547,0.315l3.086-2.261l5.759,0
		c0.581,0,1.058-0.479,1.058-1.065v-6.831c0-0.586-0.477-1.065-1.058-1.065H25.541C24.958,10.207,24.482,10.686,24.482,11.271
		L24.482,11.271z M25.686,17.22L25.686,17.22c0-0.177,0.143-0.32,0.317-0.32h9.717c0.174,0,0.317,0.144,0.317,0.319v0.094
		c0,0.175-0.144,0.319-0.317,0.319h-9.717c-0.175,0-0.317-0.144-0.317-0.319V17.22L25.686,17.22z M25.686,14.57L25.686,14.57
		c0-0.177,0.143-0.319,0.317-0.319h9.717c0.174,0,0.317,0.143,0.317,0.318v0.095c0,0.175-0.144,0.32-0.317,0.32h-9.717
		c-0.175,0-0.317-0.145-0.317-0.32V14.57L25.686,14.57z M25.686,11.978L25.686,11.978c0-0.176,0.143-0.321,0.317-0.321h9.717
		c0.174,0.001,0.317,0.145,0.317,0.321v0.093c0,0.175-0.144,0.319-0.317,0.319h-9.717c-0.175,0-0.317-0.144-0.317-0.319V11.978
		L25.686,11.978z M18.729,13.308c-1.8,0-3.311,3.31-3.259,5.411s0.631,1.995,1.113,1.988l0.182-0.003
		c0.62,1.369,1.74,2.282,3.02,2.282s2.4-0.913,3.021-2.282l0.136,0.002c0.483,0.007,1.062,0.113,1.113-1.988
		c0.053-2.102-1.46-5.411-3.258-5.411c-0.361,0-0.709,0.101-1.034,0.288C19.438,13.409,19.091,13.308,18.729,13.308L18.729,13.308
		L18.729,13.308z M18.371,24.021L18.371,24.021c0.28,0,0.506,0.228,0.506,0.509c0,0.282-0.226,0.511-0.506,0.511
		c-0.279,0-0.507-0.229-0.507-0.511S18.092,24.021,18.371,24.021L18.371,24.021z M19.75,24.465c-0.279,0-0.506,0.229-0.506,0.51
		s0.227,0.51,0.506,0.51c0.28,0,0.506-0.229,0.506-0.51S20.03,24.465,19.75,24.465L19.75,24.465L19.75,24.465z M22.247,23.093
		L22.247,23.093c-0.279,0-0.506,0.228-0.506,0.511c0,0.281,0.227,0.51,0.506,0.51c0.28,0,0.507-0.228,0.507-0.51
		C22.754,23.321,22.527,23.094,22.247,23.093L22.247,23.093z M21.2,24.021L21.2,24.021c-0.28,0-0.507,0.228-0.507,0.509
		c0,0.282,0.227,0.511,0.507,0.511s0.506-0.229,0.506-0.511S21.48,24.021,21.2,24.021L21.2,24.021z M17.323,23.093L17.323,23.093
		c0.28,0,0.506,0.228,0.506,0.511c0,0.281-0.226,0.51-0.506,0.51c-0.279,0-0.506-0.228-0.506-0.51
		C16.817,23.321,17.044,23.094,17.323,23.093L17.323,23.093z M11.51,29.951v5.67v0.001v0.001v0.002v0.002v0.685
		c0,0.817,0.665,1.483,1.472,1.483h7.582l-4.813-15.107C13.227,24.116,11.51,26.842,11.51,29.951L11.51,29.951z"/>
</g>
</svg>
