<?xml version="1.0" encoding="utf-8"?>
<!-- Generator: Adobe Illustrator 16.0.0, SVG Export Plug-In . SVG Version: 6.00 Build 0)  -->
<!DOCTYPE svg PUBLIC "-//W3C//DTD SVG 1.1//EN" "http://www.w3.org/Graphics/SVG/1.1/DTD/svg11.dtd">
<svg version="1.1" id="Layer_1" xmlns="http://www.w3.org/2000/svg" xmlns:xlink="http://www.w3.org/1999/xlink" x="0px" y="0px"
	 width="59.808px" height="53.11px" viewBox="0 0 59.808 53.11" style="enable-background:new 0 0 59.808 53.11;"
	 xml:space="preserve">
<style type="text/css">
<![CDATA[
	.st0{fill:#575756;}
	.st1{fill:#575757;}
]]>
</style>
<g>
	<path class="st0" d="M38.357,26.32c0.011,0.001,0.023,0.001,0.04-0.001C38.38,26.315,38.368,26.316,38.357,26.32z"/>
	<path class="st0" d="M37.536,22.941l0.032,0.031C37.556,22.949,37.546,22.942,37.536,22.941z"/>
	<path class="st0" d="M38.646,28.363l-0.01-0.003c0.003,0.032,0.008,0.075,0.015,0.144L38.646,28.363z"/>
	<path class="st0" d="M33.831,16.448l0.033,0.035C33.849,16.466,33.843,16.453,33.831,16.448z"/>
	<path class="st0" d="M36.3,20.16c-0.021-0.004-0.036-0.021-0.051-0.039C36.259,20.148,36.273,20.167,36.3,20.16z"/>
	<path class="st0" d="M37.969,29.53l0.048-0.063C37.993,29.471,37.97,29.494,37.969,29.53z"/>
	<path class="st0" d="M38.323,31.537l0.013-0.006C38.33,31.528,38.326,31.532,38.323,31.537z"/>
	<path class="st0" d="M38.51,30.728c-0.007-0.017-0.018-0.036-0.028-0.056C38.485,30.696,38.487,30.727,38.51,30.728z"/>
	<path class="st0" d="M38.466,30.645l0.016,0.027C38.479,30.657,38.476,30.644,38.466,30.645z"/>
	<path class="st0" d="M8.721,9.63C8.662,9.628,8.612,9.671,8.559,9.708L8.721,9.63z"/>
	<path class="st0" d="M28.497,12.132l0.023-0.014C28.505,12.118,28.5,12.124,28.497,12.132z"/>
	<path class="st0" d="M8.648,10.127l-0.042-0.012C8.622,10.125,8.635,10.128,8.648,10.127z"/>
	<path class="st0" d="M37.655,28.498c-0.064-0.048-0.016-0.176-0.07-0.167C37.603,28.39,37.575,28.482,37.655,28.498z"/>
	<path class="st0" d="M26.343,13.448l-0.035-0.013C26.324,13.443,26.334,13.447,26.343,13.448z"/>
	<path class="st0" d="M8.648,10.127l0.048,0.013l-0.015-0.028C8.671,10.121,8.66,10.126,8.648,10.127z"/>
	<polygon class="st0" points="21.754,9.913 21.756,9.914 21.772,9.906 	"/>
	<path class="st0" d="M21.401,9.758c0.026-0.001,0.053-0.002,0.082-0.004C21.442,9.741,21.419,9.747,21.401,9.758z"/>
	<path class="st0" d="M8.559,9.708L8.466,9.752C8.5,9.745,8.53,9.728,8.559,9.708z"/>
	<path class="st0" d="M17.417,9.396l0.037-0.005C17.438,9.389,17.426,9.391,17.417,9.396z"/>
	<path class="st0" d="M36.404,20.428l0.004,0.035C36.422,20.46,36.429,20.454,36.404,20.428z"/>
	<polygon class="st0" points="33.699,18.974 33.699,18.973 33.698,18.973 	"/>
	<path class="st0" d="M33.834,19.046c-0.015-0.043-0.083-0.071-0.135-0.073C33.724,19.009,33.757,19.036,33.834,19.046z"/>
	<path class="st0" d="M33.553,18.711l0.004,0.018L33.553,18.711z"/>
	<polygon class="st0" points="34.982,21.103 34.987,21.1 34.982,21.101 	"/>
	<path class="st0" d="M34.718,20.619c0.005-0.015,0.006-0.031,0.004-0.047C34.717,20.586,34.715,20.602,34.718,20.619z"/>
	<polygon class="st0" points="32.542,17.77 32.543,17.769 32.541,17.768 	"/>
	<path class="st0" d="M28.458,14.741c0.415,0.272,1.051,0.485,1.398,0.875c0.155-0.019,0.28,0.085,0.419,0.171l-0.085,0.129
		l0.133,0.05c0.012,0.072-0.097-0.045-0.061,0.062l0.1-0.04c-0.027,0.049,0.238,0.254-0.004,0.19l0.394,0.341
		c0.084,0.079,0.137-0.05,0.208,0.061c-0.011,0.05-0.056-0.007-0.085,0.04c0.204,0.338,0.555,0.059,0.752,0.374l-0.035-0.009
		c0.069,0.017,0.143,0.108,0.16,0.094c0.079-0.143-0.103,0.011-0.111-0.136c0.098-0.085,0.141,0.053,0.207-0.021
		c0.023,0.097,0.109,0.082,0.165,0.133c0.026,0.151,0.189,0.247,0.178,0.387c0.071,0.018,0.211-0.017,0.305,0.08
		c-0.012,0.14-0.087,0.048-0.029,0.171l0.07-0.035c0.063,0.087,0.035,0.089,0.006,0.109c0.074,0.087,0.142,0.002,0.2,0.141
		l-0.108-0.011c0.092,0.06,0.111,0.1,0.205,0.214c-0.036,0.025-0.073-0.02-0.092-0.061c-0.032,0.132,0.128,0.07,0.147,0.111
		c0.017-0.03-0.04-0.116,0.051-0.126c0.038,0.063,0.183,0.051,0.149,0.147l-0.109-0.013c0.147,0.076,0.127,0.001,0.222,0.15
		c-0.011-0.003-0.022,0.012-0.037,0.019c0.147,0.024,0.188,0.179,0.268,0.324l-0.034-0.013c0.058,0.039,0.132,0.028,0.148,0.061
		c-0.019-0.104,0.013-0.097,0.066-0.148c-0.028,0.179,0.223,0.07,0.281,0.284c-0.036,0.023-0.106,0.014-0.102-0.06
		c-0.142,0.019-0.233,0.078-0.35,0.013c0.066,0.045,0.132,0.108,0.078,0.125l0.108-0.052c0.029,0.037,0.044,0.071,0.064,0.1
		c0.072-0.028,0.045-0.151,0.146-0.091c0.101,0.078-0.062,0.126-0.007,0.11c0.133,0.11,0.143-0.018,0.203,0.139
		c-0.018-0.008-0.052-0.021-0.051-0.04c0.027,0.124,0.18,0.224,0.082,0.333c-0.036,0.004-0.073,0.026-0.088-0.017l0.019-0.011
		c-0.157-0.045,0.083,0.071-0.045,0.112c0.058-0.051,0.136,0.092,0.166,0.16l0.06-0.069c0.355,0.054-0.151,0.087,0.013,0.265
		c0.136,0.093-0.013-0.061,0.092-0.018c0.046,0.094,0.002,0.167,0.12,0.271c-0.005,0.053,0.003,0.149-0.075,0.207
		c0.085,0.054,0.119,0.249,0.23,0.242c-0.019-0.171-0.175-0.073-0.17-0.29l0.11-0.009c0.067,0.107,0.202,0.214,0.22,0.305
		c0.009-0.025,0.023-0.044,0.048-0.045c0.115,0.142,0.222,0.14,0.279,0.312c-0.065,0.064-0.1-0.035-0.141-0.098
		c-0.008,0.136,0.05,0.108,0.107,0.278c-0.063,0.046-0.051-0.107-0.125-0.088L35,21.092L34.987,21.1
		c0.125-0.038,0.059,0.137,0.147,0.224c0.13,0.25,0.302,0.208,0.467,0.3c-0.011,0.054-0.034,0.08-0.071,0.079
		c0.018-0.088-0.016-0.057-0.057-0.063c0.056,0.079-0.015,0.243-0.085,0.219c0.104,0.117,0.035-0.079,0.113-0.015l0.089,0.188
		c0.047-0.051,0.026-0.123,0.121-0.049c0.059,0.073,0.067,0.118,0.119,0.226c-0.037-0.001-0.072,0.076-0.11-0.004
		c0.004,0.061,0.043,0.142,0.117,0.146c-0.007-0.141,0.151,0.166,0.198,0.036l0.006,0.141c-0.013-0.027-0.054-0.012-0.063-0.056
		c-0.073,0.074,0.076,0.083,0.105,0.12c0,0.05,0.034,0.166,0.002,0.191c0.04,0.027,0.057,0.13,0.017,0.168
		c0.04,0.049,0.062-0.021,0.097-0.018l0.067,0.199c-0.047,0.032-0.182,0.107-0.211,0.086c0.075,0.053,0.16-0.037,0.198,0.077
		c-0.123-0.023-0.02,0.178-0.173,0.134c-0.048,0.093,0.023,0.271,0.088,0.36c0.102,0.031,0.003-0.125,0.086-0.15
		c0.137,0.268,0.367,0.201,0.408,0.423l0.002-0.062c0.096,0.113,0.08,0.102,0.178,0.153c-0.114,0.001-0.215,0.245-0.112,0.448
		c0.058,0,0.052-0.152,0.146-0.146l0.07,0.137c-0.004,0.013-0.027,0.003-0.047-0.011c0.085,0.115-0.042,0.28,0.092,0.277
		l-0.113,0.181l0.05-0.073c0.055,0.002,0.109,0.145,0.137,0.169c0.096,0.133,0.066,0.202,0.022,0.304
		c0.036-0.039,0.115-0.133,0.163-0.019c-0.168,0.048,0.003,0.267-0.085,0.289c0.015,0.047-0.015,0.146,0.056,0.132l-0.107,0.021
		c0.149-0.029,0.188,0.147,0.25,0.274c-0.207,0.021,0.054,0.143-0.112,0.248c0.142-0.009,0.116,0.223,0.237,0.219
		c0.034,0.102-0.096,0.121-0.132,0.157l0.063,0.036c-0.05,0.066-0.009,0.26-0.023,0.383l0.148,0.081L37.5,27.309
		c0.034,0.011,0.065,0.098,0.102,0.032l0.001,0.061c0.133-0.021,0.049,0.076,0.124,0.183c-0.017,0.032-0.05,0.03-0.071,0.008
		c0.008,0.059-0.064,0.047-0.104,0.087c0.027-0.049,0.27,0.167,0.305-0.003c0.053-0.021,0.106,0.065,0.092,0.128l-0.114,0.057
		l0.136,0.048c0.032,0.088-0.039,0.141-0.041,0.217c-0.019-0.075-0.255-0.128-0.223,0.065c-0.031-0.099-0.105-0.138-0.138-0.186
		c0.001,0.041-0.007,0.063-0.067,0.009c0.06,0.144,0.081,0.038,0.119,0.184c-0.108,0.01-0.136,0.057-0.153,0.192l0.063-0.11
		c0.014,0.002,0.024,0.008,0.032,0.014c0.006-0.039,0.021-0.052,0.061-0.067c0.003,0.029,0.159,0.152,0.098,0.188
		c0.144-0.178,0.169,0.244,0.255,0.132c0.034,0.013,0.057,0.118,0.004,0.136c-0.101-0.114-0.107,0.112-0.186,0.103
		c0.038,0.042,0.064-0.11,0.115-0.053c0.019,0.074-0.039,0.138-0.066,0.185l-0.025-0.029l-0.03,0.122
		c0.057,0.012,0.074-0.124,0.118-0.021c-0.018,0.031,0.026,0.134-0.017,0.136c-0.082-0.041-0.174,0.008-0.207-0.08
		c0.019,0.074,0.068,0.31,0.154,0.202l0.01,0.09c0.037-0.062,0.094-0.229,0.137-0.051l-0.022,0.001l0.101,0.116l-0.047,0.062
		c0.027-0.005,0.055,0.013,0.061,0.06c-0.031,0.016-0.037,0.061-0.081,0.062c0.027,0.135,0.076,0.118,0.109,0.133
		c0.012,0.076-0.01,0.106-0.075,0.077c-0.009,0.106,0.015,0.287-0.039,0.363c0.056,0.136,0.021-0.03,0.099,0.045
		c-0.183,0.136-0.049,0.467-0.014,0.694c0.162-0.071,0.022,0.061,0.175,0.096c-0.055-0.047-0.117,0.223-0.174,0.025l0.023,0.121
		c-0.086,0.087-0.078-0.198-0.196-0.066c0.012,0.135,0.198,0.217,0.146,0.38c-0.12-0.05,0.045,0.122-0.085,0.086
		c-0.044-0.032-0.034-0.076-0.045-0.121l-0.021,0.028c-0.018,0.298,0.143,0.082,0.231,0.236c0.024,0.183-0.084,0.146-0.139,0.157
		c-0.021,0.028,0.001,0.119,0.035,0.167c-0.078-0.109,0.063-0.206,0.14-0.156c-0.13,0.082,0.003,0.271,0.059,0.32
		c0.127-0.263-0.003-0.181,0.136-0.43c-0.044-0.033-0.163-0.024-0.122-0.173c0.064,0.091,0.066-0.009,0.085-0.035
		c-0.067,0.03-0.034-0.102-0.065-0.146c0.054-0.044,0.164,0.083,0.185-0.068L38.278,31.3c0.021-0.06,0.12,0.021,0.075-0.104
		c0.088,0.064,0.13-0.025,0.165,0.144c0.128-0.209-0.091-0.31-0.158-0.463c0.011,0.016,0.032,0.017,0.044,0.031
		c-0.044-0.031-0.045-0.092-0.057-0.138c0.031-0.106,0.077,0.077,0.121,0.048l-0.014-0.168c0.006-0.004,0.008-0.005,0.012-0.006
		c-0.024-0.043-0.041-0.084-0.002-0.102c0.055,0.046,0.109,0.063,0.153,0.094l-0.121-0.17c0.054,0.016,0.084-0.154,0.13-0.03
		l-0.037-0.262l0.108-0.031c-0.022-0.063-0.044-0.063-0.054,0.015c0.021-0.093-0.211-0.383,0.006-0.355
		c-0.095-0.199-0.081-0.276-0.172-0.518c0.129,0.179,0.094-0.235,0.171-0.037c0.029-0.125-0.093-0.136-0.125-0.227
		c0.033-0.094,0.146-0.069,0.2,0.022l-0.067-0.106l0.022,0l-0.076-0.089c0.042-0.111,0.105-0.037,0.104-0.146l-0.1-0.01l0.046-0.081
		c-0.04,0.034-0.069-0.027-0.089-0.103l0.021-0.001l-0.032-0.091c0.072,0.084,0.008-0.089,0.083-0.057
		c-0.008-0.082-0.01-0.083-0.05-0.226l-0.062,0.037c-0.085-0.18,0.097-0.024,0.078-0.179l-0.073,0.022
		c0.092-0.243-0.129-0.362-0.073-0.54c0.032,0.09,0.115,0.05,0.094,0.052c-0.052-0.135-0.059-0.372-0.184-0.496
		c0.095-0.075,0.123-0.094,0.133-0.253c-0.034-0.106-0.049-0.119-0.12-0.14c0.014-0.113-0.099-0.293-0.022-0.317
		c-0.067-0.009-0.012-0.097-0.079-0.141l0.028-0.02l-0.071,0.027c0.117-0.226-0.175-0.286-0.08-0.509l0.028,0.026l-0.05-0.07
		c0.029-0.021,0.058,0.005,0.101-0.002l-0.083-0.368l-0.036,0.087c-0.027-0.075-0.112-0.105-0.09-0.206
		c0.147,0.113-0.028-0.122,0.05-0.171l0.049,0.07c-0.035-0.105-0.035-0.105-0.106-0.074c-0.062-0.131,0.114-0.138,0.002-0.242
		l0.021,0.092c-0.035,0.04-0.112-0.007-0.126-0.068c0.007-0.018,0.028-0.071,0.05-0.028c-0.05-0.102-0.073-0.272-0.122-0.309
		c0-0.064,0.06-0.063,0.09-0.039c-0.15-0.205-0.025-0.107-0.175-0.312l0.042-0.011l-0.079-0.06l0.044-0.142l-0.038,0.059
		c-0.036-0.072-0.082-0.107-0.092-0.203l0.073,0.013c-0.113-0.197,0.008-0.281-0.153-0.448c0.006-0.018,0.037,0.006,0.052,0.018
		c-0.165-0.148,0.053-0.182-0.133-0.323c0.024,0.003,0.041-0.027,0.061-0.027l-0.071-0.069l0.083-0.026l-0.145-0.021l0.062-0.086
		l-0.051-0.017c0.118-0.155-0.047-0.235,0.019-0.409l-0.092,0.065c-0.309-0.229-0.215-0.747-0.492-1.067l0.081-0.032l-0.169-0.103
		c0.019-0.111,0.091,0.014,0.118-0.031c-0.126-0.138-0.149-0.008-0.268-0.182c0.002-0.122,0.074,0.003,0.125,0.034
		c-0.129-0.154-0.305-0.387-0.327-0.533c-0.012,0.003-0.029,0.002-0.03,0.011c-0.095-0.096-0.141-0.268-0.212-0.392
		c0.036-0.017,0.058,0.011,0.082,0.039c-0.02-0.048-0.029-0.125-0.084-0.144l0.09,0.01c-0.041-0.105-0.192-0.262-0.138-0.324
		c-0.021,0.028-0.08,0.057-0.131-0.023c0.083-0.114-0.195-0.186-0.222-0.35c0.037-0.002,0.107,0.087,0.09,0.061
		c-0.014-0.083-0.106-0.106-0.179-0.14l0.057-0.012l-0.265-0.254c0.08-0.118-0.208-0.267-0.114-0.301
		c-0.068-0.108,0.013,0.122-0.091-0.003c0.021-0.067-0.105-0.104-0.03-0.149L35.25,18.5l-0.07-0.089l0.11,0.01
		c-0.071-0.07-0.18-0.08-0.236-0.045c-0.014-0.104-0.119-0.188-0.081-0.269l0.036,0.016c-0.174-0.192-0.059-0.496-0.291-0.576
		c0-0.02,0.019-0.032,0.036-0.005c0.003-0.003-0.092-0.132-0.095-0.13l0.076-0.011l-0.254-0.138l0.036-0.024
		c-0.104-0.143-0.305-0.335-0.465-0.496l0.038,0.012c-0.215-0.141-0.128-0.206-0.285-0.309c0.013-0.003,0.02-0.001,0.026,0.002
		l-0.11-0.121l0.055-0.001c-0.149-0.027-0.142-0.341-0.15-0.231c-0.076-0.023-0.191-0.077-0.243-0.055
		c-0.122-0.129,0.012-0.07-0.036-0.178c-0.083-0.099-0.151-0.063-0.24-0.221l0.033-0.028c-0.06-0.056-0.116-0.071-0.197-0.151
		l0.037,0.01c-0.195-0.064-0.083-0.247-0.323-0.207c-0.034-0.077-0.165-0.154-0.1-0.212c-0.213-0.11-0.366-0.208-0.562-0.332
		c0.066-0.131-0.043-0.025-0.095-0.177l-0.042,0.064c-0.25-0.203-0.412-0.592-0.704-0.803l0.04-0.067l-0.106,0.019
		c-0.26-0.29-0.692-0.576-0.942-0.763c-0.107-0.025-0.286-0.035-0.405-0.15l0.02,0c-0.252-0.131-0.539-0.227-0.781-0.421
		c0.033-0.019,0.017-0.053,0.058-0.055c-0.105,0.038-0.16-0.084-0.216-0.119l0.04,0.088c-0.111,0.021-0.187-0.101-0.199-0.172
		l-0.159,0.005c-0.004-0.011-0.011-0.028-0.007-0.04l-0.04,0.023l-0.018-0.125c-0.04,0.001-0.21-0.067-0.306,0
		c0.003-0.035-0.102-0.112-0.004-0.087l-0.443-0.235l0.056,0.064c-0.024,0.073-0.181,0.055-0.236-0.009
		c0.118-0.014,0.053-0.095,0.036-0.165c-0.079,0.009,0.026,0.086-0.024,0.109c-0.099,0.011-0.273-0.039-0.301-0.089l0.059-0.007
		c-0.117-0.022-0.113-0.166-0.22-0.208c-0.118,0.014-0.165-0.069-0.196,0.061c-0.147-0.032-0.019-0.104-0.059-0.133
		c-0.088,0.034-0.267-0.075-0.268-0.146c-0.145,0.152-0.351-0.202-0.435-0.061l-0.083-0.128c-0.019,0.04-0.074,0.123-0.172,0.105
		c-0.071-0.076-0.026-0.14-0.038-0.191l-0.111,0.131c-0.445-0.354-1.159-0.413-1.68-0.723c-0.262-0.028-0.597-0.027-0.886-0.118
		l0.037-0.013l-0.284-0.11l0.197,0.121c-0.068,0.003-0.125,0.022-0.186,0.006c-0.305-0.147-0.723-0.302-1.136-0.292
		c-0.289,0.138-0.144-0.192-0.413-0.103c0.024-0.013,0.036-0.038,0.058-0.053c-0.276,0.013-0.426,0.018-0.708,0.093
		c0.057-0.178-0.174-0.019-0.136-0.111l-0.032,0.071c-0.053-0.053-0.19-0.088-0.163-0.138l-0.13,0.077V9.673
		C20.077,9.646,19.734,9.665,19.67,9.5c-0.4,0.066-1.005-0.017-1.488-0.095c-0.073,0.056-0.215,0.047-0.326,0.049l-0.111-0.099
		c-0.114,0.021-0.241,0.128-0.342,0.063c0.001-0.01,0.006-0.018,0.014-0.022c-0.115,0.011-0.221-0.044-0.333,0.034
		c-0.125-0.013-0.243-0.069-0.2-0.151c-0.021,0.15-0.265-0.039-0.265-0.039s-1.604-0.171-3.394-0.167
		C11.435,9.075,9.481,9.221,8.721,9.63c-0.052,0.075-0.194,0.124-0.14,0.213C8.472,9.871,8.421,9.739,8.4,9.814
		c0.149,0.049-0.046,0.194,0.1,0.287L8.406,10.12c-0.02,0.053,0.128-0.061,0.104,0.036l0.026-0.14
		c0.076,0.021,0.118,0.05,0.145,0.097C8.754,10.058,8.799,9.868,8.97,9.95L8.923,9.958c0.139-0.006,0.085,0.09,0.114,0.112
		l-0.03-0.001l0.117,0.07c-0.089-0.047-0.235,0.067-0.158,0.059c0.166,0.038-0.043-0.034,0.081-0.052
		c0.077-0.007,0.056,0.067,0.053,0.111l0.139-0.006c-0.005,0.065-0.092-0.003-0.036,0.063l0.175-0.07
		c0.034,0.165,0.19-0.08,0.271,0.075c-0.125,0.04,0.012,0.056-0.008,0.109l0.309-0.012c0.029,0.022-0.081,0.051-0.034,0.043
		c0.058,0.045,0.095-0.041,0.126-0.04c0.027,0.045,0.23-0.004,0.223,0.105c0.21,0.071,0.087-0.139,0.283-0.079
		c0.026,0.066-0.155,0.017-0.068,0.085l0.202-0.026c-0.018,0.032-0.039,0.107-0.114,0.094c0.548,0.082,0.845,0.431,1.343,0.338
		c0.071,0.078-0.05,0.053-0.1,0.105c0.361-0.108,0.509,0.169,0.814,0.162l0.006-0.065c0.426,0.205,0.941,0.08,1.42,0.175
		l-0.057-0.046c0.067-0.062,0.174-0.066,0.253-0.094c0.012,0.033-0.06,0.138,0.081,0.113c-0.029-0.023-0.087-0.049-0.069-0.08
		c0.411,0.17,1.279,0.157,1.949,0.267c0.913-0.007,1.886,0.189,2.77,0.241c-0.135-0.007-0.062-0.162,0.037-0.116
		c0.249,0.293,0.486,0.01,0.745,0.23c0.523-0.02,0.943,0.268,1.443,0.154l-0.004,0.077c0.064,0.047,0.092-0.002,0.167,0.003
		l-0.005,0.021c0.168,0.059,0.392,0.02,0.485,0.073l0.023-0.084c0.104,0.011,0.041,0.075,0.156,0.045l-0.011,0.042l0.139-0.055
		c-0.042,0.146,0.284,0.079,0.351,0.164c0.137,0.004,0.402-0.002,0.595,0.073c0.018,0.087,0.265,0.134,0.407,0.219
		c0.301,0.068,0.732,0.168,1.101,0.305l0.023-0.096l0.101,0.023c-0.008,0.02,0.001,0.035-0.017,0.041
		c0.042,0.126,0.233,0.047,0.289,0.139c-0.02-0.102-0.063-0.038-0.116-0.06c-0.064-0.074,0.042-0.136,0.133-0.05l-0.009,0.02
		l0.089-0.022c-0.017,0.076,0.038,0.134,0.021,0.208c0.32,0.098,0.582,0.054,0.896,0.207c-0.063,0.062,0.236,0.078,0.116,0.188
		c0.209,0.034,0.016-0.125,0.142-0.183c0.052,0.026,0.124,0.014,0.112,0.069c-0.039,0.021,0.007,0.103-0.041,0.096l0.13,0.046
		c0.007,0.016-0.028,0.022-0.046,0.025c0.292,0.039,0.413,0.294,0.68,0.32c0.041-0.041-0.085-0.055-0.044-0.096
		c0.28,0.009,0.165,0.174,0.404,0.223l-0.077,0.042c0.089-0.008,0.148-0.048,0.23,0.066c-0.023,0.088-0.126,0.011-0.197,0.018
		c0.072,0.045,0.271,0.131,0.252,0.029c0.104,0.025,0.099,0.112,0.135,0.16c0.012-0.018-0.055-0.098,0.017-0.104
		c0.098,0.112,0.288,0.215,0.433,0.305c-0.013,0.018-0.019,0.052-0.038,0.054C28.398,14.507,28.292,14.657,28.458,14.741z"/>
	<path class="st0" d="M35.003,21.172l-0.021-0.07c-0.017,0.009-0.038,0.017-0.072-0.001L35.003,21.172z"/>
	<path class="st0" d="M33.171,18.339c-0.011-0.002-0.022-0.004-0.036-0.004C33.15,18.346,33.162,18.344,33.171,18.339z"/>
	<path class="st0" d="M32.508,17.83c0.053,0.031,0.036-0.023,0.034-0.06C32.527,17.781,32.512,17.796,32.508,17.83z"/>
	<path class="st0" d="M36.087,22.781c-0.012-0.008-0.025-0.011-0.041-0.001C36.067,22.789,36.079,22.787,36.087,22.781z"/>
	<path class="st0" d="M37.566,27.912c0.003-0.008,0.005-0.013,0.01-0.023C37.57,27.894,37.567,27.901,37.566,27.912z"/>
	<path class="st0" d="M37.655,27.593c-0.002-0.015-0.008-0.033-0.021-0.058C37.633,27.562,37.643,27.58,37.655,27.593z"/>
	<path class="st0" d="M35.474,21.64c-0.012-0.017-0.027-0.031-0.051-0.037C35.439,21.629,35.457,21.637,35.474,21.64z"/>
	<polygon class="st0" points="37.605,27.478 37.603,27.401 37.586,27.403 	"/>
	<path class="st0" d="M37.569,28.007c-0.001-0.03-0.007-0.069-0.003-0.095C37.548,27.953,37.552,27.982,37.569,28.007z"/>
	<path class="st0" d="M36.901,24.579l-0.005-0.007C36.839,24.53,36.868,24.559,36.901,24.579z"/>
	<polygon class="st0" points="37.398,27.187 37.399,27.176 37.37,27.16 	"/>
	<path class="st0" d="M37.585,28.331c-0.004-0.014-0.01-0.026-0.021-0.034c-0.001,0.013-0.002,0.026-0.003,0.043
		C37.571,28.334,37.578,28.332,37.585,28.331z"/>
	<path class="st0" d="M37.091,25.696c0.037,0.012,0.06,0.013,0.076,0.01C37.16,25.682,37.141,25.67,37.091,25.696z"/>
</g>
<g>
	<path class="st0" d="M11.516,3.787c-0.007-0.011-0.016-0.025-0.027-0.044C11.498,3.762,11.507,3.776,11.516,3.787z"/>
	<path class="st0" d="M9.646,4.683l0.006-0.034C9.642,4.66,9.642,4.671,9.646,4.683z"/>
	<path class="st0" d="M12.561,3.136l0.006,0.011c0.016-0.011,0.038-0.025,0.072-0.048L12.561,3.136z"/>
	<path class="st0" d="M5.685,6.717L5.708,6.7C5.697,6.706,5.687,6.706,5.685,6.717z"/>
	<path class="st0" d="M8.07,5.54c0.005,0.023-0.003,0.037-0.01,0.05C8.076,5.584,8.085,5.573,8.07,5.54z"/>
	<path class="st0" d="M13.812,3.564l-0.079-0.033C13.755,3.555,13.788,3.573,13.812,3.564z"/>
	<path class="st0" d="M14.534,2.428l-0.015-0.01C14.522,2.424,14.528,2.427,14.534,2.428z"/>
	<path class="st0" d="M13.959,2.565c-0.003,0.013-0.002,0.031-0.002,0.049C13.966,2.602,13.979,2.588,13.959,2.565z"/>
	<path class="st0" d="M13.958,2.64l-0.001-0.025C13.952,2.623,13.948,2.631,13.958,2.64z"/>
	<path class="st0" d="M13.935,18.899c0.031,0.022,0.087-0.012,0.14-0.037L13.935,18.899z"/>
	<path class="st0" d="M3.729,10.967l-0.039,0.002C3.709,10.976,3.721,10.973,3.729,10.967z"/>
	<path class="st0" d="M14.294,18.342l0.015,0.027C14.307,18.354,14.301,18.346,14.294,18.342z"/>
	<path class="st0" d="M13.409,4.165c0.019,0.081-0.099,0.063-0.052,0.119C13.38,4.248,13.46,4.254,13.409,4.165z"/>
	<path class="st0" d="M6.635,10.04l0.018,0.014C6.646,10.045,6.641,10.041,6.635,10.04z"/>
	<path class="st0" d="M14.294,18.342l-0.018-0.031l-0.01,0.038C14.278,18.342,14.287,18.34,14.294,18.342z"/>
	<polygon class="st0" points="7.059,14.404 7.058,14.403 7.042,14.407 	"/>
	<path class="st0" d="M7.148,14.649l-0.052-0.015C7.11,14.658,7.128,14.658,7.148,14.649z"/>
	<path class="st0" d="M14.075,18.863l0.079-0.021C14.131,18.838,14.103,18.85,14.075,18.863z"/>
	<path class="st0" d="M9.119,16.159l-0.024-0.007C9.103,16.159,9.11,16.161,9.119,16.159z"/>
	<path class="st0" d="M8.236,5.488c0.008,0.003,0.017,0.002,0.025,0.004C8.253,5.477,8.246,5.467,8.236,5.488z"/>
	<polygon class="st0" points="7.869,8.051 7.869,8.051 7.87,8.053 	"/>
	<path class="st0" d="M7.896,7.926c-0.032,0-0.038,0.067-0.027,0.125C7.893,8.037,7.907,8.009,7.896,7.926z"/>
	<path class="st0" d="M7.687,8.118L7.701,8.12C7.694,8.118,7.69,8.117,7.687,8.118z"/>
	<polygon class="st0" points="9.29,7.304 9.285,7.297 9.288,7.303 	"/>
	<path class="st0" d="M8.993,7.503C8.979,7.494,8.966,7.489,8.954,7.488C8.967,7.497,8.98,7.503,8.993,7.503z"/>
	<polygon class="st0" points="7.054,8.758 7.053,8.755 7.052,8.757 	"/>
	<path class="st0" d="M6.625,9.679C6.566,9.692,6.334,9.625,6.44,9.619C6.259,9.554,6.274,9.539,6.253,9.511L6.474,9.61L6.413,9.571
		C6.477,9.604,6.451,9.59,6.532,9.632L6.404,9.563C6.482,9.6,6.468,9.579,6.603,9.667l0.004-0.002
		C6.613,9.668,6.476,9.547,6.52,9.578c0.044,0.043,0.031,0.03,0.084,0.082C6.726,9.762,6.31,9.377,6.53,9.349L6.528,9.382
		c0.004-0.067,0.071-0.1,0.056-0.125c-0.135-0.158,0.025,0.116-0.1,0.051C6.396,9.158,6.508,9.182,6.434,9.073
		c0.08,0.024,0.054-0.076,0.088-0.109c0.126,0.049,0.183-0.078,0.306,0.005c0.004-0.067-0.049-0.235,0.019-0.286
		C6.97,8.765,6.904,8.8,7,8.799L6.958,8.707C7.024,8.684,7.03,8.713,7.053,8.755C7.117,8.72,7.031,8.605,7.142,8.612l0.009,0.11
		c0.037-0.068,0.069-0.068,0.152-0.11c0.029,0.05-0.005,0.067-0.037,0.067c0.122,0.1,0.04-0.101,0.071-0.102
		C7.308,8.544,7.243,8.562,7.217,8.46c0.049-0.009,0.012-0.169,0.104-0.085l0.007,0.109c0.043-0.118-0.021-0.134,0.095-0.16
		c-0.001,0.01,0.015,0.03,0.023,0.049C7.439,8.226,7.581,8.277,7.675,8.23L7.672,8.264c0.019-0.051-0.009-0.14,0.015-0.146
		C7.605,8.1,7.604,8.066,7.548,7.986c0.155,0.101,0.002-0.227,0.165-0.211c0.028,0.05,0.039,0.126-0.024,0.093
		C7.74,8.036,7.812,8.163,7.786,8.271c0.021-0.059,0.058-0.11,0.085-0.042l-0.07-0.143C7.825,8.067,7.85,8.063,7.869,8.051
		c-0.042-0.092-0.137-0.108-0.113-0.2c0.04-0.084,0.12,0.117,0.093,0.05c0.058-0.11-0.051-0.168,0.064-0.177
		c-0.002,0.017-0.005,0.05-0.02,0.042c0.096,0.016,0.14-0.119,0.258,0.033C8.165,7.84,8.192,7.89,8.16,7.891L8.146,7.866
		c0.003,0.16,0.038-0.067,0.106,0.092C8.194,7.874,8.295,7.839,8.344,7.831L8.271,7.739C8.22,7.36,8.384,7.94,8.492,7.822
		c0.042-0.118-0.049-0.008-0.041-0.109C8.519,7.695,8.594,7.771,8.65,7.677c0.047,0.026,0.127,0.05,0.199,0.159
		C8.872,7.76,9.034,7.791,8.996,7.665c-0.144-0.04-0.014,0.17-0.205,0.088L8.753,7.626c0.073-0.037,0.129-0.148,0.201-0.138
		C8.931,7.473,8.91,7.447,8.901,7.42c0.074-0.103,0.035-0.229,0.152-0.256c0.075,0.092,0.007,0.11-0.028,0.144
		c0.111,0.041,0.069-0.035,0.186-0.063C9.27,7.33,9.143,7.281,9.184,7.373l0.09-0.094l0.011,0.018
		C9.21,7.142,9.375,7.259,9.414,7.175C9.569,7.08,9.471,6.87,9.483,6.701c0.048,0.024,0.078,0.057,0.091,0.1
		C9.496,6.76,9.535,6.807,9.545,6.853C9.588,6.805,9.749,6.923,9.756,7c0.057-0.093-0.078-0.058-0.056-0.134l0.12-0.062
		C9.76,6.738,9.71,6.748,9.733,6.654c0.037-0.051,0.07-0.051,0.138-0.086c0.013,0.042,0.092,0.099,0.04,0.125
		c0.049,0.008,0.1-0.019,0.073-0.102c-0.113-0.021,0.075-0.139-0.05-0.219l0.113,0.021c-0.017,0.009,0.013,0.059-0.02,0.061
		c0.091,0.099,0.037-0.07,0.055-0.096c0.039,0.005,0.109-0.027,0.143,0.012c0.002-0.045,0.072-0.057,0.12-0.007
		c0.019-0.044-0.044-0.074-0.058-0.117l0.118-0.064c0.046,0.058,0.168,0.222,0.166,0.256c0.006-0.085-0.103-0.191-0.035-0.228
		c0.041,0.143,0.146,0.036,0.185,0.212c0.095,0.063,0.199-0.011,0.236-0.081c-0.026-0.117-0.099-0.011-0.159-0.11
		c0.141-0.143-0.027-0.414,0.123-0.446l-0.049-0.006c0.038-0.103,0.038-0.085,0.026-0.195c0.06,0.132,0.301,0.264,0.407,0.157
		c-0.031-0.066-0.146-0.068-0.19-0.176l0.069-0.071c0.012,0.005,0.017,0.031,0.017,0.053c0.044-0.088,0.239,0.059,0.165-0.093
		l0.192,0.12l-0.08-0.053c-0.03-0.065,0.037-0.14,0.038-0.175c0.036-0.124,0.101-0.094,0.198-0.052
		c-0.049-0.038-0.162-0.122-0.111-0.186c0.134,0.189,0.184-0.027,0.253,0.072c0.024-0.021,0.112,0.004,0.059-0.076l0.081,0.121
		c-0.113-0.168-0.013-0.229,0.038-0.31c0.146,0.232,0.066-0.075,0.248,0.103c-0.098-0.16,0.084-0.152,0.001-0.288
		c0.05-0.047,0.149,0.095,0.2,0.132l-0.016-0.075c0.081,0.049,0.194-0.016,0.292-0.014l-0.044-0.176l0.066,0.042
		c-0.017-0.041,0.015-0.098-0.052-0.123L12.762,4.5c-0.108-0.144,0.012-0.073,0.024-0.183c0.032,0.011,0.055,0.048,0.057,0.078
		c0.031-0.023,0.075,0.059,0.129,0.093c-0.05-0.019-0.094-0.34-0.225-0.337c-0.052-0.053-0.039-0.133,0.01-0.132l0.119,0.111
		l-0.072-0.161c0.03-0.056,0.115,0.008,0.164-0.008c-0.031,0.039,0.112,0.311,0.208,0.226c-0.038,0.059-0.007,0.15-0.013,0.198
		c0.024-0.012,0.045-0.009,0.056,0.071c0.046-0.103-0.037-0.098,0.027-0.178c0.087,0.115,0.138,0.133,0.238,0.115l-0.118-0.04
		c-0.009-0.016-0.014-0.028-0.015-0.038c-0.029,0.004-0.049-0.009-0.088-0.048c0.017-0.012-0.025-0.211,0.043-0.155
		c-0.221-0.109,0.021-0.244-0.115-0.307c-0.018-0.04,0.029-0.089,0.081-0.039c0.007,0.136,0.154,0.086,0.209,0.171
		c-0.003-0.051-0.12-0.04-0.123-0.108c0.032-0.039,0.117,0.006,0.168,0.023l0.002,0.034l0.101,0
		c-0.038-0.063-0.137-0.046-0.107-0.119c0.034,0.011,0.063-0.062,0.1-0.017c0.04,0.096,0.145,0.18,0.114,0.237
		c0.032-0.04,0.144-0.154,0.005-0.215l0.049-0.034C13.72,3.717,13.568,3.7,13.646,3.61l0.018,0.022l-0.009-0.134l0.077,0.033
		c-0.025-0.027-0.038-0.06-0.013-0.078c0.035,0.028,0.069,0.022,0.105,0.067c0.063-0.063,0.006-0.116-0.014-0.154
		c0.029-0.042,0.063-0.033,0.103,0.047c0.062-0.034,0.134-0.131,0.22-0.108c0.021-0.112-0.034-0.009-0.063-0.118
		c0.229,0.129,0.283-0.142,0.367-0.269c-0.184-0.128,0.011-0.046-0.111-0.208c0.026,0.072,0.222,0.021,0.172,0.157l0.041-0.072
		c0.125,0.046-0.03,0.157,0.146,0.216c0.06-0.069-0.071-0.28,0.063-0.297c0.087,0.134,0.021-0.093,0.126,0.045
		c0.025,0.054-0.009,0.063-0.021,0.093l0.036,0.008c0.174-0.109-0.092-0.168-0.096-0.315c0.07-0.097,0.156,0.018,0.215,0.063
		c0.035,0.008,0.061-0.052,0.054-0.102c0.017,0.117-0.168,0.028-0.216-0.063c0.167,0.084,0.137-0.115,0.107-0.185
		c-0.258-0.009-0.09,0.077-0.35,0.049c0.025,0.054,0.144,0.162,0.028,0.183c-0.015-0.096-0.067-0.059-0.098-0.064
		c0.08,0.051-0.019,0.072-0.012,0.119C14.449,2.513,14.409,2.36,14.315,2.4l0.142,0.164c-0.05,0.004-0.102-0.122-0.122-0.03
		c-0.05-0.109-0.134-0.114-0.083-0.213c-0.222-0.041-0.067,0.206-0.083,0.332c-0.002-0.017-0.021-0.038-0.025-0.055
		c0.025,0.055-0.005,0.08-0.017,0.11c-0.081,0.011-0.031-0.106-0.085-0.137l-0.071,0.078c-0.006-0.004-0.009-0.006-0.013-0.009
		c0.001,0.041-0.004,0.073-0.048,0.042c-0.026-0.072-0.067-0.132-0.092-0.188l0.026,0.186c-0.041-0.06-0.149-0.026-0.13-0.118
		l-0.095,0.135L13.509,2.6c-0.01,0.046,0.009,0.068,0.054,0.048c-0.062,0.014-0.001,0.36-0.175,0.127
		c-0.007,0.179-0.076,0.172-0.146,0.325c0.002-0.176-0.217-0.042-0.162-0.168c-0.098-0.001-0.005,0.127-0.034,0.182
		c-0.083-0.013-0.158-0.136-0.148-0.213l-0.009,0.094l-0.018-0.022l0.008,0.1c-0.099-0.019-0.106-0.103-0.168-0.076l0.073,0.107
		l-0.083-0.03c0.051,0.035,0.039,0.079,0.009,0.117l-0.018-0.022l-0.028,0.055c-0.007-0.096-0.058,0.012-0.097-0.076
		c-0.042,0.026-0.042,0.028-0.094,0.102l0.068,0.058c-0.04,0.133-0.087-0.098-0.164-0.044l0.069,0.075
		c-0.211-0.047-0.114,0.22-0.26,0.198c0.029-0.055-0.056-0.138-0.039-0.114c-0.042,0.083-0.165,0.15-0.158,0.303
		c-0.115-0.096-0.148-0.126-0.262-0.126c-0.048,0.045-0.047,0.063-0.013,0.143c-0.086-0.008-0.132,0.13-0.199,0.046
		c0.039,0.077-0.057,0.02-0.042,0.098l-0.032-0.031l0.065,0.078c-0.228-0.116-0.08,0.216-0.29,0.124V4.022l-0.016,0.061
		c-0.032-0.031-0.032-0.065-0.065-0.113l-0.191,0.115l0.08,0.037c-0.032,0.036,0,0.134-0.081,0.115
		c-0.016-0.176-0.063,0.039-0.143-0.048l0.015-0.061c-0.047,0.046-0.047,0.046,0.016,0.126c-0.048,0.079-0.159-0.125-0.159,0.011
		l0.047-0.029c0.048,0.039,0.063,0.131,0.031,0.15c-0.016-0.008-0.063-0.029-0.047-0.056c-0.032,0.071-0.143,0.086-0.144,0.137
		c-0.047-0.005-0.079-0.072-0.079-0.105c-0.067,0.154-0.064,0.02-0.134,0.172l-0.031-0.049l-0.002,0.084l-0.128-0.063l0.063,0.048
		c-0.034,0.034-0.036,0.084-0.1,0.087l-0.029-0.083C10.038,4.67,9.915,4.523,9.876,4.692C9.86,4.684,9.861,4.65,9.862,4.634
		C9.839,4.81,9.704,4.555,9.696,4.756c-0.01-0.028-0.04-0.051-0.05-0.074L9.632,4.758L9.572,4.66l0.057,0.166L9.537,4.744
		L9.55,4.802C9.38,4.648,9.404,4.832,9.249,4.735L9.34,4.851C9.339,5.213,8.873,4.956,8.742,5.199l-0.058-0.1L8.672,5.266
		C8.579,5.217,8.647,5.166,8.601,5.125c-0.056,0.109,0.054,0.167-0.034,0.26C8.472,5.352,8.541,5.301,8.544,5.251
		C8.477,5.36,8.365,5.504,8.261,5.492C8.268,5.506,8.274,5.526,8.281,5.53C8.243,5.615,8.129,5.624,8.061,5.675
		c-0.026-0.046-0.013-0.064,0-0.085C8.03,5.6,7.976,5.591,7.982,5.65L7.957,5.549C7.891,5.566,7.832,5.71,7.758,5.618
		c0.03,0.034,0.073,0.109,0.022,0.135c-0.12-0.134-0.091,0.144-0.219,0.111c-0.012-0.042,0.04-0.084,0.022-0.076
		C7.521,5.771,7.529,5.863,7.523,5.931L7.497,5.864L7.366,6.059c-0.12-0.134-0.158,0.127-0.213,0.01
		C7.084,6.103,7.248,6.102,7.176,6.169c-0.061-0.05-0.055,0.076-0.112-0.024l0.002-0.017L7.013,6.17L6.99,6.052
		C6.954,6.103,6.977,6.222,7.019,6.297C6.939,6.271,6.9,6.356,6.825,6.281l0.003-0.034C6.719,6.366,6.446,6.115,6.444,6.342
		C6.428,6.333,6.414,6.309,6.431,6.3L6.345,6.343L6.32,6.259L6.254,6.453l-0.028-0.05C6.125,6.436,6.001,6.549,5.895,6.636
		l0.003-0.034C5.819,6.757,5.747,6.632,5.688,6.744C5.683,6.729,5.683,6.722,5.685,6.717L5.604,6.771L5.592,6.711
		C5.597,6.855,5.33,6.684,5.424,6.75c-0.006,0.068-0.03,0.162-0.002,0.229C5.334,7.04,5.36,6.929,5.278,6.923
		C5.209,6.958,5.251,7.05,5.135,7.062l-0.029-0.05C5.068,7.047,5.068,7.096,5.01,7.143C5.014,7.14,5.015,7.107,5.015,7.107
		C4.944,7.297,4.713,7.1,4.746,7.378c-0.097,0.007-0.2,0.117-0.275,0.027C4.324,7.6,4.203,7.729,4.053,7.89
		C3.856,7.796,4.024,7.925,3.81,7.943l0.102,0.052C3.669,8.181,3.085,8.287,2.81,8.531L2.678,8.5L2.75,8.584
		C2.548,8.703,2.327,8.833,2.12,8.954c-0.087,0.026-0.025,0.077,0,0.12c0.03,0.044,0.059,0.088,0.086,0.129
		c0.06,0.085,0.114,0.162,0.161,0.229c0.137,0.095,0.386,0.225,0.44,0.358L2.778,9.776c0.249,0.235,0.47,0.463,0.599,0.729
		c-0.058-0.004-0.069,0.029-0.122,0.008c0.167,0.029,0.128,0.145,0.171,0.202l0.025-0.087c0.156,0.039,0.144,0.167,0.103,0.233
		l0.197,0.068c-0.003,0.011-0.009,0.029-0.022,0.038l0.066-0.003l-0.074,0.118c0.049,0.016,0.205,0.151,0.351,0.127
		c-0.03,0.033,0.026,0.155-0.061,0.088l0.307,0.431l-0.017-0.094c0.075-0.069,0.22,0.004,0.206,0.056
		c-0.103,0.008-0.11,0.094-0.147,0.165c0.069-0.005,0.042-0.088,0.098-0.109c0.086-0.006,0.187,0.053,0.172,0.105l-0.051,0.004
		c0.076,0.028-0.031,0.174,0.023,0.222c0.103-0.009,0.08,0.079,0.197-0.052c0.089,0.04-0.062,0.107-0.053,0.14
		c0.09-0.028,0.141,0.099,0.088,0.172c0.22-0.144,0.107,0.237,0.274,0.099l-0.034,0.138c0.043-0.039,0.146-0.12,0.205-0.094
		c-0.004,0.084-0.085,0.146-0.115,0.2l0.179-0.125c0.07,0.391,0.479,0.593,0.608,0.974c0.148,0.074,0.364,0.136,0.48,0.284
		l-0.034,0.006l0.097,0.167l-0.032-0.163c0.047,0.009,0.098,0,0.125,0.028c0.088,0.202,0.215,0.465,0.471,0.552
		c0.284-0.077-0.066,0.236,0.167,0.205c-0.025,0.008-0.052,0.031-0.077,0.042c0.176,0.052,0.274,0.077,0.497,0.074
		c-0.175,0.173,0.086,0.065-0.01,0.153l0.076-0.067c-0.012,0.07,0.041,0.143-0.016,0.188l0.137-0.047l-0.062,0.082
		c0.069,0.069,0.283,0.139,0.188,0.33c0.284,0.038,0.544,0.317,0.751,0.543c0.085-0.038,0.157,0.014,0.215,0.051l-0.018,0.14
		c0.079,0.014,0.234-0.06,0.237,0.041c-0.009,0.011-0.017,0.017-0.025,0.02c0.072,0.024,0.086,0.116,0.208,0.069
		c0.058,0.053,0.078,0.15-0.011,0.225c0.131-0.154,0.114,0.125,0.114,0.125s0.189,0.175,0.476,0.442
		c0.289,0.269,0.708,0.609,1.19,0.924c0.923,0.664,2.156,1.183,2.839,0.956c0.077-0.07,0.187-0.08,0.213-0.203
		c0.078,0.003,0.022,0.175,0.082,0.094c-0.05-0.107,0.148-0.212,0.127-0.369l0.062,0.008c0.044-0.056-0.107,0.03-0.033-0.076
		l-0.104,0.156c-0.028-0.049-0.032-0.097-0.016-0.161c-0.074,0.041-0.221,0.248-0.261,0.096l0.031,0.005
		c-0.079-0.039,0.013-0.133,0.012-0.169l0.016,0.011l-0.017-0.12c0.017,0.083,0.17-0.002,0.123-0.017
		c-0.063-0.098,0.001,0.053-0.077,0.034c-0.046-0.017,0.015-0.096,0.045-0.146l-0.078-0.038c0.046-0.074,0.047,0.033,0.061-0.063
		l-0.139,0.024c0.092-0.2-0.155,0.031-0.094-0.173c0.093-0.005,0.031-0.067,0.078-0.123l-0.169-0.086
		c0-0.035,0.077-0.032,0.047-0.038c0-0.07-0.078,0.016-0.093,0.004c0.017-0.06-0.123-0.07-0.043-0.192
		c-0.059-0.149-0.142,0.13-0.202-0.002c0.033-0.083,0.092,0.03,0.095-0.074l-0.124-0.036c0.032-0.031,0.096-0.109,0.126-0.07
		c-0.228-0.269-0.125-0.747-0.435-0.825c0.023-0.112,0.063-0.041,0.126-0.082c-0.256-0.008-0.124-0.366-0.281-0.46l-0.052,0.07
		c-0.059-0.368-0.403-0.411-0.576-0.667l-0.007,0.069c-0.082,0.045-0.14,0.016-0.202,0.02c0.02-0.04,0.137-0.13,0.047-0.149
		c-0.004,0.035,0.006,0.081-0.027,0.109c-0.073-0.322-0.518-0.609-0.778-0.943c-0.484-0.281-0.85-0.787-1.295-1.104
		c0.068,0.048-0.096,0.19-0.113,0.111c0.102-0.388-0.268-0.146-0.242-0.447c-0.318-0.119-0.334-0.531-0.732-0.526l0.063-0.08
		c-0.001-0.065-0.057-0.02-0.098-0.043l0.02-0.021c-0.055-0.103-0.222-0.114-0.236-0.193L8.707,12.1
		c-0.055-0.037,0.035-0.089-0.059-0.085l0.04-0.041l-0.131,0.028c0.142-0.145-0.125-0.136-0.101-0.238
		c-0.087-0.03-0.264-0.074-0.331-0.19c0.053-0.092-0.063-0.197-0.1-0.302c-0.159-0.113-0.374-0.286-0.522-0.484l-0.089,0.097
		l-0.051-0.039c0.021-0.02,0.025-0.037,0.042-0.04c0.07-0.141-0.137-0.072-0.108-0.173c-0.061,0.106,0.019,0.044,0.042,0.072
		c-0.007,0.082-0.132,0.136-0.137,0.04l0.021-0.02l-0.083,0.015c0.069-0.076,0.071-0.141,0.139-0.216
		c-0.166-0.131-0.394-0.109-0.513-0.297c0.095-0.062-0.127-0.091,0.046-0.197c-0.138-0.042-0.103,0.126-0.243,0.179
		c-0.021-0.029-0.086-0.02-0.037-0.074c0.046-0.021,0.069-0.104,0.102-0.095L6.567,9.987c0.006-0.017,0.039-0.021,0.054-0.023
		C6.527,9.944,6.484,9.848,6.48,9.795c0.018-0.028,0.043-0.049-0.011-0.022C6.408,9.813,6.458,9.791,6.397,9.831
		C6.253,9.888,6.496,9.748,6.391,9.785l0.095-0.042c-0.066,0.029-0.152,0.06-0.082,0.02c0.111-0.041,0.098-0.036,0.151-0.056
		c0.004-0.002-0.03,0.005-0.136,0.045C6.375,9.759,6.48,9.721,6.514,9.71c-0.03,0.009-0.08,0.025-0.139,0.043
		c0.062-0.029,0.052-0.038,0.058-0.049C6.467,9.7,6.518,9.693,6.536,9.691C6.35,9.707,6.664,9.673,6.625,9.679z"/>
	<path class="st0" d="M9.338,7.294L9.29,7.304c0.014,0.021,0.027,0.048,0.024,0.083L9.338,7.294z"/>
	<path class="st0" d="M7.446,8.373c0,0.011,0,0.021,0.003,0.036C7.456,8.398,7.452,8.385,7.446,8.373z"/>
	<path class="st0" d="M7.112,8.823c0.018-0.041-0.026-0.05-0.058-0.065C7.066,8.778,7.082,8.802,7.112,8.823z"/>
	<path class="st0" d="M10.225,6.369c0,0.014,0.003,0.03,0.018,0.049C10.24,6.394,10.234,6.38,10.225,6.369z"/>
	<path class="st0" d="M13.107,4.413C13.1,4.411,13.095,4.41,13.085,4.408C13.092,4.413,13.1,4.414,13.107,4.413z"/>
	<path class="st0" d="M12.843,4.395c-0.008,0.005-0.015,0.017-0.021,0.038C12.84,4.427,12.843,4.412,12.843,4.395z"/>
	<path class="st0" d="M9.545,6.853c-0.009,0.01-0.015,0.024-0.011,0.05C9.549,6.89,9.549,6.871,9.545,6.853z"/>
	<polygon class="st0" points="12.807,4.479 12.762,4.5 12.775,4.519 	"/>
	<path class="st0" d="M13.164,4.384c-0.017,0.009-0.037,0.026-0.057,0.029C13.146,4.422,13.161,4.41,13.164,4.384z"/>
	<path class="st0" d="M11.199,5.547l-0.002,0.005C11.193,5.614,11.201,5.584,11.199,5.547z"/>
	<polygon class="st0" points="12.764,4.774 12.756,4.774 12.764,4.808 	"/>
	<path class="st0" d="M13.356,4.283c-0.005,0.008-0.009,0.017-0.005,0.032l0.03-0.008C13.371,4.297,13.363,4.29,13.356,4.283z"/>
	<path class="st0" d="M11.893,5.269c-0.014-0.043-0.027-0.07-0.04-0.088C11.841,5.191,11.844,5.213,11.893,5.269z"/>
</g>
<g>
	<path class="st1" d="M27.326,34.178c-0.593,0.921-1.14,1.95-1.641,3.09c-0.72,1.622-1.08,2.835-1.08,3.637
		c0,0.228,0.048,0.401,0.144,0.52s0.239,0.178,0.431,0.178c0.456,0,1.007-0.429,1.654-1.285c0.41-0.528,0.774-1.058,1.094-1.586
		c0.173-0.301,0.36-0.451,0.561-0.451c0.118,0,0.219,0.041,0.301,0.123c0.073,0.082,0.109,0.164,0.109,0.246
		c0,0.337-0.442,1.089-1.326,2.256c-1.058,1.403-2.023,2.105-2.898,2.105c-0.465,0-0.853-0.214-1.162-0.643
		c-0.191-0.273-0.287-0.661-0.287-1.162c0-1.103,0.319-2.388,0.957-3.855c0.155-0.364,0.583-1.244,1.285-2.639
		c-0.246,0.063-0.433,0.096-0.561,0.096c-0.191,0-0.36-0.046-0.506-0.137c-0.2-0.128-0.301-0.287-0.301-0.479
		c0-0.228,0.132-0.41,0.396-0.547c0.073-0.036,0.41-0.096,1.012-0.178c0.219-0.036,0.538-0.123,0.957-0.26
		c0.319-0.574,0.839-1.354,1.559-2.338c0.401-0.547,0.679-0.902,0.834-1.066c0.219-0.228,0.41-0.342,0.574-0.342
		c0.118,0,0.237,0.063,0.355,0.191c0.109,0.118,0.164,0.237,0.164,0.355c0,0.237-0.255,0.706-0.766,1.408
		c-0.337,0.456-0.588,0.825-0.752,1.107c1.012-0.273,1.736-0.41,2.174-0.41c0.501,0,0.752,0.21,0.752,0.629
		c0,0.21-0.087,0.364-0.26,0.465c-0.091,0.055-0.328,0.101-0.711,0.137c-0.155-0.009-0.843,0.164-2.064,0.52
		C27.987,33.964,27.654,34.069,27.326,34.178z"/>
	<path class="st1" d="M33.624,34.165c0.747,0,1.121,0.456,1.121,1.367c0,1.212-0.561,2.748-1.682,4.607
		c-1.222,2.015-2.401,3.021-3.541,3.021c-0.528,0-0.916-0.246-1.162-0.738c-0.128-0.246-0.191-0.542-0.191-0.889
		c0-1.167,0.401-2.434,1.203-3.801c0.747-1.267,1.627-2.251,2.639-2.953C32.603,34.37,33.14,34.165,33.624,34.165z M32.202,39.333
		c-0.228-0.183-0.342-0.323-0.342-0.424c0-0.073,0.146-0.273,0.438-0.602c0.82-0.921,1.23-1.663,1.23-2.229
		c0-0.073-0.022-0.146-0.068-0.219c-0.073-0.137-0.187-0.205-0.342-0.205c-0.292,0-0.72,0.282-1.285,0.848
		c-0.729,0.729-1.285,1.481-1.668,2.256c-0.446,0.884-0.67,1.618-0.67,2.201c0,0.155,0.041,0.292,0.123,0.41
		c0.118,0.164,0.269,0.246,0.451,0.246c0.438,0,0.907-0.328,1.408-0.984c0.219-0.273,0.396-0.556,0.533-0.848
		S32.21,39.341,32.202,39.333z"/>
	<path class="st1" d="M45.22,34.178c-0.593,0.921-1.14,1.95-1.641,3.09c-0.72,1.622-1.08,2.835-1.08,3.637
		c0,0.228,0.048,0.401,0.144,0.52s0.239,0.178,0.431,0.178c0.456,0,1.007-0.429,1.654-1.285c0.41-0.528,0.774-1.058,1.094-1.586
		c0.173-0.301,0.36-0.451,0.561-0.451c0.118,0,0.219,0.041,0.301,0.123c0.073,0.082,0.109,0.164,0.109,0.246
		c0,0.337-0.442,1.089-1.326,2.256c-1.058,1.403-2.023,2.105-2.898,2.105c-0.465,0-0.853-0.214-1.162-0.643
		c-0.191-0.273-0.287-0.661-0.287-1.162c0-1.103,0.319-2.388,0.957-3.855c0.155-0.364,0.583-1.244,1.285-2.639
		c-0.246,0.063-0.433,0.096-0.561,0.096c-0.191,0-0.36-0.046-0.506-0.137c-0.2-0.128-0.301-0.287-0.301-0.479
		c0-0.228,0.132-0.41,0.396-0.547c0.073-0.036,0.41-0.096,1.012-0.178c0.219-0.036,0.538-0.123,0.957-0.26
		c0.319-0.574,0.839-1.354,1.559-2.338c0.401-0.547,0.679-0.902,0.834-1.066c0.219-0.228,0.41-0.342,0.574-0.342
		c0.118,0,0.237,0.063,0.355,0.191c0.109,0.118,0.164,0.237,0.164,0.355c0,0.237-0.255,0.706-0.766,1.408
		c-0.337,0.456-0.588,0.825-0.752,1.107c1.012-0.273,1.736-0.41,2.174-0.41c0.501,0,0.752,0.21,0.752,0.629
		c0,0.21-0.087,0.364-0.26,0.465c-0.091,0.055-0.328,0.101-0.711,0.137c-0.155-0.009-0.843,0.164-2.064,0.52
		C45.881,33.964,45.548,34.069,45.22,34.178z"/>
	<path class="st1" d="M51.517,34.165c0.747,0,1.121,0.456,1.121,1.367c0,1.212-0.561,2.748-1.682,4.607
		c-1.222,2.015-2.401,3.021-3.541,3.021c-0.528,0-0.916-0.246-1.162-0.738c-0.128-0.246-0.191-0.542-0.191-0.889
		c0-1.167,0.401-2.434,1.203-3.801c0.747-1.267,1.627-2.251,2.639-2.953C50.497,34.37,51.034,34.165,51.517,34.165z M50.095,39.333
		c-0.228-0.183-0.342-0.323-0.342-0.424c0-0.073,0.146-0.273,0.438-0.602c0.82-0.921,1.23-1.663,1.23-2.229
		c0-0.073-0.022-0.146-0.068-0.219c-0.073-0.137-0.187-0.205-0.342-0.205c-0.292,0-0.72,0.282-1.285,0.848
		c-0.729,0.729-1.285,1.481-1.668,2.256c-0.446,0.884-0.67,1.618-0.67,2.201c0,0.155,0.041,0.292,0.123,0.41
		c0.118,0.164,0.269,0.246,0.451,0.246c0.438,0,0.907-0.328,1.408-0.984c0.219-0.273,0.396-0.556,0.533-0.848
		S50.104,39.341,50.095,39.333z"/>
	<path class="st1" d="M55.86,35.723c0.374-0.237,0.651-0.401,0.834-0.492c0.374-0.183,0.738-0.273,1.094-0.273
		c0.401,0,0.702,0.116,0.902,0.349s0.301,0.581,0.301,1.046c0,0.638-0.224,1.403-0.67,2.297c-0.692,1.413-1.531,2.524-2.516,3.336
		c-0.829,0.684-1.608,1.025-2.338,1.025c-0.401,0-0.798-0.155-1.189-0.465c-1.249,2.524-2.365,5.1-3.35,7.725
		c-0.21,0.629-0.456,0.943-0.738,0.943c-0.137,0-0.273-0.091-0.41-0.273c-0.101-0.128-0.15-0.269-0.15-0.424
		c0-0.492,0.602-2.092,1.805-4.799c1.859-4.175,3.623-7.643,5.291-10.404c0.347-0.583,0.579-0.984,0.697-1.203
		c0.319-0.593,0.629-0.889,0.93-0.889c0.31,0,0.465,0.187,0.465,0.561c0,0.21-0.109,0.492-0.328,0.848
		C56.224,35.085,56.015,35.45,55.86,35.723z M52.784,41.397c0.2,0.21,0.451,0.314,0.752,0.314c0.848,0,1.786-0.752,2.816-2.256
		c0.383-0.556,0.688-1.126,0.916-1.709c0.183-0.465,0.273-0.815,0.273-1.053c0-0.164-0.039-0.287-0.116-0.369
		s-0.198-0.123-0.362-0.123c-0.429,0-0.952,0.296-1.572,0.889c-0.593,0.574-1.162,1.381-1.709,2.42
		C53.281,40.467,52.948,41.096,52.784,41.397z"/>
</g>
</svg>
