<?xml version="1.0" encoding="utf-8"?>
<!-- Generator: Adobe Illustrator 16.0.0, SVG Export Plug-In . SVG Version: 6.00 Build 0)  -->
<!DOCTYPE svg PUBLIC "-//W3C//DTD SVG 1.1//EN" "http://www.w3.org/Graphics/SVG/1.1/DTD/svg11.dtd">
<svg version="1.1" id="Layer_1" xmlns="http://www.w3.org/2000/svg" xmlns:xlink="http://www.w3.org/1999/xlink" x="0px" y="0px"
	 width="27px" height="27px" viewBox="1.1 0.65 27 27" enable-background="new 1.1 0.65 27 27" xml:space="preserve">
<path fill="#414042" d="M14.6,1.65c-6.9,0-12.5,5.6-12.5,12.5s5.6,12.5,12.5,12.5c6.901,0,12.5-5.6,12.5-12.5S21.5,1.65,14.6,1.65z
	 M20.901,11.65c0,0.1,0,0.301,0,0.4c0,4.199-3.201,9-9.001,9c-1.8,0-3.4-0.5-4.8-1.4c0.2,0,0.5,0,0.8,0c1.5,0,2.8-0.5,3.9-1.3
	c-1.4,0-2.5-0.899-2.9-2.2c0.2,0,0.4,0.1,0.6,0.1c0.3,0,0.6,0,0.8-0.1c-1.4-0.3-2.5-1.6-2.5-3.1l0,0c0.4,0.199,0.9,0.4,1.4,0.4
	c-0.8-0.601-1.4-1.5-1.4-2.601C7.8,10.25,8,9.75,8.2,9.25c1.6,1.9,3.9,3.201,6.5,3.301c-0.1-0.2-0.1-0.5-0.1-0.7
	c0-1.7,1.401-3.101,3.1-3.101c0.9,0,1.701,0.4,2.301,1c0.699-0.1,1.4-0.399,2-0.799c-0.201,0.699-0.701,1.399-1.4,1.699
	c0.6-0.1,1.199-0.199,1.801-0.5C22.1,10.65,21.5,11.15,20.901,11.65z"/>
</svg>
