<?xml version="1.0" encoding="utf-8"?>
<!-- Generator: Adobe Illustrator 16.0.0, SVG Export Plug-In . SVG Version: 6.00 Build 0)  -->
<!DOCTYPE svg PUBLIC "-//W3C//DTD SVG 1.1//EN" "http://www.w3.org/Graphics/SVG/1.1/DTD/svg11.dtd">
<svg version="1.1" id="Layer_1" xmlns="http://www.w3.org/2000/svg" xmlns:xlink="http://www.w3.org/1999/xlink" x="0px" y="0px"
	 width="99px" height="99px" viewBox="0 0 99 99" enable-background="new 0 0 99 99" xml:space="preserve">
<g>
	<polygon fill="#404041" points="45.6,55 43.5,47.7 41.4,55 	"/>
	<path fill="#404041" d="M61.5,50.1h-0.1c0,0.101,0,0.2,0,0.301c0,0.1,0,0.199,0,0.3c0,0.1,0,0.2-0.101,0.3l-1.1,4h2.5L61.6,51
		c0-0.1,0-0.2-0.1-0.3c-0.1-0.101,0-0.2,0-0.3C61.5,50.3,61.5,50.2,61.5,50.1z"/>
	<path fill="#404041" d="M26.1,54.9h7.6l-2-7.3h2.2L35,52c0,0.1,0,0.2,0.1,0.3c0,0.101,0,0.2,0,0.3c0,0.101,0,0.2,0,0.301h0.1
		c0-0.101,0-0.2,0-0.301c0-0.1,0-0.199,0-0.3c0-0.1,0-0.2,0.1-0.3l1-4.4h2.2l1.2,4.5c0,0.101,0,0.2,0.1,0.301c0,0.1,0,0.199,0,0.3
		c0,0.1,0,0.2,0,0.3h0.1c0-0.1,0-0.2,0-0.3c0-0.101,0-0.2,0-0.3c0-0.101,0-0.2,0.1-0.301l1.1-4.399h2.4h2.4L47,52.1
		c0,0.101,0,0.2,0.1,0.301c0.1,0.1,0,0.199,0,0.3c0,0.1,0,0.2,0,0.3h0.1c0-0.1,0-0.2,0-0.3c0-0.101,0-0.2,0-0.3
		c0-0.101,0-0.2,0.1-0.301l1-4.399h2.2l1,4.399c0,0.101,0,0.2,0.1,0.301c0,0.1,0,0.199,0,0.3c0,0.1,0,0.2,0,0.3H51.7
		c0-0.1,0-0.2,0-0.3c0-0.101,0-0.2,0-0.3c0-0.101,0-0.2,0.1-0.301L52.9,47.7H55.3L53.4,55H57.6l-2.1-7.3h2.4L59,52.1
		c0,0.101,0,0.2,0.1,0.301c0.101,0.1,0,0.199,0,0.3c0,0.1,0,0.2,0,0.3H59.2c0-0.1,0-0.2,0-0.3c0-0.101,0-0.2,0-0.3
		c0-0.101,0-0.2,0.1-0.301l1-4.399h2.2l1,4.399c0,0.101,0,0.2,0.1,0.301c0.101,0.1,0,0.199,0,0.3c0,0.1,0,0.2,0,0.3H63.7
		c0-0.1,0-0.2,0-0.3c0-0.101,0-0.2,0-0.3c0-0.101,0-0.2,0.1-0.301L64.9,47.7H67.1l-2,7.3h7.5c0.801,0,1.4-0.6,1.4-1.4V31.7
		c0-0.8-0.6-1.4-1.4-1.4H26.1c-0.8,0-1.4,0.6-1.4,1.4v21.8C24.7,54.3,25.3,54.9,26.1,54.9z"/>
	<path fill="#404041" d="M37.6,50.1h-0.1c0,0.101,0,0.2,0,0.301c0,0.1,0,0.199,0,0.3c0,0.1,0,0.2-0.1,0.3l-1.1,4h2.5l-1.1-4
		c0-0.1,0-0.2-0.1-0.3c0-0.101,0-0.2,0-0.3C37.6,50.3,37.6,50.2,37.6,50.1z"/>
	<path fill="#404041" d="M76.6,29c0.2,0.3,0.2,0.6,0.2,1v31.2c0,1.1-0.899,2.1-2.1,2.1H24.2c-0.7,0-1.4-0.399-1.8-1L44,98.7
		c1.8,0.2,3.6,0.3,5.5,0.3C72,99,91,84,96.9,63.4L76.6,29z M43.7,64.6h11.6l1.4,4.601H42.3L43.7,64.6z M60.7,71.6H38.2
		c-0.3,0-0.6-0.3-0.7-0.699c0-0.301,0.3-0.601,0.7-0.601h22.5c0.399,0,0.7,0.2,0.7,0.601C61.4,71.3,61.1,71.6,60.7,71.6z"/>
	<path fill="#404041" d="M49.5,50.1h-0.1c0,0.101,0,0.2,0,0.301c0,0.1,0,0.199,0,0.3c0,0.1,0,0.2-0.1,0.3l-1.1,4h2.5l-1.1-4
		c0-0.1,0-0.2-0.1-0.3c-0.1-0.101,0-0.2,0-0.3C49.5,50.3,49.5,50.2,49.5,50.1z"/>
</g>
</svg>
