<?xml version="1.0" encoding="utf-8"?>
<!-- Generator: Adobe Illustrator 16.0.0, SVG Export Plug-In . SVG Version: 6.00 Build 0)  -->
<!DOCTYPE svg PUBLIC "-//W3C//DTD SVG 1.1//EN" "http://www.w3.org/Graphics/SVG/1.1/DTD/svg11.dtd">
<svg version="1.1" id="Layer_1" xmlns="http://www.w3.org/2000/svg" xmlns:xlink="http://www.w3.org/1999/xlink" x="0px" y="0px"
	 width="99px" height="99px" viewBox="0 0 99 99" style="enable-background:new 0 0 99 99;" xml:space="preserve">
<style type="text/css">
<![CDATA[
	.st0{fill-rule:evenodd;clip-rule:evenodd;fill:#404041;}
	.st1{fill-rule:evenodd;clip-rule:evenodd;fill:#FFCB05;}
]]>
</style>
<path class="st0" d="M55.3,64.6l1.4,4.6H42.3l1.4-4.6H55.3z M62.7,55l-1.1-4c0-0.1,0-0.2-0.1-0.3s0-0.2,0-0.3c0-0.1,0-0.2,0-0.3
	h-0.1c0,0.1,0,0.2,0,0.3c0,0.1,0,0.2,0,0.3s0,0.2-0.1,0.3l-1.1,4H62.7z M50.7,55l-1.1-4c0-0.1,0-0.2-0.1-0.3s0-0.2,0-0.3
	c0-0.1,0-0.2,0-0.3h-0.1c0,0.1,0,0.2,0,0.3c0,0.1,0,0.2,0,0.3s0,0.2-0.1,0.3l-1.1,4H50.7z M38.8,55l-1.1-4c0-0.1,0-0.2-0.1-0.3
	c0-0.1,0-0.2,0-0.3c0-0.1,0-0.2,0-0.3h-0.1c0,0.1,0,0.2,0,0.3c0,0.1,0,0.2,0,0.3s0,0.2-0.1,0.3l-1.1,4H38.8z M39.7,52.1
	c0,0.1,0,0.2,0.1,0.3c0,0.1,0,0.2,0,0.3c0,0.1,0,0.2,0,0.3h0.1c0-0.1,0-0.2,0-0.3c0-0.1,0-0.2,0-0.3c0-0.1,0-0.2,0.1-0.3l1.1-4.4
	h2.4L41.4,55h4.2l-2.1-7.3h2.4l1.1,4.4c0,0.1,0,0.2,0.1,0.3s0,0.2,0,0.3c0,0.1,0,0.2,0,0.3h0.1c0-0.1,0-0.2,0-0.3c0-0.1,0-0.2,0-0.3
	c0-0.1,0-0.2,0.1-0.3l1-4.4h2.2l1,4.4c0,0.1,0,0.2,0.1,0.3c0,0.1,0,0.2,0,0.3c0,0.1,0,0.2,0,0.3h0.1c0-0.1,0-0.2,0-0.3
	c0-0.1,0-0.2,0-0.3c0-0.1,0-0.2,0.1-0.3l1.1-4.4h2.4L53.4,55h4.2l-2.1-7.3h2.4l1.1,4.4c0,0.1,0,0.2,0.1,0.3s0,0.2,0,0.3
	c0,0.1,0,0.2,0,0.3h0.1c0-0.1,0-0.2,0-0.3c0-0.1,0-0.2,0-0.3s0-0.2,0.1-0.3l1-4.4h2.2l1,4.4c0,0.1,0,0.2,0.1,0.3s0,0.2,0,0.3
	c0,0.1,0,0.2,0,0.3h0.1c0-0.1,0-0.2,0-0.3c0-0.1,0-0.2,0-0.3s0-0.2,0.1-0.3l1.1-4.4h2.2l-2,7.3h7.5c0.8,0,1.4-0.6,1.4-1.4V31.7
	c0-0.8-0.6-1.4-1.4-1.4H26.1c-0.8,0-1.4,0.6-1.4,1.4v21.8c0,0.8,0.6,1.4,1.4,1.4h7.6l-2-7.3h2.2l1.1,4.4c0,0.1,0,0.2,0.1,0.3
	c0,0.1,0,0.2,0,0.3c0,0.1,0,0.2,0,0.3h0.1c0-0.1,0-0.2,0-0.3c0-0.1,0-0.2,0-0.3c0-0.1,0-0.2,0.1-0.3l1-4.4h2.2L39.7,52.1z
	 M96.9,63.4L76.6,29c0.2,0.3,0.2,0.6,0.2,1v31.2c0,1.1-0.9,2.1-2.1,2.1H24.2c-0.7,0-1.4-0.4-1.8-1L44,98.7c1.8,0.2,3.6,0.3,5.5,0.3
	C72,99,91,84,96.9,63.4z M38.2,71.6h22.5c0.4,0,0.7-0.3,0.7-0.7c0-0.4-0.3-0.6-0.7-0.6H38.2c-0.4,0-0.7,0.3-0.7,0.6
	C37.6,71.3,37.9,71.6,38.2,71.6z"/>
<polygon class="st1" points="55.3,64.6 56.7,69.2 42.3,69.2 43.7,64.6 "/>
<path class="st1" d="M38.2,71.6h22.5c0.4,0,0.7-0.3,0.7-0.7c0-0.4-0.3-0.6-0.7-0.6H38.2c-0.4,0-0.7,0.3-0.7,0.6
	C37.6,71.3,37.9,71.6,38.2,71.6z"/>
<path class="st1" d="M74.8,27.9H24.2c-1.1,0-2.1,0.9-2.1,2.1v31.2c0,1.1,0.9,2.1,2.1,2.1h50.6c1.1,0,2.1-0.9,2.1-2.1V29.9
	C76.8,28.8,75.9,27.9,74.8,27.9z M36.3,55l1.1-4c0-0.1,0-0.2,0.1-0.3s0-0.2,0-0.3c0-0.1,0-0.2,0-0.3h0.1c0,0.1,0,0.2,0,0.3
	c0,0.1,0,0.2,0,0.3c0,0.1,0,0.2,0.1,0.3l1.1,4H36.3z M48.2,55l1.1-4c0-0.1,0-0.2,0.1-0.3s0-0.2,0-0.3c0-0.1,0-0.2,0-0.3h0.1
	c0,0.1,0,0.2,0,0.3c0,0.1,0,0.2,0,0.3s0,0.2,0.1,0.3l1.1,4H48.2z M60.2,55l1.1-4c0-0.1,0-0.2,0.1-0.3s0-0.2,0-0.3c0-0.1,0-0.2,0-0.3
	h0.1c0,0.1,0,0.2,0,0.3c0,0.1,0,0.2,0,0.3s0,0.2,0.1,0.3l1.1,4H60.2z M74.3,53.5c0,0.8-0.6,1.4-1.4,1.4h-7.5l2-7.3h-2.2L64,52.1
	c0,0.1,0,0.2-0.1,0.3s0,0.2,0,0.3c0,0.1,0,0.2,0,0.3h-0.1c0-0.1,0-0.2,0-0.3c0-0.1,0-0.2,0-0.3s0-0.2-0.1-0.3l-1-4.4h-2.2l-1,4.4
	c0,0.1,0,0.2-0.1,0.3s0,0.2,0,0.3c0,0.1,0,0.2,0,0.3h-0.1c0-0.1,0-0.2,0-0.3c0-0.1,0-0.2,0-0.3s0-0.2-0.1-0.3l-1.1-4.4h-2.4l2.1,7.3
	h-4.2l2.1-7.3h-2.4L52,52.1c0,0.1,0,0.2-0.1,0.3c0,0.1,0,0.2,0,0.3c0,0.1,0,0.2,0,0.3h-0.1c0-0.1,0-0.2,0-0.3c0-0.1,0-0.2,0-0.3
	c0-0.1,0-0.2-0.1-0.3l-1-4.4h-2.2l-1,4.4c0,0.1,0,0.2-0.1,0.3c0,0.1,0,0.2,0,0.3c0,0.1,0,0.2,0,0.3h-0.1c0-0.1,0-0.2,0-0.3
	c0-0.1,0-0.2,0-0.3s0-0.2-0.1-0.3l-1.1-4.4h-2.4l2.1,7.3h-4.2l2.1-7.3h-2.4L40,52.1c0,0.1,0,0.2-0.1,0.3c0,0.1,0,0.2,0,0.3
	c0,0.1,0,0.2,0,0.3h-0.1c0-0.1,0-0.2,0-0.3c0-0.1,0-0.2,0-0.3c0-0.1,0-0.2-0.1-0.3l-1-4.4h-2.2l-1,4.4c0,0.1,0,0.2-0.1,0.3
	c0,0.1,0,0.2,0,0.3c0,0.1,0,0.2,0,0.3h-0.1c0-0.1,0-0.2,0-0.3c0-0.1,0-0.2,0-0.3c0-0.1,0-0.2-0.1-0.3l-1.1-4.4h-2.2l2,7.3h-7.6
	c-0.8,0-1.4-0.6-1.4-1.4V31.7c0-0.8,0.6-1.4,1.4-1.4h46.8c0.8,0,1.4,0.6,1.4,1.4V53.5z"/>
</svg>
